{
.appVersion = "1357";
DisplayStrings = (
"ABCDEFGHIJKLMNOPQRSTUVWXYZabcdefghijklmnopqrstuvwxyz0123456789\012\012defekt/space (means/space defect/space in/space polish)\012\012polska/space maczka/space z/space chlebem\012\012\012defekt8"
);
customParameters = (
{
name = Axes;
value = (
{
Name = Weight;
Tag = wght;
},
{
Name = Width;
Tag = wdth;
}
);
}
);
date = "2021-12-04 13:25:22 +0000";
familyName = Defekt;
fontMaster = (
{
ascender = 860;
capHeight = 700;
custom = "Reverse Connected";
descender = -200;
id = "4170F2C3-ADB0-4204-BA3B-87919679734A";
userData = {
GSCornerRadius = 45;
};
xHeight = 500;
},
{
ascender = 860;
capHeight = 700;
descender = -200;
id = "A4C12FFD-F5F6-42D6-8363-6D796F05C5E8";
userData = {
GSCornerRadius = 45;
};
weightValue = 200;
xHeight = 500;
},
{
ascender = 860;
capHeight = 700;
custom = Cut;
descender = -200;
iconName = Extended;
id = "38E81DE9-8F9C-4A79-BC09-6CE2D0CDAB48";
userData = {
GSCornerRadius = 45;
};
weightValue = 250;
xHeight = 500;
},
{
ascender = 860;
capHeight = 700;
custom = Connected;
descender = -200;
iconName = Bold_Extended;
id = "779467A8-E68B-4D04-BE8F-984748AF222C";
userData = {
GSCornerRadius = 45;
};
weightValue = 300;
xHeight = 500;
},
{
ascender = 860;
capHeight = 700;
custom = Loose;
descender = -200;
iconName = Light;
id = "0C2EA0A7-CF3D-43DE-A1B1-20537ED6286F";
userData = {
GSCornerRadius = 45;
};
weightValue = 200;
widthValue = 300;
xHeight = 500;
},
{
ascender = 860;
capHeight = 700;
custom = "Connected Loose";
descender = -200;
id = "E46B3A3C-F4DE-4A6E-B6C3-4FEA9D5321E0";
userData = {
GSCornerRadius = 45;
};
weightValue = 300;
widthValue = 300;
xHeight = 500;
},
{
ascender = 860;
capHeight = 700;
custom = "Reverse Connected Loose";
descender = -200;
id = "5FCFDAD1-644A-4B50-89F3-850EB8161FE9";
widthValue = 300;
xHeight = 500;
},
{
ascender = 860;
capHeight = 700;
custom = "Cut Loose";
descender = -200;
id = "A54B81DC-5EE9-468E-87D3-6F4C184F83A3";
weightValue = 250;
widthValue = 300;
xHeight = 500;
}
);
glyphs = (
{
glyphname = A;
lastChange = "2021-12-17 19:08:13 +0000";
layers = (
{
layerId = "A4C12FFD-F5F6-42D6-8363-6D796F05C5E8";
paths = (
{
closed = 1;
nodes = (
"50 0 LINE",
"150 0 LINE",
"150 281 LINE",
"50 281 LINE"
);
},
{
closed = 1;
nodes = (
"60 281 LINE",
"60 201 LINE",
"440 201 LINE",
"440 281 LINE"
);
},
{
closed = 1;
nodes = (
"350 0 LINE",
"450 0 LINE",
"450 281 LINE",
"350 281 LINE"
);
},
{
closed = 1;
nodes = (
"450 536 LINE SMOOTH",
"450 560 OFFCURVE",
"441 577 OFFCURVE",
"423 595 CURVE SMOOTH",
"340 676 LINE SMOOTH",
"322 694 OFFCURVE",
"311 700 OFFCURVE",
"289 700 CURVE SMOOTH",
"211 700 LINE SMOOTH",
"189 700 OFFCURVE",
"178 694 OFFCURVE",
"160 676 CURVE SMOOTH",
"77 595 LINE SMOOTH",
"59 577 OFFCURVE",
"50 560 OFFCURVE",
"50 536 CURVE SMOOTH",
"50 281 LINE",
"150 281 LINE",
"150 607 LINE",
"350 607 LINE",
"350 281 LINE",
"450 281 LINE"
);
}
);
width = 500;
},
{
layerId = "38E81DE9-8F9C-4A79-BC09-6CE2D0CDAB48";
paths = (
{
closed = 1;
nodes = (
"50 0 LINE",
"150 0 LINE",
"150 281 LINE",
"50 281 LINE"
);
},
{
closed = 1;
nodes = (
"60 281 LINE",
"60 201 LINE",
"440 201 LINE",
"440 281 LINE"
);
},
{
closed = 1;
nodes = (
"350 0 LINE",
"450 0 LINE",
"450 281 LINE",
"350 281 LINE"
);
},
{
closed = 1;
nodes = (
"550 536 LINE SMOOTH",
"550 560 OFFCURVE",
"541 577 OFFCURVE",
"523 595 CURVE SMOOTH",
"440 676 LINE SMOOTH",
"422 694 OFFCURVE",
"411 700 OFFCURVE",
"389 700 CURVE SMOOTH",
"311 700 LINE SMOOTH",
"289 700 OFFCURVE",
"278 694 OFFCURVE",
"260 676 CURVE SMOOTH",
"177 595 LINE SMOOTH",
"159 577 OFFCURVE",
"150 560 OFFCURVE",
"150 536 CURVE SMOOTH",
"150 281 LINE",
"250 281 LINE",
"250 607 LINE",
"450 607 LINE",
"450 281 LINE",
"550 281 LINE"
);
}
);
width = 500;
},
{
layerId = "779467A8-E68B-4D04-BE8F-984748AF222C";
paths = (
{
closed = 1;
nodes = (
"50 0 LINE",
"150 0 LINE",
"150 281 LINE",
"50 281 LINE"
);
},
{
closed = 1;
nodes = (
"60 281 LINE",
"60 201 LINE",
"440 201 LINE",
"440 281 LINE"
);
},
{
closed = 1;
nodes = (
"350 0 LINE",
"450 0 LINE",
"450 281 LINE",
"350 281 LINE"
);
},
{
closed = 1;
nodes = (
"650 536 LINE SMOOTH",
"650 560 OFFCURVE",
"641 577 OFFCURVE",
"623 595 CURVE SMOOTH",
"540 676 LINE SMOOTH",
"522 694 OFFCURVE",
"511 700 OFFCURVE",
"489 700 CURVE SMOOTH",
"411 700 LINE SMOOTH",
"389 700 OFFCURVE",
"378 694 OFFCURVE",
"360 676 CURVE SMOOTH",
"277 595 LINE SMOOTH",
"259 577 OFFCURVE",
"250 560 OFFCURVE",
"250 536 CURVE SMOOTH",
"250 281 LINE",
"350 281 LINE",
"350 607 LINE",
"550 607 LINE",
"550 281 LINE",
"650 281 LINE"
);
}
);
width = 500;
},
{
layerId = "4170F2C3-ADB0-4204-BA3B-87919679734A";
paths = (
{
closed = 1;
nodes = (
"50 0 LINE",
"150 0 LINE",
"150 281 LINE",
"50 281 LINE"
);
},
{
closed = 1;
nodes = (
"60 281 LINE",
"60 201 LINE",
"440 201 LINE",
"440 281 LINE"
);
},
{
closed = 1;
nodes = (
"350 0 LINE",
"450 0 LINE",
"450 281 LINE",
"350 281 LINE"
);
},
{
closed = 1;
nodes = (
"250 536 LINE SMOOTH",
"250 560 OFFCURVE",
"241 577 OFFCURVE",
"223 595 CURVE SMOOTH",
"140 676 LINE SMOOTH",
"122 694 OFFCURVE",
"111 700 OFFCURVE",
"89 700 CURVE SMOOTH",
"11 700 LINE SMOOTH",
"-11 700 OFFCURVE",
"-22 694 OFFCURVE",
"-40 676 CURVE SMOOTH",
"-123 595 LINE SMOOTH",
"-141 577 OFFCURVE",
"-150 560 OFFCURVE",
"-150 536 CURVE SMOOTH",
"-150 281 LINE",
"-50 281 LINE",
"-50 607 LINE",
"150 607 LINE",
"150 281 LINE",
"250 281 LINE"
);
}
);
width = 500;
},
{
layerId = "0C2EA0A7-CF3D-43DE-A1B1-20537ED6286F";
paths = (
{
closed = 1;
nodes = (
"50 0 LINE",
"150 0 LINE",
"150 281 LINE",
"50 281 LINE"
);
},
{
closed = 1;
nodes = (
"60 281 LINE",
"60 201 LINE",
"440 201 LINE",
"440 281 LINE"
);
},
{
closed = 1;
nodes = (
"350 0 LINE",
"450 0 LINE",
"450 281 LINE",
"350 281 LINE"
);
},
{
closed = 1;
nodes = (
"450 736 LINE SMOOTH",
"450 760 OFFCURVE",
"441 777 OFFCURVE",
"423 795 CURVE SMOOTH",
"340 876 LINE SMOOTH",
"322 894 OFFCURVE",
"311 900 OFFCURVE",
"289 900 CURVE SMOOTH",
"211 900 LINE SMOOTH",
"189 900 OFFCURVE",
"178 894 OFFCURVE",
"160 876 CURVE SMOOTH",
"77 795 LINE SMOOTH",
"59 777 OFFCURVE",
"50 760 OFFCURVE",
"50 736 CURVE SMOOTH",
"50 481 LINE",
"150 481 LINE",
"150 807 LINE",
"350 807 LINE",
"350 481 LINE",
"450 481 LINE"
);
}
);
width = 500;
},
{
layerId = "E46B3A3C-F4DE-4A6E-B6C3-4FEA9D5321E0";
paths = (
{
closed = 1;
nodes = (
"50 0 LINE",
"150 0 LINE",
"150 281 LINE",
"50 281 LINE"
);
},
{
closed = 1;
nodes = (
"60 281 LINE",
"60 201 LINE",
"440 201 LINE",
"440 281 LINE"
);
},
{
closed = 1;
nodes = (
"350 0 LINE",
"450 0 LINE",
"450 281 LINE",
"350 281 LINE"
);
},
{
closed = 1;
nodes = (
"650 736 LINE SMOOTH",
"650 760 OFFCURVE",
"641 777 OFFCURVE",
"623 795 CURVE SMOOTH",
"540 876 LINE SMOOTH",
"522 894 OFFCURVE",
"511 900 OFFCURVE",
"489 900 CURVE SMOOTH",
"411 900 LINE SMOOTH",
"389 900 OFFCURVE",
"378 894 OFFCURVE",
"360 876 CURVE SMOOTH",
"277 795 LINE SMOOTH",
"259 777 OFFCURVE",
"250 760 OFFCURVE",
"250 736 CURVE SMOOTH",
"250 481 LINE",
"350 481 LINE",
"350 807 LINE",
"550 807 LINE",
"550 481 LINE",
"650 481 LINE"
);
}
);
width = 500;
},
{
layerId = "5FCFDAD1-644A-4B50-89F3-850EB8161FE9";
paths = (
{
closed = 1;
nodes = (
"50 0 LINE",
"150 0 LINE",
"150 281 LINE",
"50 281 LINE"
);
},
{
closed = 1;
nodes = (
"60 281 LINE",
"60 201 LINE",
"440 201 LINE",
"440 281 LINE"
);
},
{
closed = 1;
nodes = (
"350 0 LINE",
"450 0 LINE",
"450 281 LINE",
"350 281 LINE"
);
},
{
closed = 1;
nodes = (
"250 736 LINE SMOOTH",
"250 760 OFFCURVE",
"241 777 OFFCURVE",
"223 795 CURVE SMOOTH",
"140 876 LINE SMOOTH",
"122 894 OFFCURVE",
"111 900 OFFCURVE",
"89 900 CURVE SMOOTH",
"11 900 LINE SMOOTH",
"-11 900 OFFCURVE",
"-22 894 OFFCURVE",
"-40 876 CURVE SMOOTH",
"-123 795 LINE SMOOTH",
"-141 777 OFFCURVE",
"-150 760 OFFCURVE",
"-150 736 CURVE SMOOTH",
"-150 481 LINE",
"-50 481 LINE",
"-50 807 LINE",
"150 807 LINE",
"150 481 LINE",
"250 481 LINE"
);
}
);
width = 500;
},
{
layerId = "A54B81DC-5EE9-468E-87D3-6F4C184F83A3";
paths = (
{
closed = 1;
nodes = (
"50 0 LINE",
"150 0 LINE",
"150 281 LINE",
"50 281 LINE"
);
},
{
closed = 1;
nodes = (
"60 281 LINE",
"60 201 LINE",
"440 201 LINE",
"440 281 LINE"
);
},
{
closed = 1;
nodes = (
"350 0 LINE",
"450 0 LINE",
"450 281 LINE",
"350 281 LINE"
);
},
{
closed = 1;
nodes = (
"550 736 LINE SMOOTH",
"550 760 OFFCURVE",
"541 777 OFFCURVE",
"523 795 CURVE SMOOTH",
"440 876 LINE SMOOTH",
"422 894 OFFCURVE",
"411 900 OFFCURVE",
"389 900 CURVE SMOOTH",
"311 900 LINE SMOOTH",
"289 900 OFFCURVE",
"278 894 OFFCURVE",
"260 876 CURVE SMOOTH",
"177 795 LINE SMOOTH",
"159 777 OFFCURVE",
"150 760 OFFCURVE",
"150 736 CURVE SMOOTH",
"150 481 LINE",
"250 481 LINE",
"250 807 LINE",
"450 807 LINE",
"450 481 LINE",
"550 481 LINE"
);
}
);
width = 500;
}
);
unicode = 0041;
},
{
glyphname = B;
lastChange = "2021-12-17 19:08:13 +0000";
layers = (
{
layerId = "A4C12FFD-F5F6-42D6-8363-6D796F05C5E8";
paths = (
{
closed = 1;
nodes = (
"50 0 LINE",
"150 0 LINE",
"150 281 LINE",
"50 281 LINE"
);
},
{
closed = 1;
nodes = (
"351 416 OFFCURVE",
"364 419 OFFCURVE",
"381 439 CURVE SMOOTH",
"424 490 LINE SMOOTH",
"442 511 OFFCURVE",
"450 526 OFFCURVE",
"450 550 CURVE SMOOTH",
"450 566 LINE SMOOTH",
"450 590 OFFCURVE",
"442 605 OFFCURVE",
"424 626 CURVE SMOOTH",
"381 677 LINE SMOOTH",
"364 697 OFFCURVE",
"351 700 OFFCURVE",
"329 700 CURVE SMOOTH",
"102 700 LINE",
"102 620 LINE",
"358 620 LINE",
"358 495 LINE",
"142 495 LINE",
"142 416 LINE",
"329 416 LINE SMOOTH"
);
},
{
closed = 1;
nodes = (
"358 80 LINE",
"102 80 LINE",
"102 0 LINE",
"329 0 LINE SMOOTH",
"351 0 OFFCURVE",
"364 3 OFFCURVE",
"381 23 CURVE SMOOTH",
"424 74 LINE SMOOTH",
"442 95 OFFCURVE",
"450 110 OFFCURVE",
"450 134 CURVE SMOOTH",
"450 226 LINE SMOOTH",
"450 248 OFFCURVE",
"443 263 OFFCURVE",
"428 281 CURVE",
"358 281 LINE"
);
},
{
closed = 1;
nodes = (
"150 700 LINE",
"50 700 LINE",
"50 281 LINE",
"150 281 LINE"
);
},
{
closed = 1;
nodes = (
"427 283 OFFCURVE",
"425 284 OFFCURVE",
"424 286 CURVE SMOOTH",
"381 337 LINE SMOOTH",
"364 357 OFFCURVE",
"351 360 OFFCURVE",
"329 360 CURVE SMOOTH",
"142 360 LINE",
"142 281 LINE",
"358 281 LINE",
"428 281 LINE"
);
}
);
width = 500;
},
{
layerId = "38E81DE9-8F9C-4A79-BC09-6CE2D0CDAB48";
paths = (
{
closed = 1;
nodes = (
"50 0 LINE",
"150 0 LINE",
"150 281 LINE",
"50 281 LINE"
);
},
{
closed = 1;
nodes = (
"431 416 OFFCURVE",
"444 419 OFFCURVE",
"461 439 CURVE SMOOTH",
"504 490 LINE SMOOTH",
"522 511 OFFCURVE",
"530 526 OFFCURVE",
"530 550 CURVE SMOOTH",
"530 566 LINE SMOOTH",
"530 590 OFFCURVE",
"522 605 OFFCURVE",
"504 626 CURVE SMOOTH",
"461 677 LINE SMOOTH",
"444 697 OFFCURVE",
"431 700 OFFCURVE",
"409 700 CURVE SMOOTH",
"202 700 LINE",
"202 620 LINE",
"438 620 LINE",
"438 495 LINE",
"242 495 LINE",
"242 416 LINE",
"409 416 LINE SMOOTH"
);
},
{
closed = 1;
nodes = (
"358 80 LINE",
"102 80 LINE",
"102 0 LINE",
"329 0 LINE SMOOTH",
"351 0 OFFCURVE",
"364 3 OFFCURVE",
"381 23 CURVE SMOOTH",
"424 74 LINE SMOOTH",
"442 95 OFFCURVE",
"450 110 OFFCURVE",
"450 134 CURVE SMOOTH",
"450 226 LINE SMOOTH",
"450 248 OFFCURVE",
"443 263 OFFCURVE",
"428 281 CURVE",
"358 281 LINE"
);
},
{
closed = 1;
nodes = (
"250 700 LINE",
"150 700 LINE",
"150 281 LINE",
"250 281 LINE"
);
},
{
closed = 1;
nodes = (
"549 283 OFFCURVE",
"547 284 OFFCURVE",
"546 286 CURVE SMOOTH",
"503 337 LINE SMOOTH",
"486 357 OFFCURVE",
"473 360 OFFCURVE",
"451 360 CURVE SMOOTH",
"242 360 LINE",
"242 281 LINE",
"480 281 LINE",
"550 281 LINE"
);
}
);
width = 500;
},
{
layerId = "779467A8-E68B-4D04-BE8F-984748AF222C";
paths = (
{
closed = 1;
nodes = (
"50 0 LINE",
"150 0 LINE",
"150 281 LINE",
"50 281 LINE"
);
},
{
closed = 1;
nodes = (
"531 416 OFFCURVE",
"544 419 OFFCURVE",
"561 439 CURVE SMOOTH",
"604 490 LINE SMOOTH",
"622 511 OFFCURVE",
"630 526 OFFCURVE",
"630 550 CURVE SMOOTH",
"630 566 LINE SMOOTH",
"630 590 OFFCURVE",
"622 605 OFFCURVE",
"604 626 CURVE SMOOTH",
"561 677 LINE SMOOTH",
"544 697 OFFCURVE",
"531 700 OFFCURVE",
"509 700 CURVE SMOOTH",
"302 700 LINE",
"302 620 LINE",
"538 620 LINE",
"538 495 LINE",
"342 495 LINE",
"342 416 LINE",
"509 416 LINE SMOOTH"
);
},
{
closed = 1;
nodes = (
"358 80 LINE",
"102 80 LINE",
"102 0 LINE",
"329 0 LINE SMOOTH",
"351 0 OFFCURVE",
"364 3 OFFCURVE",
"381 23 CURVE SMOOTH",
"424 74 LINE SMOOTH",
"442 95 OFFCURVE",
"450 110 OFFCURVE",
"450 134 CURVE SMOOTH",
"450 226 LINE SMOOTH",
"450 248 OFFCURVE",
"443 263 OFFCURVE",
"428 281 CURVE",
"358 281 LINE"
);
},
{
closed = 1;
nodes = (
"350 700 LINE",
"250 700 LINE",
"250 281 LINE",
"350 281 LINE"
);
},
{
closed = 1;
nodes = (
"649 283 OFFCURVE",
"647 284 OFFCURVE",
"646 286 CURVE SMOOTH",
"603 337 LINE SMOOTH",
"586 357 OFFCURVE",
"573 360 OFFCURVE",
"551 360 CURVE SMOOTH",
"342 360 LINE",
"342 281 LINE",
"580 281 LINE",
"650 281 LINE"
);
}
);
width = 500;
},
{
layerId = "4170F2C3-ADB0-4204-BA3B-87919679734A";
paths = (
{
closed = 1;
nodes = (
"50 0 LINE",
"150 0 LINE",
"150 281 LINE",
"50 281 LINE"
);
},
{
closed = 1;
nodes = (
"131 416 OFFCURVE",
"144 419 OFFCURVE",
"161 439 CURVE SMOOTH",
"204 490 LINE SMOOTH",
"222 511 OFFCURVE",
"230 526 OFFCURVE",
"230 550 CURVE SMOOTH",
"230 566 LINE SMOOTH",
"230 590 OFFCURVE",
"222 605 OFFCURVE",
"204 626 CURVE SMOOTH",
"161 677 LINE SMOOTH",
"144 697 OFFCURVE",
"131 700 OFFCURVE",
"109 700 CURVE SMOOTH",
"-98 700 LINE",
"-98 620 LINE",
"138 620 LINE",
"138 495 LINE",
"-58 495 LINE",
"-58 416 LINE",
"109 416 LINE SMOOTH"
);
},
{
closed = 1;
nodes = (
"350 80 LINE",
"102 80 LINE",
"102 0 LINE",
"329 0 LINE SMOOTH",
"351 0 OFFCURVE",
"364 3 OFFCURVE",
"381 23 CURVE SMOOTH",
"424 74 LINE SMOOTH",
"442 95 OFFCURVE",
"450 110 OFFCURVE",
"450 134 CURVE SMOOTH",
"450 226 LINE SMOOTH",
"450 248 OFFCURVE",
"450 263 OFFCURVE",
"450 281 CURVE",
"350 281 LINE"
);
},
{
closed = 1;
nodes = (
"-50 700 LINE",
"-150 700 LINE",
"-150 281 LINE",
"-50 281 LINE"
);
},
{
closed = 1;
nodes = (
"249 283 OFFCURVE",
"247 284 OFFCURVE",
"246 286 CURVE SMOOTH",
"203 337 LINE SMOOTH",
"186 357 OFFCURVE",
"173 360 OFFCURVE",
"151 360 CURVE SMOOTH",
"-58 360 LINE",
"-58 281 LINE",
"180 281 LINE",
"250 281 LINE"
);
}
);
width = 500;
},
{
layerId = "0C2EA0A7-CF3D-43DE-A1B1-20537ED6286F";
paths = (
{
closed = 1;
nodes = (
"50 -200 LINE",
"150 -200 LINE",
"150 81 LINE",
"50 81 LINE"
);
},
{
closed = 1;
nodes = (
"351 416 OFFCURVE",
"364 419 OFFCURVE",
"381 439 CURVE SMOOTH",
"424 490 LINE SMOOTH",
"442 511 OFFCURVE",
"450 526 OFFCURVE",
"450 550 CURVE SMOOTH",
"450 566 LINE SMOOTH",
"450 590 OFFCURVE",
"442 605 OFFCURVE",
"424 626 CURVE SMOOTH",
"381 677 LINE SMOOTH",
"364 697 OFFCURVE",
"351 700 OFFCURVE",
"329 700 CURVE SMOOTH",
"102 700 LINE",
"102 620 LINE",
"358 620 LINE",
"358 495 LINE",
"142 495 LINE",
"142 416 LINE",
"329 416 LINE SMOOTH"
);
},
{
closed = 1;
nodes = (
"358 -120 LINE",
"102 -120 LINE",
"102 -200 LINE",
"329 -200 LINE SMOOTH",
"351 -200 OFFCURVE",
"364 -197 OFFCURVE",
"381 -177 CURVE SMOOTH",
"424 -126 LINE SMOOTH",
"442 -105 OFFCURVE",
"450 -90 OFFCURVE",
"450 -66 CURVE SMOOTH",
"450 26 LINE SMOOTH",
"450 48 OFFCURVE",
"443 63 OFFCURVE",
"428 81 CURVE",
"358 81 LINE"
);
},
{
closed = 1;
nodes = (
"150 700 LINE",
"50 700 LINE",
"50 281 LINE",
"150 281 LINE"
);
},
{
closed = 1;
nodes = (
"427 283 OFFCURVE",
"425 284 OFFCURVE",
"424 286 CURVE SMOOTH",
"381 337 LINE SMOOTH",
"364 357 OFFCURVE",
"351 360 OFFCURVE",
"329 360 CURVE SMOOTH",
"142 360 LINE",
"142 281 LINE",
"358 281 LINE",
"428 281 LINE"
);
}
);
width = 500;
},
{
layerId = "E46B3A3C-F4DE-4A6E-B6C3-4FEA9D5321E0";
paths = (
{
closed = 1;
nodes = (
"50 -200 LINE",
"150 -200 LINE",
"150 81 LINE",
"50 81 LINE"
);
},
{
closed = 1;
nodes = (
"531 416 OFFCURVE",
"544 419 OFFCURVE",
"561 439 CURVE SMOOTH",
"604 490 LINE SMOOTH",
"622 511 OFFCURVE",
"630 526 OFFCURVE",
"630 550 CURVE SMOOTH",
"630 566 LINE SMOOTH",
"630 590 OFFCURVE",
"622 605 OFFCURVE",
"604 626 CURVE SMOOTH",
"561 677 LINE SMOOTH",
"544 697 OFFCURVE",
"531 700 OFFCURVE",
"509 700 CURVE SMOOTH",
"302 700 LINE",
"302 620 LINE",
"538 620 LINE",
"538 495 LINE",
"342 495 LINE",
"342 416 LINE",
"509 416 LINE SMOOTH"
);
},
{
closed = 1;
nodes = (
"358 -120 LINE",
"102 -120 LINE",
"102 -200 LINE",
"329 -200 LINE SMOOTH",
"351 -200 OFFCURVE",
"364 -197 OFFCURVE",
"381 -177 CURVE SMOOTH",
"424 -126 LINE SMOOTH",
"442 -105 OFFCURVE",
"450 -90 OFFCURVE",
"450 -66 CURVE SMOOTH",
"450 26 LINE SMOOTH",
"450 48 OFFCURVE",
"443 63 OFFCURVE",
"428 81 CURVE",
"358 81 LINE"
);
},
{
closed = 1;
nodes = (
"350 700 LINE",
"250 700 LINE",
"250 281 LINE",
"350 281 LINE"
);
},
{
closed = 1;
nodes = (
"649 283 OFFCURVE",
"647 284 OFFCURVE",
"646 286 CURVE SMOOTH",
"603 337 LINE SMOOTH",
"586 357 OFFCURVE",
"573 360 OFFCURVE",
"551 360 CURVE SMOOTH",
"342 360 LINE",
"342 281 LINE",
"580 281 LINE",
"650 281 LINE"
);
}
);
width = 500;
},
{
layerId = "5FCFDAD1-644A-4B50-89F3-850EB8161FE9";
paths = (
{
closed = 1;
nodes = (
"50 -200 LINE",
"150 -200 LINE",
"150 81 LINE",
"50 81 LINE"
);
},
{
closed = 1;
nodes = (
"171 416 OFFCURVE",
"184 419 OFFCURVE",
"201 439 CURVE SMOOTH",
"244 490 LINE SMOOTH",
"262 511 OFFCURVE",
"270 526 OFFCURVE",
"270 550 CURVE SMOOTH",
"270 566 LINE SMOOTH",
"270 590 OFFCURVE",
"262 605 OFFCURVE",
"244 626 CURVE SMOOTH",
"201 677 LINE SMOOTH",
"184 697 OFFCURVE",
"171 700 OFFCURVE",
"149 700 CURVE SMOOTH",
"-98 700 LINE",
"-98 620 LINE",
"178 620 LINE",
"178 495 LINE",
"-58 495 LINE",
"-58 416 LINE",
"149 416 LINE SMOOTH"
);
},
{
closed = 1;
nodes = (
"358 -120 LINE",
"102 -120 LINE",
"102 -200 LINE",
"329 -200 LINE SMOOTH",
"351 -200 OFFCURVE",
"364 -197 OFFCURVE",
"381 -177 CURVE SMOOTH",
"424 -126 LINE SMOOTH",
"442 -105 OFFCURVE",
"450 -90 OFFCURVE",
"450 -66 CURVE SMOOTH",
"450 26 LINE SMOOTH",
"450 48 OFFCURVE",
"443 63 OFFCURVE",
"428 81 CURVE",
"358 81 LINE"
);
},
{
closed = 1;
nodes = (
"-50 700 LINE",
"-150 700 LINE",
"-150 281 LINE",
"-50 281 LINE"
);
},
{
closed = 1;
nodes = (
"205 283 OFFCURVE",
"203 284 OFFCURVE",
"202 286 CURVE SMOOTH",
"159 337 LINE SMOOTH",
"142 357 OFFCURVE",
"129 360 OFFCURVE",
"107 360 CURVE SMOOTH",
"-58 360 LINE",
"-58 281 LINE",
"136 281 LINE",
"206 281 LINE"
);
}
);
width = 500;
},
{
layerId = "A54B81DC-5EE9-468E-87D3-6F4C184F83A3";
paths = (
{
closed = 1;
nodes = (
"50 -200 LINE",
"150 -200 LINE",
"150 81 LINE",
"50 81 LINE"
);
},
{
closed = 1;
nodes = (
"441 416 OFFCURVE",
"454 419 OFFCURVE",
"471 439 CURVE SMOOTH",
"514 490 LINE SMOOTH",
"532 511 OFFCURVE",
"540 526 OFFCURVE",
"540 550 CURVE SMOOTH",
"540 566 LINE SMOOTH",
"540 590 OFFCURVE",
"532 605 OFFCURVE",
"514 626 CURVE SMOOTH",
"471 677 LINE SMOOTH",
"454 697 OFFCURVE",
"441 700 OFFCURVE",
"419 700 CURVE SMOOTH",
"202 700 LINE",
"202 620 LINE",
"448 620 LINE",
"448 495 LINE",
"242 495 LINE",
"242 416 LINE",
"419 416 LINE SMOOTH"
);
},
{
closed = 1;
nodes = (
"358 -120 LINE",
"102 -120 LINE",
"102 -200 LINE",
"329 -200 LINE SMOOTH",
"351 -200 OFFCURVE",
"364 -197 OFFCURVE",
"381 -177 CURVE SMOOTH",
"424 -126 LINE SMOOTH",
"442 -105 OFFCURVE",
"450 -90 OFFCURVE",
"450 -66 CURVE SMOOTH",
"450 26 LINE SMOOTH",
"450 48 OFFCURVE",
"443 63 OFFCURVE",
"428 81 CURVE",
"358 81 LINE"
);
},
{
closed = 1;
nodes = (
"250 700 LINE",
"150 700 LINE",
"150 281 LINE",
"250 281 LINE"
);
},
{
closed = 1;
nodes = (
"538 283 OFFCURVE",
"536 284 OFFCURVE",
"535 286 CURVE SMOOTH",
"492 337 LINE SMOOTH",
"475 357 OFFCURVE",
"462 360 OFFCURVE",
"440 360 CURVE SMOOTH",
"242 360 LINE",
"242 281 LINE",
"469 281 LINE",
"539 281 LINE"
);
}
);
width = 500;
}
);
unicode = 0042;
},
{
glyphname = C;
lastChange = "2021-12-17 19:08:13 +0000";
layers = (
{
layerId = "A4C12FFD-F5F6-42D6-8363-6D796F05C5E8";
paths = (
{
closed = 1;
nodes = (
"50 134 LINE SMOOTH",
"50 110 OFFCURVE",
"58 95 OFFCURVE",
"76 74 CURVE SMOOTH",
"119 23 LINE SMOOTH",
"136 3 OFFCURVE",
"149 0 OFFCURVE",
"171 0 CURVE SMOOTH",
"329 0 LINE SMOOTH",
"351 0 OFFCURVE",
"364 3 OFFCURVE",
"381 23 CURVE SMOOTH",
"424 74 LINE SMOOTH",
"442 95 OFFCURVE",
"450 110 OFFCURVE",
"450 134 CURVE SMOOTH",
"450 210 LINE",
"351 210 LINE",
"351 87 LINE",
"150 87 LINE",
"150 281 LINE",
"50 281 LINE"
);
},
{
closed = 1;
nodes = (
"150 620 LINE",
"350 620 LINE",
"350 500 LINE",
"450 500 LINE",
"450 566 LINE SMOOTH",
"450 590 OFFCURVE",
"442 605 OFFCURVE",
"424 626 CURVE SMOOTH",
"381 677 LINE SMOOTH",
"364 697 OFFCURVE",
"351 700 OFFCURVE",
"329 700 CURVE SMOOTH",
"171 700 LINE SMOOTH",
"149 700 OFFCURVE",
"136 697 OFFCURVE",
"119 677 CURVE SMOOTH",
"76 626 LINE SMOOTH",
"58 605 OFFCURVE",
"50 590 OFFCURVE",
"50 566 CURVE SMOOTH",
"50 281 LINE",
"150 281 LINE"
);
}
);
width = 500;
},
{
layerId = "38E81DE9-8F9C-4A79-BC09-6CE2D0CDAB48";
paths = (
{
closed = 1;
nodes = (
"50 134 LINE SMOOTH",
"50 110 OFFCURVE",
"58 95 OFFCURVE",
"76 74 CURVE SMOOTH",
"119 23 LINE SMOOTH",
"136 3 OFFCURVE",
"149 0 OFFCURVE",
"171 0 CURVE SMOOTH",
"329 0 LINE SMOOTH",
"351 0 OFFCURVE",
"364 3 OFFCURVE",
"381 23 CURVE SMOOTH",
"424 74 LINE SMOOTH",
"442 95 OFFCURVE",
"450 110 OFFCURVE",
"450 134 CURVE SMOOTH",
"450 210 LINE",
"351 210 LINE",
"351 87 LINE",
"150 87 LINE",
"150 281 LINE",
"50 281 LINE"
);
},
{
closed = 1;
nodes = (
"250 620 LINE",
"450 620 LINE",
"450 500 LINE",
"550 500 LINE",
"550 566 LINE SMOOTH",
"550 590 OFFCURVE",
"542 605 OFFCURVE",
"524 626 CURVE SMOOTH",
"481 677 LINE SMOOTH",
"464 697 OFFCURVE",
"451 700 OFFCURVE",
"429 700 CURVE SMOOTH",
"271 700 LINE SMOOTH",
"249 700 OFFCURVE",
"236 697 OFFCURVE",
"219 677 CURVE SMOOTH",
"176 626 LINE SMOOTH",
"158 605 OFFCURVE",
"150 590 OFFCURVE",
"150 566 CURVE SMOOTH",
"150 281 LINE",
"250 281 LINE"
);
}
);
width = 500;
},
{
layerId = "779467A8-E68B-4D04-BE8F-984748AF222C";
paths = (
{
closed = 1;
nodes = (
"50 134 LINE SMOOTH",
"50 110 OFFCURVE",
"58 95 OFFCURVE",
"76 74 CURVE SMOOTH",
"119 23 LINE SMOOTH",
"136 3 OFFCURVE",
"149 0 OFFCURVE",
"171 0 CURVE SMOOTH",
"329 0 LINE SMOOTH",
"351 0 OFFCURVE",
"364 3 OFFCURVE",
"381 23 CURVE SMOOTH",
"424 74 LINE SMOOTH",
"442 95 OFFCURVE",
"450 110 OFFCURVE",
"450 134 CURVE SMOOTH",
"450 210 LINE",
"351 210 LINE",
"351 87 LINE",
"150 87 LINE",
"150 281 LINE",
"50 281 LINE"
);
},
{
closed = 1;
nodes = (
"350 620 LINE",
"550 620 LINE",
"550 500 LINE",
"650 500 LINE",
"650 566 LINE SMOOTH",
"650 590 OFFCURVE",
"642 605 OFFCURVE",
"624 626 CURVE SMOOTH",
"581 677 LINE SMOOTH",
"564 697 OFFCURVE",
"551 700 OFFCURVE",
"529 700 CURVE SMOOTH",
"371 700 LINE SMOOTH",
"349 700 OFFCURVE",
"336 697 OFFCURVE",
"319 677 CURVE SMOOTH",
"276 626 LINE SMOOTH",
"258 605 OFFCURVE",
"250 590 OFFCURVE",
"250 566 CURVE SMOOTH",
"250 281 LINE",
"350 281 LINE"
);
}
);
width = 500;
},
{
layerId = "4170F2C3-ADB0-4204-BA3B-87919679734A";
paths = (
{
closed = 1;
nodes = (
"50 134 LINE SMOOTH",
"50 110 OFFCURVE",
"58 95 OFFCURVE",
"76 74 CURVE SMOOTH",
"119 23 LINE SMOOTH",
"136 3 OFFCURVE",
"149 0 OFFCURVE",
"171 0 CURVE SMOOTH",
"329 0 LINE SMOOTH",
"351 0 OFFCURVE",
"364 3 OFFCURVE",
"381 23 CURVE SMOOTH",
"424 74 LINE SMOOTH",
"442 95 OFFCURVE",
"450 110 OFFCURVE",
"450 134 CURVE SMOOTH",
"450 210 LINE",
"351 210 LINE",
"351 87 LINE",
"150 87 LINE",
"150 281 LINE",
"50 281 LINE"
);
},
{
closed = 1;
nodes = (
"-50 620 LINE",
"150 620 LINE",
"150 500 LINE",
"250 500 LINE",
"250 566 LINE SMOOTH",
"250 590 OFFCURVE",
"242 605 OFFCURVE",
"224 626 CURVE SMOOTH",
"181 677 LINE SMOOTH",
"164 697 OFFCURVE",
"151 700 OFFCURVE",
"129 700 CURVE SMOOTH",
"-29 700 LINE SMOOTH",
"-51 700 OFFCURVE",
"-64 697 OFFCURVE",
"-81 677 CURVE SMOOTH",
"-124 626 LINE SMOOTH",
"-142 605 OFFCURVE",
"-150 590 OFFCURVE",
"-150 566 CURVE SMOOTH",
"-150 281 LINE",
"-50 281 LINE"
);
}
);
width = 500;
},
{
layerId = "0C2EA0A7-CF3D-43DE-A1B1-20537ED6286F";
paths = (
{
closed = 1;
nodes = (
"50 134 LINE SMOOTH",
"50 110 OFFCURVE",
"58 95 OFFCURVE",
"76 74 CURVE SMOOTH",
"119 23 LINE SMOOTH",
"136 3 OFFCURVE",
"149 0 OFFCURVE",
"171 0 CURVE SMOOTH",
"329 0 LINE SMOOTH",
"351 0 OFFCURVE",
"364 3 OFFCURVE",
"381 23 CURVE SMOOTH",
"424 74 LINE SMOOTH",
"442 95 OFFCURVE",
"450 110 OFFCURVE",
"450 134 CURVE SMOOTH",
"450 210 LINE",
"351 210 LINE",
"351 87 LINE",
"150 87 LINE",
"150 281 LINE",
"50 281 LINE"
);
},
{
closed = 1;
nodes = (
"150 820 LINE",
"350 820 LINE",
"350 700 LINE",
"450 700 LINE",
"450 766 LINE SMOOTH",
"450 790 OFFCURVE",
"442 805 OFFCURVE",
"424 826 CURVE SMOOTH",
"381 877 LINE SMOOTH",
"364 897 OFFCURVE",
"351 900 OFFCURVE",
"329 900 CURVE SMOOTH",
"171 900 LINE SMOOTH",
"149 900 OFFCURVE",
"136 897 OFFCURVE",
"119 877 CURVE SMOOTH",
"76 826 LINE SMOOTH",
"58 805 OFFCURVE",
"50 790 OFFCURVE",
"50 766 CURVE SMOOTH",
"50 481 LINE",
"150 481 LINE"
);
}
);
width = 500;
},
{
layerId = "E46B3A3C-F4DE-4A6E-B6C3-4FEA9D5321E0";
paths = (
{
closed = 1;
nodes = (
"50 134 LINE SMOOTH",
"50 110 OFFCURVE",
"58 95 OFFCURVE",
"76 74 CURVE SMOOTH",
"119 23 LINE SMOOTH",
"136 3 OFFCURVE",
"149 0 OFFCURVE",
"171 0 CURVE SMOOTH",
"329 0 LINE SMOOTH",
"351 0 OFFCURVE",
"364 3 OFFCURVE",
"381 23 CURVE SMOOTH",
"424 74 LINE SMOOTH",
"442 95 OFFCURVE",
"450 110 OFFCURVE",
"450 134 CURVE SMOOTH",
"450 210 LINE",
"351 210 LINE",
"351 87 LINE",
"150 87 LINE",
"150 281 LINE",
"50 281 LINE"
);
},
{
closed = 1;
nodes = (
"350 820 LINE",
"550 820 LINE",
"550 700 LINE",
"650 700 LINE",
"650 766 LINE SMOOTH",
"650 790 OFFCURVE",
"642 805 OFFCURVE",
"624 826 CURVE SMOOTH",
"581 877 LINE SMOOTH",
"564 897 OFFCURVE",
"551 900 OFFCURVE",
"529 900 CURVE SMOOTH",
"371 900 LINE SMOOTH",
"349 900 OFFCURVE",
"336 897 OFFCURVE",
"319 877 CURVE SMOOTH",
"276 826 LINE SMOOTH",
"258 805 OFFCURVE",
"250 790 OFFCURVE",
"250 766 CURVE SMOOTH",
"250 481 LINE",
"350 481 LINE"
);
}
);
width = 500;
},
{
layerId = "5FCFDAD1-644A-4B50-89F3-850EB8161FE9";
paths = (
{
closed = 1;
nodes = (
"50 134 LINE SMOOTH",
"50 110 OFFCURVE",
"58 95 OFFCURVE",
"76 74 CURVE SMOOTH",
"119 23 LINE SMOOTH",
"136 3 OFFCURVE",
"149 0 OFFCURVE",
"171 0 CURVE SMOOTH",
"329 0 LINE SMOOTH",
"351 0 OFFCURVE",
"364 3 OFFCURVE",
"381 23 CURVE SMOOTH",
"424 74 LINE SMOOTH",
"442 95 OFFCURVE",
"450 110 OFFCURVE",
"450 134 CURVE SMOOTH",
"450 210 LINE",
"351 210 LINE",
"351 87 LINE",
"150 87 LINE",
"150 281 LINE",
"50 281 LINE"
);
},
{
closed = 1;
nodes = (
"-50 820 LINE",
"150 820 LINE",
"150 700 LINE",
"250 700 LINE",
"250 766 LINE SMOOTH",
"250 790 OFFCURVE",
"242 805 OFFCURVE",
"224 826 CURVE SMOOTH",
"181 877 LINE SMOOTH",
"164 897 OFFCURVE",
"151 900 OFFCURVE",
"129 900 CURVE SMOOTH",
"-29 900 LINE SMOOTH",
"-51 900 OFFCURVE",
"-64 897 OFFCURVE",
"-81 877 CURVE SMOOTH",
"-124 826 LINE SMOOTH",
"-142 805 OFFCURVE",
"-150 790 OFFCURVE",
"-150 766 CURVE SMOOTH",
"-150 481 LINE",
"-50 481 LINE"
);
}
);
width = 500;
},
{
layerId = "A54B81DC-5EE9-468E-87D3-6F4C184F83A3";
paths = (
{
closed = 1;
nodes = (
"50 134 LINE SMOOTH",
"50 110 OFFCURVE",
"58 95 OFFCURVE",
"76 74 CURVE SMOOTH",
"119 23 LINE SMOOTH",
"136 3 OFFCURVE",
"149 0 OFFCURVE",
"171 0 CURVE SMOOTH",
"329 0 LINE SMOOTH",
"351 0 OFFCURVE",
"364 3 OFFCURVE",
"381 23 CURVE SMOOTH",
"424 74 LINE SMOOTH",
"442 95 OFFCURVE",
"450 110 OFFCURVE",
"450 134 CURVE SMOOTH",
"450 210 LINE",
"351 210 LINE",
"351 87 LINE",
"150 87 LINE",
"150 281 LINE",
"50 281 LINE"
);
},
{
closed = 1;
nodes = (
"250 820 LINE",
"450 820 LINE",
"450 700 LINE",
"550 700 LINE",
"550 766 LINE SMOOTH",
"550 790 OFFCURVE",
"542 805 OFFCURVE",
"524 826 CURVE SMOOTH",
"481 877 LINE SMOOTH",
"464 897 OFFCURVE",
"451 900 OFFCURVE",
"429 900 CURVE SMOOTH",
"271 900 LINE SMOOTH",
"249 900 OFFCURVE",
"236 897 OFFCURVE",
"219 877 CURVE SMOOTH",
"176 826 LINE SMOOTH",
"158 805 OFFCURVE",
"150 790 OFFCURVE",
"150 766 CURVE SMOOTH",
"150 481 LINE",
"250 481 LINE"
);
}
);
width = 500;
}
);
unicode = 0043;
},
{
glyphname = D;
lastChange = "2021-12-17 19:08:13 +0000";
layers = (
{
layerId = "A4C12FFD-F5F6-42D6-8363-6D796F05C5E8";
paths = (
{
closed = 1;
nodes = (
"358 90 LINE",
"50 90 LINE",
"50 0 LINE",
"329 0 LINE SMOOTH",
"351 0 OFFCURVE",
"364 3 OFFCURVE",
"381 23 CURVE SMOOTH",
"424 74 LINE SMOOTH",
"442 95 OFFCURVE",
"450 110 OFFCURVE",
"450 134 CURVE SMOOTH",
"450 281 LINE",
"358 281 LINE"
);
},
{
closed = 1;
nodes = (
"50 0 LINE",
"150 0 LINE",
"150 281 LINE",
"50 281 LINE"
);
},
{
closed = 1;
nodes = (
"150 700 LINE",
"50 700 LINE",
"50 281 LINE",
"150 281 LINE"
);
},
{
closed = 1;
nodes = (
"450 566 LINE SMOOTH",
"450 590 OFFCURVE",
"442 605 OFFCURVE",
"424 626 CURVE SMOOTH",
"381 677 LINE SMOOTH",
"364 697 OFFCURVE",
"351 700 OFFCURVE",
"329 700 CURVE SMOOTH",
"72 700 LINE",
"72 609 LINE",
"358 609 LINE",
"358 281 LINE",
"450 281 LINE"
);
}
);
width = 500;
},
{
layerId = "38E81DE9-8F9C-4A79-BC09-6CE2D0CDAB48";
paths = (
{
closed = 1;
nodes = (
"358 90 LINE",
"50 90 LINE",
"50 0 LINE",
"329 0 LINE SMOOTH",
"351 0 OFFCURVE",
"364 3 OFFCURVE",
"381 23 CURVE SMOOTH",
"424 74 LINE SMOOTH",
"442 95 OFFCURVE",
"450 110 OFFCURVE",
"450 134 CURVE SMOOTH",
"450 281 LINE",
"358 281 LINE"
);
},
{
closed = 1;
nodes = (
"50 0 LINE",
"150 0 LINE",
"150 281 LINE",
"50 281 LINE"
);
},
{
closed = 1;
nodes = (
"250 700 LINE",
"150 700 LINE",
"150 281 LINE",
"250 281 LINE"
);
},
{
closed = 1;
nodes = (
"550 566 LINE SMOOTH",
"550 590 OFFCURVE",
"542 605 OFFCURVE",
"524 626 CURVE SMOOTH",
"481 677 LINE SMOOTH",
"464 697 OFFCURVE",
"451 700 OFFCURVE",
"429 700 CURVE SMOOTH",
"172 700 LINE",
"172 609 LINE",
"450 609 LINE",
"450 281 LINE",
"550 281 LINE"
);
}
);
width = 500;
},
{
layerId = "779467A8-E68B-4D04-BE8F-984748AF222C";
paths = (
{
closed = 1;
nodes = (
"358 90 LINE",
"50 90 LINE",
"50 0 LINE",
"329 0 LINE SMOOTH",
"351 0 OFFCURVE",
"364 3 OFFCURVE",
"381 23 CURVE SMOOTH",
"424 74 LINE SMOOTH",
"442 95 OFFCURVE",
"450 110 OFFCURVE",
"450 134 CURVE SMOOTH",
"450 281 LINE",
"358 281 LINE"
);
},
{
closed = 1;
nodes = (
"50 0 LINE",
"150 0 LINE",
"150 281 LINE",
"50 281 LINE"
);
},
{
closed = 1;
nodes = (
"350 700 LINE",
"250 700 LINE",
"250 281 LINE",
"350 281 LINE"
);
},
{
closed = 1;
nodes = (
"650 566 LINE SMOOTH",
"650 590 OFFCURVE",
"642 605 OFFCURVE",
"624 626 CURVE SMOOTH",
"581 677 LINE SMOOTH",
"564 697 OFFCURVE",
"551 700 OFFCURVE",
"529 700 CURVE SMOOTH",
"272 700 LINE",
"272 609 LINE",
"550 609 LINE",
"550 281 LINE",
"650 281 LINE"
);
}
);
width = 500;
},
{
layerId = "4170F2C3-ADB0-4204-BA3B-87919679734A";
paths = (
{
closed = 1;
nodes = (
"350 90 LINE",
"50 90 LINE",
"50 0 LINE",
"329 0 LINE SMOOTH",
"351 0 OFFCURVE",
"364 3 OFFCURVE",
"381 23 CURVE SMOOTH",
"424 74 LINE SMOOTH",
"442 95 OFFCURVE",
"450 110 OFFCURVE",
"450 134 CURVE SMOOTH",
"450 281 LINE",
"350 281 LINE"
);
},
{
closed = 1;
nodes = (
"50 0 LINE",
"150 0 LINE",
"150 281 LINE",
"50 281 LINE"
);
},
{
closed = 1;
nodes = (
"-50 700 LINE",
"-150 700 LINE",
"-150 281 LINE",
"-50 281 LINE"
);
},
{
closed = 1;
nodes = (
"250 566 LINE SMOOTH",
"250 590 OFFCURVE",
"242 605 OFFCURVE",
"224 626 CURVE SMOOTH",
"181 677 LINE SMOOTH",
"164 697 OFFCURVE",
"151 700 OFFCURVE",
"129 700 CURVE SMOOTH",
"-128 700 LINE",
"-128 609 LINE",
"150 609 LINE",
"150 281 LINE",
"250 281 LINE"
);
}
);
width = 500;
},
{
layerId = "0C2EA0A7-CF3D-43DE-A1B1-20537ED6286F";
paths = (
{
closed = 1;
nodes = (
"358 -110 LINE",
"50 -110 LINE",
"50 -200 LINE",
"329 -200 LINE SMOOTH",
"351 -200 OFFCURVE",
"364 -197 OFFCURVE",
"381 -177 CURVE SMOOTH",
"424 -126 LINE SMOOTH",
"442 -105 OFFCURVE",
"450 -90 OFFCURVE",
"450 -66 CURVE SMOOTH",
"450 81 LINE",
"358 81 LINE"
);
},
{
closed = 1;
nodes = (
"50 -200 LINE",
"150 -200 LINE",
"150 81 LINE",
"50 81 LINE"
);
},
{
closed = 1;
nodes = (
"150 700 LINE",
"50 700 LINE",
"50 281 LINE",
"150 281 LINE"
);
},
{
closed = 1;
nodes = (
"450 566 LINE SMOOTH",
"450 590 OFFCURVE",
"442 605 OFFCURVE",
"424 626 CURVE SMOOTH",
"381 677 LINE SMOOTH",
"364 697 OFFCURVE",
"351 700 OFFCURVE",
"329 700 CURVE SMOOTH",
"72 700 LINE",
"72 609 LINE",
"358 609 LINE",
"358 281 LINE",
"450 281 LINE"
);
}
);
width = 500;
},
{
layerId = "E46B3A3C-F4DE-4A6E-B6C3-4FEA9D5321E0";
paths = (
{
closed = 1;
nodes = (
"358 -110 LINE",
"50 -110 LINE",
"50 -200 LINE",
"329 -200 LINE SMOOTH",
"351 -200 OFFCURVE",
"364 -197 OFFCURVE",
"381 -177 CURVE SMOOTH",
"424 -126 LINE SMOOTH",
"442 -105 OFFCURVE",
"450 -90 OFFCURVE",
"450 -66 CURVE SMOOTH",
"450 81 LINE",
"358 81 LINE"
);
},
{
closed = 1;
nodes = (
"50 -200 LINE",
"150 -200 LINE",
"150 81 LINE",
"50 81 LINE"
);
},
{
closed = 1;
nodes = (
"350 700 LINE",
"250 700 LINE",
"250 281 LINE",
"350 281 LINE"
);
},
{
closed = 1;
nodes = (
"650 566 LINE SMOOTH",
"650 590 OFFCURVE",
"642 605 OFFCURVE",
"624 626 CURVE SMOOTH",
"581 677 LINE SMOOTH",
"564 697 OFFCURVE",
"551 700 OFFCURVE",
"529 700 CURVE SMOOTH",
"272 700 LINE",
"272 609 LINE",
"550 609 LINE",
"550 281 LINE",
"650 281 LINE"
);
}
);
width = 500;
},
{
layerId = "5FCFDAD1-644A-4B50-89F3-850EB8161FE9";
paths = (
{
closed = 1;
nodes = (
"358 -110 LINE",
"50 -110 LINE",
"50 -200 LINE",
"329 -200 LINE SMOOTH",
"351 -200 OFFCURVE",
"364 -197 OFFCURVE",
"381 -177 CURVE SMOOTH",
"424 -126 LINE SMOOTH",
"442 -105 OFFCURVE",
"450 -90 OFFCURVE",
"450 -66 CURVE SMOOTH",
"450 81 LINE",
"358 81 LINE"
);
},
{
closed = 1;
nodes = (
"50 -200 LINE",
"150 -200 LINE",
"150 81 LINE",
"50 81 LINE"
);
},
{
closed = 1;
nodes = (
"-50 700 LINE",
"-150 700 LINE",
"-150 281 LINE",
"-50 281 LINE"
);
},
{
closed = 1;
nodes = (
"250 566 LINE SMOOTH",
"250 590 OFFCURVE",
"242 605 OFFCURVE",
"224 626 CURVE SMOOTH",
"181 677 LINE SMOOTH",
"164 697 OFFCURVE",
"151 700 OFFCURVE",
"129 700 CURVE SMOOTH",
"-128 700 LINE",
"-128 609 LINE",
"166 609 LINE",
"166 281 LINE",
"250 281 LINE"
);
}
);
width = 500;
},
{
layerId = "A54B81DC-5EE9-468E-87D3-6F4C184F83A3";
paths = (
{
closed = 1;
nodes = (
"358 -110 LINE",
"50 -110 LINE",
"50 -200 LINE",
"329 -200 LINE SMOOTH",
"351 -200 OFFCURVE",
"364 -197 OFFCURVE",
"381 -177 CURVE SMOOTH",
"424 -126 LINE SMOOTH",
"442 -105 OFFCURVE",
"450 -90 OFFCURVE",
"450 -66 CURVE SMOOTH",
"450 81 LINE",
"358 81 LINE"
);
},
{
closed = 1;
nodes = (
"50 -200 LINE",
"150 -200 LINE",
"150 81 LINE",
"50 81 LINE"
);
},
{
closed = 1;
nodes = (
"250 700 LINE",
"150 700 LINE",
"150 281 LINE",
"250 281 LINE"
);
},
{
closed = 1;
nodes = (
"550 566 LINE SMOOTH",
"550 590 OFFCURVE",
"542 605 OFFCURVE",
"524 626 CURVE SMOOTH",
"481 677 LINE SMOOTH",
"464 697 OFFCURVE",
"451 700 OFFCURVE",
"429 700 CURVE SMOOTH",
"172 700 LINE",
"172 609 LINE",
"454 609 LINE",
"454 281 LINE",
"550 281 LINE"
);
}
);
width = 500;
}
);
unicode = 0044;
},
{
glyphname = E;
lastChange = "2021-12-17 19:22:00 +0000";
layers = (
{
layerId = "A4C12FFD-F5F6-42D6-8363-6D796F05C5E8";
paths = (
{
closed = 1;
nodes = (
"50 134 LINE SMOOTH",
"50 110 OFFCURVE",
"58 95 OFFCURVE",
"76 74 CURVE SMOOTH",
"119 23 LINE SMOOTH",
"136 3 OFFCURVE",
"149 0 OFFCURVE",
"171 0 CURVE SMOOTH",
"450 0 LINE",
"450 90 LINE",
"150 90 LINE",
"150 281 LINE",
"50 281 LINE"
);
},
{
closed = 1;
nodes = (
"60 371 LINE",
"60 281 LINE",
"370 281 LINE",
"370 371 LINE"
);
},
{
closed = 1;
nodes = (
"150 610 LINE",
"440 610 LINE",
"440 700 LINE",
"171 700 LINE SMOOTH",
"149 700 OFFCURVE",
"136 697 OFFCURVE",
"119 677 CURVE SMOOTH",
"76 626 LINE SMOOTH",
"58 605 OFFCURVE",
"50 590 OFFCURVE",
"50 566 CURVE SMOOTH",
"50 281 LINE",
"150 281 LINE"
);
}
);
width = 500;
},
{
layerId = "38E81DE9-8F9C-4A79-BC09-6CE2D0CDAB48";
paths = (
{
closed = 1;
nodes = (
"50 134 LINE SMOOTH",
"50 110 OFFCURVE",
"58 95 OFFCURVE",
"76 74 CURVE SMOOTH",
"119 23 LINE SMOOTH",
"136 3 OFFCURVE",
"149 0 OFFCURVE",
"171 0 CURVE SMOOTH",
"450 0 LINE",
"450 90 LINE",
"150 90 LINE",
"150 281 LINE",
"50 281 LINE"
);
},
{
closed = 1;
nodes = (
"160 371 LINE",
"160 281 LINE",
"470 281 LINE",
"470 371 LINE"
);
},
{
closed = 1;
nodes = (
"250 610 LINE",
"540 610 LINE",
"540 700 LINE",
"271 700 LINE SMOOTH",
"249 700 OFFCURVE",
"236 697 OFFCURVE",
"219 677 CURVE SMOOTH",
"176 626 LINE SMOOTH",
"158 605 OFFCURVE",
"150 590 OFFCURVE",
"150 566 CURVE SMOOTH",
"150 281 LINE",
"250 281 LINE"
);
}
);
width = 500;
},
{
layerId = "779467A8-E68B-4D04-BE8F-984748AF222C";
paths = (
{
closed = 1;
nodes = (
"50 134 LINE SMOOTH",
"50 110 OFFCURVE",
"58 95 OFFCURVE",
"76 74 CURVE SMOOTH",
"119 23 LINE SMOOTH",
"136 3 OFFCURVE",
"149 0 OFFCURVE",
"171 0 CURVE SMOOTH",
"450 0 LINE",
"450 90 LINE",
"150 90 LINE",
"150 281 LINE",
"50 281 LINE"
);
},
{
closed = 1;
nodes = (
"260 371 LINE",
"260 281 LINE",
"550 281 LINE",
"550 371 LINE"
);
},
{
closed = 1;
nodes = (
"350 610 LINE",
"640 610 LINE",
"640 700 LINE",
"371 700 LINE SMOOTH",
"349 700 OFFCURVE",
"336 697 OFFCURVE",
"319 677 CURVE SMOOTH",
"276 626 LINE SMOOTH",
"258 605 OFFCURVE",
"250 590 OFFCURVE",
"250 566 CURVE SMOOTH",
"250 281 LINE",
"350 281 LINE"
);
}
);
width = 500;
},
{
layerId = "4170F2C3-ADB0-4204-BA3B-87919679734A";
paths = (
{
closed = 1;
nodes = (
"50 134 LINE SMOOTH",
"50 110 OFFCURVE",
"58 95 OFFCURVE",
"76 74 CURVE SMOOTH",
"119 23 LINE SMOOTH",
"136 3 OFFCURVE",
"149 0 OFFCURVE",
"171 0 CURVE SMOOTH",
"450 0 LINE",
"450 90 LINE",
"150 90 LINE",
"150 281 LINE",
"50 281 LINE"
);
},
{
closed = 1;
nodes = (
"-140 371 LINE",
"-140 281 LINE",
"250 281 LINE",
"250 371 LINE"
);
},
{
closed = 1;
nodes = (
"-50 610 LINE",
"240 610 LINE",
"240 700 LINE",
"-29 700 LINE SMOOTH",
"-51 700 OFFCURVE",
"-64 697 OFFCURVE",
"-81 677 CURVE SMOOTH",
"-124 626 LINE SMOOTH",
"-142 605 OFFCURVE",
"-150 590 OFFCURVE",
"-150 566 CURVE SMOOTH",
"-150 281 LINE",
"-50 281 LINE"
);
}
);
width = 500;
},
{
layerId = "0C2EA0A7-CF3D-43DE-A1B1-20537ED6286F";
paths = (
{
closed = 1;
nodes = (
"50 -66 LINE SMOOTH",
"50 -90 OFFCURVE",
"58 -105 OFFCURVE",
"76 -126 CURVE SMOOTH",
"119 -177 LINE SMOOTH",
"136 -197 OFFCURVE",
"149 -200 OFFCURVE",
"171 -200 CURVE SMOOTH",
"450 -200 LINE",
"450 -110 LINE",
"150 -110 LINE",
"150 81 LINE",
"50 81 LINE"
);
},
{
closed = 1;
nodes = (
"60 371 LINE",
"60 281 LINE",
"370 281 LINE",
"370 371 LINE"
);
},
{
closed = 1;
nodes = (
"150 610 LINE",
"440 610 LINE",
"440 700 LINE",
"171 700 LINE SMOOTH",
"149 700 OFFCURVE",
"136 697 OFFCURVE",
"119 677 CURVE SMOOTH",
"76 626 LINE SMOOTH",
"58 605 OFFCURVE",
"50 590 OFFCURVE",
"50 566 CURVE SMOOTH",
"50 281 LINE",
"150 281 LINE"
);
}
);
width = 500;
},
{
layerId = "E46B3A3C-F4DE-4A6E-B6C3-4FEA9D5321E0";
paths = (
{
closed = 1;
nodes = (
"50 -66 LINE SMOOTH",
"50 -90 OFFCURVE",
"58 -105 OFFCURVE",
"76 -126 CURVE SMOOTH",
"119 -177 LINE SMOOTH",
"136 -197 OFFCURVE",
"149 -200 OFFCURVE",
"171 -200 CURVE SMOOTH",
"450 -200 LINE",
"450 -110 LINE",
"150 -110 LINE",
"150 81 LINE",
"50 81 LINE"
);
},
{
closed = 1;
nodes = (
"260 371 LINE",
"260 281 LINE",
"550 281 LINE",
"550 371 LINE"
);
},
{
closed = 1;
nodes = (
"350 610 LINE",
"640 610 LINE",
"640 700 LINE",
"371 700 LINE SMOOTH",
"349 700 OFFCURVE",
"336 697 OFFCURVE",
"319 677 CURVE SMOOTH",
"276 626 LINE SMOOTH",
"258 605 OFFCURVE",
"250 590 OFFCURVE",
"250 566 CURVE SMOOTH",
"250 281 LINE",
"350 281 LINE"
);
}
);
width = 500;
},
{
layerId = "5FCFDAD1-644A-4B50-89F3-850EB8161FE9";
paths = (
{
closed = 1;
nodes = (
"50 -66 LINE SMOOTH",
"50 -90 OFFCURVE",
"58 -105 OFFCURVE",
"76 -126 CURVE SMOOTH",
"119 -177 LINE SMOOTH",
"136 -197 OFFCURVE",
"149 -200 OFFCURVE",
"171 -200 CURVE SMOOTH",
"450 -200 LINE",
"450 -110 LINE",
"150 -110 LINE",
"150 81 LINE",
"50 81 LINE"
);
},
{
closed = 1;
nodes = (
"-140 371 LINE",
"-140 281 LINE",
"170 281 LINE",
"170 371 LINE"
);
},
{
closed = 1;
nodes = (
"-50 610 LINE",
"240 610 LINE",
"240 700 LINE",
"-29 700 LINE SMOOTH",
"-51 700 OFFCURVE",
"-64 697 OFFCURVE",
"-81 677 CURVE SMOOTH",
"-124 626 LINE SMOOTH",
"-142 605 OFFCURVE",
"-150 590 OFFCURVE",
"-150 566 CURVE SMOOTH",
"-150 281 LINE",
"-50 281 LINE"
);
}
);
width = 500;
},
{
layerId = "A54B81DC-5EE9-468E-87D3-6F4C184F83A3";
paths = (
{
closed = 1;
nodes = (
"50 -66 LINE SMOOTH",
"50 -90 OFFCURVE",
"58 -105 OFFCURVE",
"76 -126 CURVE SMOOTH",
"119 -177 LINE SMOOTH",
"136 -197 OFFCURVE",
"149 -200 OFFCURVE",
"171 -200 CURVE SMOOTH",
"450 -200 LINE",
"450 -110 LINE",
"150 -110 LINE",
"150 81 LINE",
"50 81 LINE"
);
},
{
closed = 1;
nodes = (
"160 371 LINE",
"160 281 LINE",
"470 281 LINE",
"470 371 LINE"
);
},
{
closed = 1;
nodes = (
"250 610 LINE",
"540 610 LINE",
"540 700 LINE",
"271 700 LINE SMOOTH",
"249 700 OFFCURVE",
"236 697 OFFCURVE",
"219 677 CURVE SMOOTH",
"176 626 LINE SMOOTH",
"158 605 OFFCURVE",
"150 590 OFFCURVE",
"150 566 CURVE SMOOTH",
"150 281 LINE",
"250 281 LINE"
);
}
);
width = 500;
}
);
unicode = 0045;
},
{
glyphname = F;
lastChange = "2021-12-17 19:50:22 +0000";
layers = (
{
layerId = "A4C12FFD-F5F6-42D6-8363-6D796F05C5E8";
paths = (
{
closed = 1;
nodes = (
"60 371 LINE",
"60 281 LINE",
"420 281 LINE",
"420 371 LINE"
);
},
{
closed = 1;
nodes = (
"50 0 LINE",
"150 0 LINE",
"150 281 LINE",
"50 281 LINE"
);
},
{
closed = 1;
nodes = (
"150 610 LINE",
"450 610 LINE",
"450 700 LINE",
"171 700 LINE SMOOTH",
"149 700 OFFCURVE",
"136 697 OFFCURVE",
"119 677 CURVE SMOOTH",
"76 626 LINE SMOOTH",
"58 605 OFFCURVE",
"50 590 OFFCURVE",
"50 566 CURVE SMOOTH",
"50 281 LINE",
"150 281 LINE"
);
}
);
width = 500;
},
{
layerId = "38E81DE9-8F9C-4A79-BC09-6CE2D0CDAB48";
paths = (
{
closed = 1;
nodes = (
"160 371 LINE",
"160 281 LINE",
"520 281 LINE",
"520 371 LINE"
);
},
{
closed = 1;
nodes = (
"50 0 LINE",
"150 0 LINE",
"150 281 LINE",
"50 281 LINE"
);
},
{
closed = 1;
nodes = (
"250 610 LINE",
"550 610 LINE",
"550 700 LINE",
"271 700 LINE SMOOTH",
"249 700 OFFCURVE",
"236 697 OFFCURVE",
"219 677 CURVE SMOOTH",
"176 626 LINE SMOOTH",
"158 605 OFFCURVE",
"150 590 OFFCURVE",
"150 566 CURVE SMOOTH",
"150 281 LINE",
"250 281 LINE"
);
}
);
width = 500;
},
{
layerId = "779467A8-E68B-4D04-BE8F-984748AF222C";
paths = (
{
closed = 1;
nodes = (
"260 371 LINE",
"260 281 LINE",
"550 281 LINE",
"550 371 LINE"
);
},
{
closed = 1;
nodes = (
"50 0 LINE",
"150 0 LINE",
"150 281 LINE",
"50 281 LINE"
);
},
{
closed = 1;
nodes = (
"350 610 LINE",
"650 610 LINE",
"650 700 LINE",
"371 700 LINE SMOOTH",
"349 700 OFFCURVE",
"336 697 OFFCURVE",
"319 677 CURVE SMOOTH",
"276 626 LINE SMOOTH",
"258 605 OFFCURVE",
"250 590 OFFCURVE",
"250 566 CURVE SMOOTH",
"250 281 LINE",
"350 281 LINE"
);
}
);
width = 500;
},
{
layerId = "4170F2C3-ADB0-4204-BA3B-87919679734A";
paths = (
{
closed = 1;
nodes = (
"-140 371 LINE",
"-140 281 LINE",
"150 281 LINE",
"150 371 LINE"
);
},
{
closed = 1;
nodes = (
"50 0 LINE",
"150 0 LINE",
"150 281 LINE",
"50 281 LINE"
);
},
{
closed = 1;
nodes = (
"-50 610 LINE",
"250 610 LINE",
"250 700 LINE",
"-29 700 LINE SMOOTH",
"-51 700 OFFCURVE",
"-64 697 OFFCURVE",
"-81 677 CURVE SMOOTH",
"-124 626 LINE SMOOTH",
"-142 605 OFFCURVE",
"-150 590 OFFCURVE",
"-150 566 CURVE SMOOTH",
"-150 281 LINE",
"-50 281 LINE"
);
}
);
width = 500;
},
{
layerId = "0C2EA0A7-CF3D-43DE-A1B1-20537ED6286F";
paths = (
{
closed = 1;
nodes = (
"60 571 LINE",
"60 481 LINE",
"420 481 LINE",
"420 571 LINE"
);
},
{
closed = 1;
nodes = (
"50 0 LINE",
"150 0 LINE",
"150 281 LINE",
"50 281 LINE"
);
},
{
closed = 1;
nodes = (
"150 810 LINE",
"450 810 LINE",
"450 900 LINE",
"171 900 LINE SMOOTH",
"149 900 OFFCURVE",
"136 897 OFFCURVE",
"119 877 CURVE SMOOTH",
"76 826 LINE SMOOTH",
"58 805 OFFCURVE",
"50 790 OFFCURVE",
"50 766 CURVE SMOOTH",
"50 481 LINE",
"150 481 LINE"
);
}
);
width = 500;
},
{
layerId = "E46B3A3C-F4DE-4A6E-B6C3-4FEA9D5321E0";
paths = (
{
closed = 1;
nodes = (
"260 571 LINE",
"260 481 LINE",
"550 481 LINE",
"550 571 LINE"
);
},
{
closed = 1;
nodes = (
"50 0 LINE",
"150 0 LINE",
"150 281 LINE",
"50 281 LINE"
);
},
{
closed = 1;
nodes = (
"350 810 LINE",
"650 810 LINE",
"650 900 LINE",
"371 900 LINE SMOOTH",
"349 900 OFFCURVE",
"336 897 OFFCURVE",
"319 877 CURVE SMOOTH",
"276 826 LINE SMOOTH",
"258 805 OFFCURVE",
"250 790 OFFCURVE",
"250 766 CURVE SMOOTH",
"250 481 LINE",
"350 481 LINE"
);
}
);
width = 500;
},
{
layerId = "5FCFDAD1-644A-4B50-89F3-850EB8161FE9";
paths = (
{
closed = 1;
nodes = (
"-140 571 LINE",
"-140 481 LINE",
"220 481 LINE",
"220 571 LINE"
);
},
{
closed = 1;
nodes = (
"50 0 LINE",
"150 0 LINE",
"150 281 LINE",
"50 281 LINE"
);
},
{
closed = 1;
nodes = (
"-50 810 LINE",
"250 810 LINE",
"250 900 LINE",
"-29 900 LINE SMOOTH",
"-51 900 OFFCURVE",
"-64 897 OFFCURVE",
"-81 877 CURVE SMOOTH",
"-124 826 LINE SMOOTH",
"-142 805 OFFCURVE",
"-150 790 OFFCURVE",
"-150 766 CURVE SMOOTH",
"-150 481 LINE",
"-50 481 LINE"
);
}
);
width = 500;
},
{
layerId = "A54B81DC-5EE9-468E-87D3-6F4C184F83A3";
paths = (
{
closed = 1;
nodes = (
"160 571 LINE",
"160 481 LINE",
"520 481 LINE",
"520 571 LINE"
);
},
{
closed = 1;
nodes = (
"50 0 LINE",
"150 0 LINE",
"150 281 LINE",
"50 281 LINE"
);
},
{
closed = 1;
nodes = (
"250 810 LINE",
"550 810 LINE",
"550 900 LINE",
"271 900 LINE SMOOTH",
"249 900 OFFCURVE",
"236 897 OFFCURVE",
"219 877 CURVE SMOOTH",
"176 826 LINE SMOOTH",
"158 805 OFFCURVE",
"150 790 OFFCURVE",
"150 766 CURVE SMOOTH",
"150 481 LINE",
"250 481 LINE"
);
}
);
width = 500;
}
);
unicode = 0046;
},
{
glyphname = G;
lastChange = "2021-12-17 19:08:13 +0000";
layers = (
{
layerId = "A4C12FFD-F5F6-42D6-8363-6D796F05C5E8";
paths = (
{
closed = 1;
nodes = (
"50 134 LINE SMOOTH",
"50 110 OFFCURVE",
"58 95 OFFCURVE",
"76 74 CURVE SMOOTH",
"119 23 LINE SMOOTH",
"136 3 OFFCURVE",
"149 0 OFFCURVE",
"171 0 CURVE SMOOTH",
"278 0 LINE",
"278 91 LINE",
"142 91 LINE",
"142 281 LINE",
"50 281 LINE"
);
},
{
closed = 1;
nodes = (
"360 91 LINE",
"242 91 LINE",
"242 0 LINE",
"329 0 LINE SMOOTH",
"351 0 OFFCURVE",
"370 7 OFFCURVE",
"386 28 CURVE SMOOTH",
"424 77 LINE SMOOTH",
"441 99 OFFCURVE",
"450 110 OFFCURVE",
"450 150 CURVE SMOOTH",
"450 281 LINE",
"360 281 LINE"
);
},
{
closed = 1;
nodes = (
"241 281 LINE",
"450 281 LINE",
"450 374 LINE",
"241 374 LINE"
);
},
{
closed = 1;
nodes = (
"142 610 LINE",
"420 610 LINE",
"420 700 LINE",
"171 700 LINE SMOOTH",
"149 700 OFFCURVE",
"136 697 OFFCURVE",
"119 677 CURVE SMOOTH",
"76 626 LINE SMOOTH",
"58 605 OFFCURVE",
"50 590 OFFCURVE",
"50 566 CURVE SMOOTH",
"50 281 LINE",
"142 281 LINE"
);
}
);
width = 500;
},
{
associatedMasterId = "A4C12FFD-F5F6-42D6-8363-6D796F05C5E8";
layerId = "DD374643-8B86-430C-8834-59AED6FD9338";
name = "Dec 10 21, 15:00";
paths = (
{
closed = 1;
nodes = (
"149 700 OFFCURVE",
"136 697 OFFCURVE",
"119 677 CURVE SMOOTH",
"76 626 LINE SMOOTH",
"58 605 OFFCURVE",
"50 590 OFFCURVE",
"50 566 CURVE SMOOTH",
"50 134 LINE SMOOTH",
"50 110 OFFCURVE",
"58 95 OFFCURVE",
"76 74 CURVE SMOOTH",
"119 23 LINE SMOOTH",
"136 3 OFFCURVE",
"149 0 OFFCURVE",
"171 0 CURVE SMOOTH",
"428 0 LINE",
"428 91 LINE",
"142 91 LINE",
"142 610 LINE",
"420 610 LINE",
"420 700 LINE",
"171 700 LINE SMOOTH"
);
},
{
closed = 1;
nodes = (
"450 270 OFFCURVE",
"441 281 OFFCURVE",
"424 303 CURVE SMOOTH",
"386 352 LINE SMOOTH",
"370 373 OFFCURVE",
"351 380 OFFCURVE",
"329 380 CURVE SMOOTH",
"242 380 LINE",
"242 285 LINE",
"360 285 LINE",
"360 0 LINE",
"450 0 LINE",
"450 230 LINE SMOOTH"
);
}
);
width = 500;
},
{
layerId = "38E81DE9-8F9C-4A79-BC09-6CE2D0CDAB48";
paths = (
{
closed = 1;
nodes = (
"50 134 LINE SMOOTH",
"50 110 OFFCURVE",
"58 95 OFFCURVE",
"76 74 CURVE SMOOTH",
"119 23 LINE SMOOTH",
"136 3 OFFCURVE",
"149 0 OFFCURVE",
"171 0 CURVE SMOOTH",
"278 0 LINE",
"278 91 LINE",
"142 91 LINE",
"142 281 LINE",
"50 281 LINE"
);
},
{
closed = 1;
nodes = (
"360 91 LINE",
"242 91 LINE",
"242 0 LINE",
"329 0 LINE SMOOTH",
"351 0 OFFCURVE",
"370 7 OFFCURVE",
"386 28 CURVE SMOOTH",
"424 77 LINE SMOOTH",
"441 99 OFFCURVE",
"450 110 OFFCURVE",
"450 150 CURVE SMOOTH",
"450 281 LINE",
"360 281 LINE"
);
},
{
closed = 1;
nodes = (
"360 281 LINE",
"550 281 LINE",
"550 374 LINE",
"360 374 LINE"
);
},
{
closed = 1;
nodes = (
"234 610 LINE",
"512 610 LINE",
"512 700 LINE",
"263 700 LINE SMOOTH",
"241 700 OFFCURVE",
"228 697 OFFCURVE",
"211 677 CURVE SMOOTH",
"168 626 LINE SMOOTH",
"150 605 OFFCURVE",
"142 590 OFFCURVE",
"142 566 CURVE SMOOTH",
"142 281 LINE",
"234 281 LINE"
);
}
);
width = 500;
},
{
associatedMasterId = "38E81DE9-8F9C-4A79-BC09-6CE2D0CDAB48";
layerId = "49A923D5-C395-4985-9847-77063FA55A47";
name = "Dec 10 21, 15:00";
paths = (
{
closed = 1;
nodes = (
"149 700 OFFCURVE",
"136 697 OFFCURVE",
"119 677 CURVE SMOOTH",
"76 626 LINE SMOOTH",
"58 605 OFFCURVE",
"50 590 OFFCURVE",
"50 566 CURVE SMOOTH",
"50 134 LINE SMOOTH",
"50 110 OFFCURVE",
"58 95 OFFCURVE",
"76 74 CURVE SMOOTH",
"119 23 LINE SMOOTH",
"136 3 OFFCURVE",
"149 0 OFFCURVE",
"171 0 CURVE SMOOTH",
"428 0 LINE",
"428 91 LINE",
"142 91 LINE",
"142 610 LINE",
"420 610 LINE",
"420 700 LINE",
"171 700 LINE SMOOTH"
);
},
{
closed = 1;
nodes = (
"450 270 OFFCURVE",
"441 281 OFFCURVE",
"424 303 CURVE SMOOTH",
"386 352 LINE SMOOTH",
"370 373 OFFCURVE",
"351 380 OFFCURVE",
"329 380 CURVE SMOOTH",
"242 380 LINE",
"242 285 LINE",
"360 285 LINE",
"360 0 LINE",
"450 0 LINE",
"450 230 LINE SMOOTH"
);
}
);
width = 500;
},
{
layerId = "779467A8-E68B-4D04-BE8F-984748AF222C";
paths = (
{
closed = 1;
nodes = (
"50 134 LINE SMOOTH",
"50 110 OFFCURVE",
"58 95 OFFCURVE",
"76 74 CURVE SMOOTH",
"119 23 LINE SMOOTH",
"136 3 OFFCURVE",
"149 0 OFFCURVE",
"171 0 CURVE SMOOTH",
"278 0 LINE",
"278 91 LINE",
"142 91 LINE",
"142 281 LINE",
"50 281 LINE"
);
},
{
closed = 1;
nodes = (
"360 91 LINE",
"242 91 LINE",
"242 0 LINE",
"329 0 LINE SMOOTH",
"351 0 OFFCURVE",
"370 7 OFFCURVE",
"386 28 CURVE SMOOTH",
"424 77 LINE SMOOTH",
"441 99 OFFCURVE",
"450 110 OFFCURVE",
"450 150 CURVE SMOOTH",
"450 281 LINE",
"360 281 LINE"
);
},
{
closed = 1;
nodes = (
"450 281 LINE",
"650 281 LINE",
"650 374 LINE",
"450 374 LINE"
);
},
{
closed = 1;
nodes = (
"334 610 LINE",
"612 610 LINE",
"612 700 LINE",
"363 700 LINE SMOOTH",
"341 700 OFFCURVE",
"328 697 OFFCURVE",
"311 677 CURVE SMOOTH",
"268 626 LINE SMOOTH",
"250 605 OFFCURVE",
"242 590 OFFCURVE",
"242 566 CURVE SMOOTH",
"242 281 LINE",
"334 281 LINE"
);
}
);
width = 500;
},
{
associatedMasterId = "779467A8-E68B-4D04-BE8F-984748AF222C";
layerId = "22DBB1A6-CDD1-4569-9D73-BF09EB78EF9B";
name = "Dec 10 21, 15:00";
paths = (
{
closed = 1;
nodes = (
"149 700 OFFCURVE",
"136 697 OFFCURVE",
"119 677 CURVE SMOOTH",
"76 626 LINE SMOOTH",
"58 605 OFFCURVE",
"50 590 OFFCURVE",
"50 566 CURVE SMOOTH",
"50 134 LINE SMOOTH",
"50 110 OFFCURVE",
"58 95 OFFCURVE",
"76 74 CURVE SMOOTH",
"119 23 LINE SMOOTH",
"136 3 OFFCURVE",
"149 0 OFFCURVE",
"171 0 CURVE SMOOTH",
"428 0 LINE",
"428 91 LINE",
"142 91 LINE",
"142 610 LINE",
"420 610 LINE",
"420 700 LINE",
"171 700 LINE SMOOTH"
);
},
{
closed = 1;
nodes = (
"450 270 OFFCURVE",
"441 281 OFFCURVE",
"424 303 CURVE SMOOTH",
"386 352 LINE SMOOTH",
"370 373 OFFCURVE",
"351 380 OFFCURVE",
"329 380 CURVE SMOOTH",
"242 380 LINE",
"242 285 LINE",
"360 285 LINE",
"360 0 LINE",
"450 0 LINE",
"450 230 LINE SMOOTH"
);
}
);
width = 500;
},
{
layerId = "4170F2C3-ADB0-4204-BA3B-87919679734A";
paths = (
{
closed = 1;
nodes = (
"50 134 LINE SMOOTH",
"50 110 OFFCURVE",
"58 95 OFFCURVE",
"76 74 CURVE SMOOTH",
"119 23 LINE SMOOTH",
"136 3 OFFCURVE",
"149 0 OFFCURVE",
"171 0 CURVE SMOOTH",
"278 0 LINE",
"278 91 LINE",
"142 91 LINE",
"142 281 LINE",
"50 281 LINE"
);
},
{
closed = 1;
nodes = (
"350 91 LINE",
"242 91 LINE",
"242 0 LINE",
"329 0 LINE SMOOTH",
"351 0 OFFCURVE",
"370 7 OFFCURVE",
"386 28 CURVE SMOOTH",
"424 77 LINE SMOOTH",
"441 99 OFFCURVE",
"450 110 OFFCURVE",
"450 150 CURVE SMOOTH",
"450 281 LINE",
"350 281 LINE"
);
},
{
closed = 1;
nodes = (
"50 281 LINE",
"250 281 LINE",
"250 374 LINE",
"50 374 LINE"
);
},
{
closed = 1;
nodes = (
"-50 610 LINE",
"220 610 LINE",
"220 700 LINE",
"-29 700 LINE SMOOTH",
"-51 700 OFFCURVE",
"-64 697 OFFCURVE",
"-81 677 CURVE SMOOTH",
"-124 626 LINE SMOOTH",
"-142 605 OFFCURVE",
"-150 590 OFFCURVE",
"-150 566 CURVE SMOOTH",
"-150 281 LINE",
"-50 281 LINE"
);
}
);
width = 500;
},
{
associatedMasterId = "4170F2C3-ADB0-4204-BA3B-87919679734A";
layerId = "56DA705C-0CF9-4B5C-8D57-0C7BEF4D9AE3";
name = "Dec 10 21, 15:00";
paths = (
{
closed = 1;
nodes = (
"149 700 OFFCURVE",
"136 697 OFFCURVE",
"119 677 CURVE SMOOTH",
"76 626 LINE SMOOTH",
"58 605 OFFCURVE",
"50 590 OFFCURVE",
"50 566 CURVE SMOOTH",
"50 134 LINE SMOOTH",
"50 110 OFFCURVE",
"58 95 OFFCURVE",
"76 74 CURVE SMOOTH",
"119 23 LINE SMOOTH",
"136 3 OFFCURVE",
"149 0 OFFCURVE",
"171 0 CURVE SMOOTH",
"428 0 LINE",
"428 91 LINE",
"142 91 LINE",
"142 610 LINE",
"420 610 LINE",
"420 700 LINE",
"171 700 LINE SMOOTH"
);
},
{
closed = 1;
nodes = (
"450 270 OFFCURVE",
"441 281 OFFCURVE",
"424 303 CURVE SMOOTH",
"386 352 LINE SMOOTH",
"370 373 OFFCURVE",
"351 380 OFFCURVE",
"329 380 CURVE SMOOTH",
"242 380 LINE",
"242 285 LINE",
"360 285 LINE",
"360 0 LINE",
"450 0 LINE",
"450 230 LINE SMOOTH"
);
}
);
width = 500;
},
{
layerId = "0C2EA0A7-CF3D-43DE-A1B1-20537ED6286F";
paths = (
{
closed = 1;
nodes = (
"50 -66 LINE SMOOTH",
"50 -90 OFFCURVE",
"58 -105 OFFCURVE",
"76 -126 CURVE SMOOTH",
"119 -177 LINE SMOOTH",
"136 -197 OFFCURVE",
"149 -200 OFFCURVE",
"171 -200 CURVE SMOOTH",
"278 -200 LINE",
"278 -109 LINE",
"142 -109 LINE",
"142 81 LINE",
"50 81 LINE"
);
},
{
closed = 1;
nodes = (
"360 -109 LINE",
"242 -109 LINE",
"242 -200 LINE",
"329 -200 LINE SMOOTH",
"351 -200 OFFCURVE",
"370 -193 OFFCURVE",
"386 -172 CURVE SMOOTH",
"424 -123 LINE SMOOTH",
"441 -101 OFFCURVE",
"450 -90 OFFCURVE",
"450 -50 CURVE SMOOTH",
"450 81 LINE",
"360 81 LINE"
);
},
{
closed = 1;
nodes = (
"241 281 LINE",
"450 281 LINE",
"450 374 LINE",
"241 374 LINE"
);
},
{
closed = 1;
nodes = (
"142 610 LINE",
"420 610 LINE",
"420 700 LINE",
"171 700 LINE SMOOTH",
"149 700 OFFCURVE",
"136 697 OFFCURVE",
"119 677 CURVE SMOOTH",
"76 626 LINE SMOOTH",
"58 605 OFFCURVE",
"50 590 OFFCURVE",
"50 566 CURVE SMOOTH",
"50 281 LINE",
"142 281 LINE"
);
}
);
width = 500;
},
{
associatedMasterId = "0C2EA0A7-CF3D-43DE-A1B1-20537ED6286F";
layerId = "FF50898E-E6E9-4DE0-BBB2-7DE32BBA8D02";
name = "Dec 10 21, 15:00";
paths = (
{
closed = 1;
nodes = (
"149 700 OFFCURVE",
"136 697 OFFCURVE",
"119 677 CURVE SMOOTH",
"76 626 LINE SMOOTH",
"58 605 OFFCURVE",
"50 590 OFFCURVE",
"50 566 CURVE SMOOTH",
"50 134 LINE SMOOTH",
"50 110 OFFCURVE",
"58 95 OFFCURVE",
"76 74 CURVE SMOOTH",
"119 23 LINE SMOOTH",
"136 3 OFFCURVE",
"149 0 OFFCURVE",
"171 0 CURVE SMOOTH",
"428 0 LINE",
"428 91 LINE",
"142 91 LINE",
"142 610 LINE",
"420 610 LINE",
"420 700 LINE",
"171 700 LINE SMOOTH"
);
},
{
closed = 1;
nodes = (
"450 270 OFFCURVE",
"441 281 OFFCURVE",
"424 303 CURVE SMOOTH",
"386 352 LINE SMOOTH",
"370 373 OFFCURVE",
"351 380 OFFCURVE",
"329 380 CURVE SMOOTH",
"242 380 LINE",
"242 285 LINE",
"360 285 LINE",
"360 0 LINE",
"450 0 LINE",
"450 230 LINE SMOOTH"
);
}
);
width = 500;
},
{
layerId = "E46B3A3C-F4DE-4A6E-B6C3-4FEA9D5321E0";
paths = (
{
closed = 1;
nodes = (
"50 -66 LINE SMOOTH",
"50 -90 OFFCURVE",
"58 -105 OFFCURVE",
"76 -126 CURVE SMOOTH",
"119 -177 LINE SMOOTH",
"136 -197 OFFCURVE",
"149 -200 OFFCURVE",
"171 -200 CURVE SMOOTH",
"278 -200 LINE",
"278 -109 LINE",
"142 -109 LINE",
"142 81 LINE",
"50 81 LINE"
);
},
{
closed = 1;
nodes = (
"360 -109 LINE",
"242 -109 LINE",
"242 -200 LINE",
"329 -200 LINE SMOOTH",
"351 -200 OFFCURVE",
"370 -193 OFFCURVE",
"386 -172 CURVE SMOOTH",
"424 -123 LINE SMOOTH",
"441 -101 OFFCURVE",
"450 -90 OFFCURVE",
"450 -50 CURVE SMOOTH",
"450 81 LINE",
"360 81 LINE"
);
},
{
closed = 1;
nodes = (
"450 281 LINE",
"650 281 LINE",
"650 374 LINE",
"450 374 LINE"
);
},
{
closed = 1;
nodes = (
"334 610 LINE",
"612 610 LINE",
"612 700 LINE",
"363 700 LINE SMOOTH",
"341 700 OFFCURVE",
"328 697 OFFCURVE",
"311 677 CURVE SMOOTH",
"268 626 LINE SMOOTH",
"250 605 OFFCURVE",
"242 590 OFFCURVE",
"242 566 CURVE SMOOTH",
"242 281 LINE",
"334 281 LINE"
);
}
);
width = 500;
},
{
associatedMasterId = "E46B3A3C-F4DE-4A6E-B6C3-4FEA9D5321E0";
layerId = "0395D2BF-3D22-4706-901B-FE50FE851190";
name = "Dec 10 21, 15:00";
paths = (
{
closed = 1;
nodes = (
"149 700 OFFCURVE",
"136 697 OFFCURVE",
"119 677 CURVE SMOOTH",
"76 626 LINE SMOOTH",
"58 605 OFFCURVE",
"50 590 OFFCURVE",
"50 566 CURVE SMOOTH",
"50 134 LINE SMOOTH",
"50 110 OFFCURVE",
"58 95 OFFCURVE",
"76 74 CURVE SMOOTH",
"119 23 LINE SMOOTH",
"136 3 OFFCURVE",
"149 0 OFFCURVE",
"171 0 CURVE SMOOTH",
"428 0 LINE",
"428 91 LINE",
"142 91 LINE",
"142 610 LINE",
"420 610 LINE",
"420 700 LINE",
"171 700 LINE SMOOTH"
);
},
{
closed = 1;
nodes = (
"450 270 OFFCURVE",
"441 281 OFFCURVE",
"424 303 CURVE SMOOTH",
"386 352 LINE SMOOTH",
"370 373 OFFCURVE",
"351 380 OFFCURVE",
"329 380 CURVE SMOOTH",
"242 380 LINE",
"242 285 LINE",
"360 285 LINE",
"360 0 LINE",
"450 0 LINE",
"450 230 LINE SMOOTH"
);
}
);
width = 500;
},
{
layerId = "5FCFDAD1-644A-4B50-89F3-850EB8161FE9";
paths = (
{
closed = 1;
nodes = (
"50 -66 LINE SMOOTH",
"50 -90 OFFCURVE",
"58 -105 OFFCURVE",
"76 -126 CURVE SMOOTH",
"119 -177 LINE SMOOTH",
"136 -197 OFFCURVE",
"149 -200 OFFCURVE",
"171 -200 CURVE SMOOTH",
"278 -200 LINE",
"278 -109 LINE",
"142 -109 LINE",
"142 81 LINE",
"50 81 LINE"
);
},
{
closed = 1;
nodes = (
"360 -109 LINE",
"242 -109 LINE",
"242 -200 LINE",
"329 -200 LINE SMOOTH",
"351 -200 OFFCURVE",
"370 -193 OFFCURVE",
"386 -172 CURVE SMOOTH",
"424 -123 LINE SMOOTH",
"441 -101 OFFCURVE",
"450 -90 OFFCURVE",
"450 -50 CURVE SMOOTH",
"450 81 LINE",
"360 81 LINE"
);
},
{
closed = 1;
nodes = (
"32 281 LINE",
"250 281 LINE",
"250 374 LINE",
"32 374 LINE"
);
},
{
closed = 1;
nodes = (
"-50 610 LINE",
"228 610 LINE",
"228 700 LINE",
"-21 700 LINE SMOOTH",
"-43 700 OFFCURVE",
"-56 697 OFFCURVE",
"-73 677 CURVE SMOOTH",
"-116 626 LINE SMOOTH",
"-134 605 OFFCURVE",
"-142 590 OFFCURVE",
"-142 566 CURVE SMOOTH",
"-142 281 LINE",
"-50 281 LINE"
);
}
);
width = 500;
},
{
layerId = "A54B81DC-5EE9-468E-87D3-6F4C184F83A3";
paths = (
{
closed = 1;
nodes = (
"50 -66 LINE SMOOTH",
"50 -90 OFFCURVE",
"58 -105 OFFCURVE",
"76 -126 CURVE SMOOTH",
"119 -177 LINE SMOOTH",
"136 -197 OFFCURVE",
"149 -200 OFFCURVE",
"171 -200 CURVE SMOOTH",
"278 -200 LINE",
"278 -109 LINE",
"142 -109 LINE",
"142 81 LINE",
"50 81 LINE"
);
},
{
closed = 1;
nodes = (
"360 -109 LINE",
"242 -109 LINE",
"242 -200 LINE",
"329 -200 LINE SMOOTH",
"351 -200 OFFCURVE",
"370 -193 OFFCURVE",
"386 -172 CURVE SMOOTH",
"424 -123 LINE SMOOTH",
"441 -101 OFFCURVE",
"450 -90 OFFCURVE",
"450 -50 CURVE SMOOTH",
"450 81 LINE",
"360 81 LINE"
);
},
{
closed = 1;
nodes = (
"346 281 LINE",
"550 281 LINE",
"550 374 LINE",
"346 374 LINE"
);
},
{
closed = 1;
nodes = (
"238 610 LINE",
"516 610 LINE",
"516 700 LINE",
"267 700 LINE SMOOTH",
"245 700 OFFCURVE",
"232 697 OFFCURVE",
"215 677 CURVE SMOOTH",
"172 626 LINE SMOOTH",
"154 605 OFFCURVE",
"146 590 OFFCURVE",
"146 566 CURVE SMOOTH",
"146 281 LINE",
"238 281 LINE"
);
}
);
width = 500;
}
);
unicode = 0047;
},
{
glyphname = H;
lastChange = "2021-12-17 19:08:13 +0000";
layers = (
{
layerId = "A4C12FFD-F5F6-42D6-8363-6D796F05C5E8";
paths = (
{
closed = 1;
nodes = (
"350 0 LINE",
"450 0 LINE",
"450 281 LINE",
"350 281 LINE"
);
},
{
closed = 1;
nodes = (
"106 281 LINE",
"394 281 LINE",
"394 373 LINE",
"106 373 LINE"
);
},
{
closed = 1;
nodes = (
"50 0 LINE",
"150 0 LINE",
"150 281 LINE",
"50 281 LINE"
);
},
{
closed = 1;
nodes = (
"150 700 LINE",
"50 700 LINE",
"50 281 LINE",
"150 281 LINE"
);
},
{
closed = 1;
nodes = (
"450 700 LINE",
"350 700 LINE",
"350 281 LINE",
"450 281 LINE"
);
}
);
width = 500;
},
{
layerId = "38E81DE9-8F9C-4A79-BC09-6CE2D0CDAB48";
paths = (
{
closed = 1;
nodes = (
"350 0 LINE",
"450 0 LINE",
"450 281 LINE",
"350 281 LINE"
);
},
{
closed = 1;
nodes = (
"206 281 LINE",
"494 281 LINE",
"494 373 LINE",
"206 373 LINE"
);
},
{
closed = 1;
nodes = (
"50 0 LINE",
"150 0 LINE",
"150 281 LINE",
"50 281 LINE"
);
},
{
closed = 1;
nodes = (
"250 700 LINE",
"150 700 LINE",
"150 281 LINE",
"250 281 LINE"
);
},
{
closed = 1;
nodes = (
"550 700 LINE",
"450 700 LINE",
"450 281 LINE",
"550 281 LINE"
);
}
);
width = 500;
},
{
layerId = "779467A8-E68B-4D04-BE8F-984748AF222C";
paths = (
{
closed = 1;
nodes = (
"350 0 LINE",
"450 0 LINE",
"450 281 LINE",
"350 281 LINE"
);
},
{
closed = 1;
nodes = (
"306 281 LINE",
"594 281 LINE",
"594 373 LINE",
"306 373 LINE"
);
},
{
closed = 1;
nodes = (
"50 0 LINE",
"150 0 LINE",
"150 281 LINE",
"50 281 LINE"
);
},
{
closed = 1;
nodes = (
"350 700 LINE",
"250 700 LINE",
"250 281 LINE",
"350 281 LINE"
);
},
{
closed = 1;
nodes = (
"650 700 LINE",
"550 700 LINE",
"550 281 LINE",
"650 281 LINE"
);
}
);
width = 500;
},
{
layerId = "4170F2C3-ADB0-4204-BA3B-87919679734A";
paths = (
{
closed = 1;
nodes = (
"350 0 LINE",
"450 0 LINE",
"450 281 LINE",
"350 281 LINE"
);
},
{
closed = 1;
nodes = (
"-94 281 LINE",
"194 281 LINE",
"194 373 LINE",
"-94 373 LINE"
);
},
{
closed = 1;
nodes = (
"50 0 LINE",
"150 0 LINE",
"150 281 LINE",
"50 281 LINE"
);
},
{
closed = 1;
nodes = (
"-50 700 LINE",
"-150 700 LINE",
"-150 281 LINE",
"-50 281 LINE"
);
},
{
closed = 1;
nodes = (
"250 700 LINE",
"150 700 LINE",
"150 281 LINE",
"250 281 LINE"
);
}
);
width = 500;
},
{
layerId = "0C2EA0A7-CF3D-43DE-A1B1-20537ED6286F";
paths = (
{
closed = 1;
nodes = (
"350 0 LINE",
"450 0 LINE",
"450 281 LINE",
"350 281 LINE"
);
},
{
closed = 1;
nodes = (
"106 481 LINE",
"394 481 LINE",
"394 573 LINE",
"106 573 LINE"
);
},
{
closed = 1;
nodes = (
"50 0 LINE",
"150 0 LINE",
"150 281 LINE",
"50 281 LINE"
);
},
{
closed = 1;
nodes = (
"150 900 LINE",
"50 900 LINE",
"50 481 LINE",
"150 481 LINE"
);
},
{
closed = 1;
nodes = (
"450 900 LINE",
"350 900 LINE",
"350 481 LINE",
"450 481 LINE"
);
}
);
width = 500;
},
{
layerId = "E46B3A3C-F4DE-4A6E-B6C3-4FEA9D5321E0";
paths = (
{
closed = 1;
nodes = (
"350 0 LINE",
"450 0 LINE",
"450 281 LINE",
"350 281 LINE"
);
},
{
closed = 1;
nodes = (
"306 481 LINE",
"594 481 LINE",
"594 573 LINE",
"306 573 LINE"
);
},
{
closed = 1;
nodes = (
"50 0 LINE",
"150 0 LINE",
"150 281 LINE",
"50 281 LINE"
);
},
{
closed = 1;
nodes = (
"350 900 LINE",
"250 900 LINE",
"250 481 LINE",
"350 481 LINE"
);
},
{
closed = 1;
nodes = (
"650 900 LINE",
"550 900 LINE",
"550 481 LINE",
"650 481 LINE"
);
}
);
width = 500;
},
{
layerId = "5FCFDAD1-644A-4B50-89F3-850EB8161FE9";
paths = (
{
closed = 1;
nodes = (
"350 0 LINE",
"450 0 LINE",
"450 281 LINE",
"350 281 LINE"
);
},
{
closed = 1;
nodes = (
"-94 481 LINE",
"194 481 LINE",
"194 573 LINE",
"-94 573 LINE"
);
},
{
closed = 1;
nodes = (
"50 0 LINE",
"150 0 LINE",
"150 281 LINE",
"50 281 LINE"
);
},
{
closed = 1;
nodes = (
"-50 900 LINE",
"-150 900 LINE",
"-150 481 LINE",
"-50 481 LINE"
);
},
{
closed = 1;
nodes = (
"250 900 LINE",
"150 900 LINE",
"150 481 LINE",
"250 481 LINE"
);
}
);
width = 500;
},
{
layerId = "A54B81DC-5EE9-468E-87D3-6F4C184F83A3";
paths = (
{
closed = 1;
nodes = (
"350 0 LINE",
"450 0 LINE",
"450 281 LINE",
"350 281 LINE"
);
},
{
closed = 1;
nodes = (
"206 481 LINE",
"494 481 LINE",
"494 573 LINE",
"206 573 LINE"
);
},
{
closed = 1;
nodes = (
"50 0 LINE",
"150 0 LINE",
"150 281 LINE",
"50 281 LINE"
);
},
{
closed = 1;
nodes = (
"250 900 LINE",
"150 900 LINE",
"150 481 LINE",
"250 481 LINE"
);
},
{
closed = 1;
nodes = (
"550 900 LINE",
"450 900 LINE",
"450 481 LINE",
"550 481 LINE"
);
}
);
width = 500;
}
);
unicode = 0048;
},
{
glyphname = I;
lastChange = "2021-12-17 19:08:13 +0000";
layers = (
{
layerId = "A4C12FFD-F5F6-42D6-8363-6D796F05C5E8";
paths = (
{
closed = 1;
nodes = (
"175 0 LINE",
"275 0 LINE",
"275 281 LINE",
"175 281 LINE"
);
},
{
closed = 1;
nodes = (
"50 610 LINE",
"400 610 LINE",
"400 700 LINE",
"50 700 LINE"
);
},
{
closed = 1;
nodes = (
"50 0 LINE",
"400 0 LINE",
"400 90 LINE",
"50 90 LINE"
);
},
{
closed = 1;
nodes = (
"275 700 LINE",
"175 700 LINE",
"175 281 LINE",
"275 281 LINE"
);
}
);
width = 450;
},
{
layerId = "38E81DE9-8F9C-4A79-BC09-6CE2D0CDAB48";
paths = (
{
closed = 1;
nodes = (
"175 0 LINE",
"275 0 LINE",
"275 281 LINE",
"175 281 LINE"
);
},
{
closed = 1;
nodes = (
"150 610 LINE",
"500 610 LINE",
"500 700 LINE",
"150 700 LINE"
);
},
{
closed = 1;
nodes = (
"50 0 LINE",
"400 0 LINE",
"400 90 LINE",
"50 90 LINE"
);
},
{
closed = 1;
nodes = (
"375 700 LINE",
"275 700 LINE",
"275 281 LINE",
"375 281 LINE"
);
}
);
width = 450;
},
{
layerId = "779467A8-E68B-4D04-BE8F-984748AF222C";
paths = (
{
closed = 1;
nodes = (
"175 0 LINE",
"275 0 LINE",
"275 281 LINE",
"175 281 LINE"
);
},
{
closed = 1;
nodes = (
"250 610 LINE",
"600 610 LINE",
"600 700 LINE",
"250 700 LINE"
);
},
{
closed = 1;
nodes = (
"50 0 LINE",
"400 0 LINE",
"400 90 LINE",
"50 90 LINE"
);
},
{
closed = 1;
nodes = (
"475 700 LINE",
"375 700 LINE",
"375 281 LINE",
"475 281 LINE"
);
}
);
width = 450;
},
{
layerId = "4170F2C3-ADB0-4204-BA3B-87919679734A";
paths = (
{
closed = 1;
nodes = (
"175 0 LINE",
"275 0 LINE",
"275 281 LINE",
"175 281 LINE"
);
},
{
closed = 1;
nodes = (
"-150 610 LINE",
"200 610 LINE",
"200 700 LINE",
"-150 700 LINE"
);
},
{
closed = 1;
nodes = (
"50 0 LINE",
"400 0 LINE",
"400 90 LINE",
"50 90 LINE"
);
},
{
closed = 1;
nodes = (
"75 700 LINE",
"-25 700 LINE",
"-25 281 LINE",
"75 281 LINE"
);
}
);
width = 450;
},
{
layerId = "0C2EA0A7-CF3D-43DE-A1B1-20537ED6286F";
paths = (
{
closed = 1;
nodes = (
"175 -200 LINE",
"275 -200 LINE",
"275 81 LINE",
"175 81 LINE"
);
},
{
closed = 1;
nodes = (
"50 610 LINE",
"400 610 LINE",
"400 700 LINE",
"50 700 LINE"
);
},
{
closed = 1;
nodes = (
"50 -200 LINE",
"400 -200 LINE",
"400 -110 LINE",
"50 -110 LINE"
);
},
{
closed = 1;
nodes = (
"275 700 LINE",
"175 700 LINE",
"175 281 LINE",
"275 281 LINE"
);
}
);
width = 450;
},
{
layerId = "E46B3A3C-F4DE-4A6E-B6C3-4FEA9D5321E0";
paths = (
{
closed = 1;
nodes = (
"175 -200 LINE",
"275 -200 LINE",
"275 81 LINE",
"175 81 LINE"
);
},
{
closed = 1;
nodes = (
"250 610 LINE",
"600 610 LINE",
"600 700 LINE",
"250 700 LINE"
);
},
{
closed = 1;
nodes = (
"50 -200 LINE",
"400 -200 LINE",
"400 -110 LINE",
"50 -110 LINE"
);
},
{
closed = 1;
nodes = (
"475 700 LINE",
"375 700 LINE",
"375 281 LINE",
"475 281 LINE"
);
}
);
width = 450;
},
{
layerId = "5FCFDAD1-644A-4B50-89F3-850EB8161FE9";
paths = (
{
closed = 1;
nodes = (
"175 -200 LINE",
"275 -200 LINE",
"275 81 LINE",
"175 81 LINE"
);
},
{
closed = 1;
nodes = (
"-150 610 LINE",
"200 610 LINE",
"200 700 LINE",
"-150 700 LINE"
);
},
{
closed = 1;
nodes = (
"50 -200 LINE",
"400 -200 LINE",
"400 -110 LINE",
"50 -110 LINE"
);
},
{
closed = 1;
nodes = (
"75 700 LINE",
"-25 700 LINE",
"-25 281 LINE",
"75 281 LINE"
);
}
);
width = 450;
},
{
layerId = "A54B81DC-5EE9-468E-87D3-6F4C184F83A3";
paths = (
{
closed = 1;
nodes = (
"175 -200 LINE",
"275 -200 LINE",
"275 81 LINE",
"175 81 LINE"
);
},
{
closed = 1;
nodes = (
"150 610 LINE",
"500 610 LINE",
"500 700 LINE",
"150 700 LINE"
);
},
{
closed = 1;
nodes = (
"50 -200 LINE",
"400 -200 LINE",
"400 -110 LINE",
"50 -110 LINE"
);
},
{
closed = 1;
nodes = (
"375 700 LINE",
"275 700 LINE",
"275 281 LINE",
"375 281 LINE"
);
}
);
width = 450;
}
);
unicode = 0049;
},
{
glyphname = J;
lastChange = "2021-12-17 19:08:13 +0000";
layers = (
{
layerId = "A4C12FFD-F5F6-42D6-8363-6D796F05C5E8";
paths = (
{
closed = 1;
nodes = (
"50 610 LINE",
"400 610 LINE",
"400 700 LINE",
"50 700 LINE"
);
},
{
closed = 1;
nodes = (
"300 90 LINE",
"50 90 LINE",
"50 0 LINE",
"279 0 LINE SMOOTH",
"301 0 OFFCURVE",
"313 4 OFFCURVE",
"330 24 CURVE SMOOTH",
"373 75 LINE SMOOTH",
"391 96 OFFCURVE",
"400 110 OFFCURVE",
"400 134 CURVE SMOOTH",
"400 281 LINE",
"300 281 LINE"
);
},
{
closed = 1;
nodes = (
"400 700 LINE",
"300 700 LINE",
"300 281 LINE",
"400 281 LINE"
);
}
);
width = 450;
},
{
layerId = "38E81DE9-8F9C-4A79-BC09-6CE2D0CDAB48";
paths = (
{
closed = 1;
nodes = (
"150 610 LINE",
"500 610 LINE",
"500 700 LINE",
"150 700 LINE"
);
},
{
closed = 1;
nodes = (
"300 90 LINE",
"50 90 LINE",
"50 0 LINE",
"279 0 LINE SMOOTH",
"301 0 OFFCURVE",
"313 4 OFFCURVE",
"330 24 CURVE SMOOTH",
"373 75 LINE SMOOTH",
"391 96 OFFCURVE",
"400 110 OFFCURVE",
"400 134 CURVE SMOOTH",
"400 281 LINE",
"300 281 LINE"
);
},
{
closed = 1;
nodes = (
"500 700 LINE",
"400 700 LINE",
"400 281 LINE",
"500 281 LINE"
);
}
);
width = 450;
},
{
layerId = "779467A8-E68B-4D04-BE8F-984748AF222C";
paths = (
{
closed = 1;
nodes = (
"250 610 LINE",
"600 610 LINE",
"600 700 LINE",
"250 700 LINE"
);
},
{
closed = 1;
nodes = (
"300 90 LINE",
"50 90 LINE",
"50 0 LINE",
"279 0 LINE SMOOTH",
"301 0 OFFCURVE",
"313 4 OFFCURVE",
"330 24 CURVE SMOOTH",
"373 75 LINE SMOOTH",
"391 96 OFFCURVE",
"400 110 OFFCURVE",
"400 134 CURVE SMOOTH",
"400 281 LINE",
"300 281 LINE"
);
},
{
closed = 1;
nodes = (
"600 700 LINE",
"500 700 LINE",
"500 281 LINE",
"600 281 LINE"
);
}
);
width = 450;
},
{
layerId = "4170F2C3-ADB0-4204-BA3B-87919679734A";
paths = (
{
closed = 1;
nodes = (
"-150 610 LINE",
"200 610 LINE",
"200 700 LINE",
"-150 700 LINE"
);
},
{
closed = 1;
nodes = (
"300 90 LINE",
"50 90 LINE",
"50 0 LINE",
"279 0 LINE SMOOTH",
"301 0 OFFCURVE",
"313 4 OFFCURVE",
"330 24 CURVE SMOOTH",
"373 75 LINE SMOOTH",
"391 96 OFFCURVE",
"400 110 OFFCURVE",
"400 134 CURVE SMOOTH",
"400 281 LINE",
"300 281 LINE"
);
},
{
closed = 1;
nodes = (
"200 700 LINE",
"100 700 LINE",
"100 281 LINE",
"200 281 LINE"
);
}
);
width = 450;
},
{
layerId = "0C2EA0A7-CF3D-43DE-A1B1-20537ED6286F";
paths = (
{
closed = 1;
nodes = (
"50 610 LINE",
"400 610 LINE",
"400 700 LINE",
"50 700 LINE"
);
},
{
closed = 1;
nodes = (
"300 -110 LINE",
"50 -110 LINE",
"50 -200 LINE",
"279 -200 LINE SMOOTH",
"301 -200 OFFCURVE",
"313 -196 OFFCURVE",
"330 -176 CURVE SMOOTH",
"373 -125 LINE SMOOTH",
"391 -104 OFFCURVE",
"400 -90 OFFCURVE",
"400 -66 CURVE SMOOTH",
"400 81 LINE",
"300 81 LINE"
);
},
{
closed = 1;
nodes = (
"400 700 LINE",
"300 700 LINE",
"300 281 LINE",
"400 281 LINE"
);
}
);
width = 450;
},
{
layerId = "E46B3A3C-F4DE-4A6E-B6C3-4FEA9D5321E0";
paths = (
{
closed = 1;
nodes = (
"250 610 LINE",
"600 610 LINE",
"600 700 LINE",
"250 700 LINE"
);
},
{
closed = 1;
nodes = (
"300 -110 LINE",
"50 -110 LINE",
"50 -200 LINE",
"279 -200 LINE SMOOTH",
"301 -200 OFFCURVE",
"313 -196 OFFCURVE",
"330 -176 CURVE SMOOTH",
"373 -125 LINE SMOOTH",
"391 -104 OFFCURVE",
"400 -90 OFFCURVE",
"400 -66 CURVE SMOOTH",
"400 81 LINE",
"300 81 LINE"
);
},
{
closed = 1;
nodes = (
"600 700 LINE",
"500 700 LINE",
"500 281 LINE",
"600 281 LINE"
);
}
);
width = 450;
},
{
layerId = "5FCFDAD1-644A-4B50-89F3-850EB8161FE9";
paths = (
{
closed = 1;
nodes = (
"-150 610 LINE",
"200 610 LINE",
"200 700 LINE",
"-150 700 LINE"
);
},
{
closed = 1;
nodes = (
"300 -110 LINE",
"50 -110 LINE",
"50 -200 LINE",
"279 -200 LINE SMOOTH",
"301 -200 OFFCURVE",
"313 -196 OFFCURVE",
"330 -176 CURVE SMOOTH",
"373 -125 LINE SMOOTH",
"391 -104 OFFCURVE",
"400 -90 OFFCURVE",
"400 -66 CURVE SMOOTH",
"400 81 LINE",
"300 81 LINE"
);
},
{
closed = 1;
nodes = (
"200 700 LINE",
"100 700 LINE",
"100 281 LINE",
"200 281 LINE"
);
}
);
width = 450;
},
{
layerId = "A54B81DC-5EE9-468E-87D3-6F4C184F83A3";
paths = (
{
closed = 1;
nodes = (
"150 610 LINE",
"500 610 LINE",
"500 700 LINE",
"150 700 LINE"
);
},
{
closed = 1;
nodes = (
"300 -110 LINE",
"50 -110 LINE",
"50 -200 LINE",
"279 -200 LINE SMOOTH",
"301 -200 OFFCURVE",
"313 -196 OFFCURVE",
"330 -176 CURVE SMOOTH",
"373 -125 LINE SMOOTH",
"391 -104 OFFCURVE",
"400 -90 OFFCURVE",
"400 -66 CURVE SMOOTH",
"400 81 LINE",
"300 81 LINE"
);
},
{
closed = 1;
nodes = (
"500 700 LINE",
"400 700 LINE",
"400 281 LINE",
"500 281 LINE"
);
}
);
width = 450;
}
);
unicode = 004A;
},
{
glyphname = K;
lastChange = "2021-12-17 19:08:13 +0000";
layers = (
{
layerId = "A4C12FFD-F5F6-42D6-8363-6D796F05C5E8";
paths = (
{
closed = 1;
nodes = (
"50 0 LINE",
"150 0 LINE",
"150 281 LINE",
"50 281 LINE"
);
},
{
closed = 1;
nodes = (
"350 511 LINE",
"142 511 LINE",
"142 422 LINE",
"323 422 LINE SMOOTH",
"344 422 OFFCURVE",
"366 427 OFFCURVE",
"385 450 CURVE SMOOTH",
"424 496 LINE SMOOTH",
"440 515 OFFCURVE",
"450 532 OFFCURVE",
"450 556 CURVE SMOOTH",
"450 700 LINE",
"350 700 LINE"
);
},
{
closed = 1;
nodes = (
"350 0 LINE",
"450 0 LINE",
"450 236 LINE SMOOTH",
"450 255 OFFCURVE",
"444 269 OFFCURVE",
"436 281 CURVE",
"350 281 LINE"
);
},
{
closed = 1;
nodes = (
"150 700 LINE",
"50 700 LINE",
"50 281 LINE",
"150 281 LINE"
);
},
{
closed = 1;
nodes = (
"433 285 OFFCURVE",
"431 288 OFFCURVE",
"428 291 CURVE SMOOTH",
"381 347 LINE SMOOTH",
"364 367 OFFCURVE",
"347 370 OFFCURVE",
"323 370 CURVE SMOOTH",
"142 370 LINE",
"142 281 LINE",
"350 281 LINE",
"436 281 LINE"
);
}
);
width = 500;
},
{
layerId = "38E81DE9-8F9C-4A79-BC09-6CE2D0CDAB48";
paths = (
{
closed = 1;
nodes = (
"50 0 LINE",
"150 0 LINE",
"150 281 LINE",
"50 281 LINE"
);
},
{
closed = 1;
nodes = (
"430 511 LINE",
"242 511 LINE",
"242 422 LINE",
"403 422 LINE SMOOTH",
"424 422 OFFCURVE",
"446 427 OFFCURVE",
"465 450 CURVE SMOOTH",
"504 496 LINE SMOOTH",
"520 515 OFFCURVE",
"530 532 OFFCURVE",
"530 556 CURVE SMOOTH",
"530 700 LINE",
"430 700 LINE"
);
},
{
closed = 1;
nodes = (
"350 0 LINE",
"450 0 LINE",
"450 236 LINE SMOOTH",
"450 255 OFFCURVE",
"444 269 OFFCURVE",
"436 281 CURVE",
"350 281 LINE"
);
},
{
closed = 1;
nodes = (
"250 700 LINE",
"150 700 LINE",
"150 281 LINE",
"250 281 LINE"
);
},
{
closed = 1;
nodes = (
"547 285 OFFCURVE",
"545 288 OFFCURVE",
"542 291 CURVE SMOOTH",
"495 347 LINE SMOOTH",
"478 367 OFFCURVE",
"461 370 OFFCURVE",
"437 370 CURVE SMOOTH",
"242 370 LINE",
"242 281 LINE",
"464 281 LINE",
"550 281 LINE"
);
}
);
width = 500;
},
{
associatedMasterId = "A4C12FFD-F5F6-42D6-8363-6D796F05C5E8";
layerId = "E73CBDCC-07CF-41D2-BE54-796B1018BEF5";
name = "Dec 11 21, 12:42";
paths = (
{
closed = 1;
nodes = (
"50 0 LINE",
"150 0 LINE",
"150 700 LINE",
"50 700 LINE"
);
},
{
closed = 1;
nodes = (
"330 465 LINE",
"142 465 LINE",
"142 376 LINE",
"303 376 LINE SMOOTH",
"324 376 OFFCURVE",
"346 381 OFFCURVE",
"365 404 CURVE SMOOTH",
"404 450 LINE SMOOTH",
"420 469 OFFCURVE",
"430 486 OFFCURVE",
"430 510 CURVE SMOOTH",
"430 700 LINE",
"330 700 LINE"
);
},
{
closed = 1;
nodes = (
"450 0 LINE",
"450 190 LINE SMOOTH",
"450 214 OFFCURVE",
"440 231 OFFCURVE",
"428 245 CURVE SMOOTH",
"381 301 LINE SMOOTH",
"364 321 OFFCURVE",
"347 324 OFFCURVE",
"323 324 CURVE SMOOTH",
"142 324 LINE",
"142 235 LINE",
"350 235 LINE",
"350 0 LINE"
);
}
);
width = 500;
},
{
layerId = "779467A8-E68B-4D04-BE8F-984748AF222C";
paths = (
{
closed = 1;
nodes = (
"50 0 LINE",
"150 0 LINE",
"150 281 LINE",
"50 281 LINE"
);
},
{
closed = 1;
nodes = (
"530 511 LINE",
"342 511 LINE",
"342 422 LINE",
"503 422 LINE SMOOTH",
"524 422 OFFCURVE",
"546 427 OFFCURVE",
"565 450 CURVE SMOOTH",
"604 496 LINE SMOOTH",
"620 515 OFFCURVE",
"630 532 OFFCURVE",
"630 556 CURVE SMOOTH",
"630 700 LINE",
"530 700 LINE"
);
},
{
closed = 1;
nodes = (
"350 0 LINE",
"450 0 LINE",
"450 236 LINE SMOOTH",
"450 255 OFFCURVE",
"444 269 OFFCURVE",
"436 281 CURVE",
"350 281 LINE"
);
},
{
closed = 1;
nodes = (
"350 700 LINE",
"250 700 LINE",
"250 281 LINE",
"350 281 LINE"
);
},
{
closed = 1;
nodes = (
"647 285 OFFCURVE",
"645 288 OFFCURVE",
"642 291 CURVE SMOOTH",
"595 347 LINE SMOOTH",
"578 367 OFFCURVE",
"561 370 OFFCURVE",
"537 370 CURVE SMOOTH",
"342 370 LINE",
"342 281 LINE",
"564 281 LINE",
"650 281 LINE"
);
}
);
width = 500;
},
{
layerId = "4170F2C3-ADB0-4204-BA3B-87919679734A";
paths = (
{
closed = 1;
nodes = (
"50 0 LINE",
"150 0 LINE",
"150 281 LINE",
"50 281 LINE"
);
},
{
closed = 1;
nodes = (
"130 511 LINE",
"-58 511 LINE",
"-58 422 LINE",
"103 422 LINE SMOOTH",
"124 422 OFFCURVE",
"146 427 OFFCURVE",
"165 450 CURVE SMOOTH",
"204 496 LINE SMOOTH",
"220 515 OFFCURVE",
"230 532 OFFCURVE",
"230 556 CURVE SMOOTH",
"230 700 LINE",
"130 700 LINE"
);
},
{
closed = 1;
nodes = (
"350 0 LINE",
"450 0 LINE",
"450 236 LINE SMOOTH",
"450 255 OFFCURVE",
"450 268 OFFCURVE",
"450 281 CURVE",
"350 281 LINE"
);
},
{
closed = 1;
nodes = (
"-50 700 LINE",
"-150 700 LINE",
"-150 281 LINE",
"-50 281 LINE"
);
},
{
closed = 1;
nodes = (
"247 285 OFFCURVE",
"245 288 OFFCURVE",
"242 291 CURVE SMOOTH",
"195 347 LINE SMOOTH",
"178 367 OFFCURVE",
"161 370 OFFCURVE",
"137 370 CURVE SMOOTH",
"-58 370 LINE",
"-58 281 LINE",
"164 281 LINE",
"250 281 LINE"
);
}
);
width = 500;
},
{
layerId = "0C2EA0A7-CF3D-43DE-A1B1-20537ED6286F";
paths = (
{
closed = 1;
nodes = (
"50 -200 LINE",
"150 -200 LINE",
"150 81 LINE",
"50 81 LINE"
);
},
{
closed = 1;
nodes = (
"350 511 LINE",
"142 511 LINE",
"142 422 LINE",
"323 422 LINE SMOOTH",
"344 422 OFFCURVE",
"366 427 OFFCURVE",
"385 450 CURVE SMOOTH",
"424 496 LINE SMOOTH",
"440 515 OFFCURVE",
"450 532 OFFCURVE",
"450 556 CURVE SMOOTH",
"450 700 LINE",
"350 700 LINE"
);
},
{
closed = 1;
nodes = (
"350 -200 LINE",
"450 -200 LINE",
"450 36 LINE SMOOTH",
"450 55 OFFCURVE",
"444 69 OFFCURVE",
"436 81 CURVE",
"350 81 LINE"
);
},
{
closed = 1;
nodes = (
"150 700 LINE",
"50 700 LINE",
"50 281 LINE",
"150 281 LINE"
);
},
{
closed = 1;
nodes = (
"433 285 OFFCURVE",
"431 288 OFFCURVE",
"428 291 CURVE SMOOTH",
"381 347 LINE SMOOTH",
"364 367 OFFCURVE",
"347 370 OFFCURVE",
"323 370 CURVE SMOOTH",
"142 370 LINE",
"142 281 LINE",
"350 281 LINE",
"436 281 LINE"
);
}
);
width = 500;
},
{
associatedMasterId = "0C2EA0A7-CF3D-43DE-A1B1-20537ED6286F";
layerId = "4C979E80-F63F-44A6-AC59-C89496CE8723";
name = "Dec 11 21, 12:42";
paths = (
{
closed = 1;
nodes = (
"50 0 LINE",
"150 0 LINE",
"150 700 LINE",
"50 700 LINE"
);
},
{
closed = 1;
nodes = (
"330 465 LINE",
"142 465 LINE",
"142 376 LINE",
"303 376 LINE SMOOTH",
"324 376 OFFCURVE",
"346 381 OFFCURVE",
"365 404 CURVE SMOOTH",
"404 450 LINE SMOOTH",
"420 469 OFFCURVE",
"430 486 OFFCURVE",
"430 510 CURVE SMOOTH",
"430 700 LINE",
"330 700 LINE"
);
},
{
closed = 1;
nodes = (
"450 0 LINE",
"450 190 LINE SMOOTH",
"450 214 OFFCURVE",
"440 231 OFFCURVE",
"428 245 CURVE SMOOTH",
"381 301 LINE SMOOTH",
"364 321 OFFCURVE",
"347 324 OFFCURVE",
"323 324 CURVE SMOOTH",
"142 324 LINE",
"142 235 LINE",
"350 235 LINE",
"350 0 LINE"
);
}
);
width = 500;
},
{
layerId = "E46B3A3C-F4DE-4A6E-B6C3-4FEA9D5321E0";
paths = (
{
closed = 1;
nodes = (
"50 -200 LINE",
"150 -200 LINE",
"150 81 LINE",
"50 81 LINE"
);
},
{
closed = 1;
nodes = (
"530 511 LINE",
"342 511 LINE",
"342 422 LINE",
"503 422 LINE SMOOTH",
"524 422 OFFCURVE",
"546 427 OFFCURVE",
"565 450 CURVE SMOOTH",
"604 496 LINE SMOOTH",
"620 515 OFFCURVE",
"630 532 OFFCURVE",
"630 556 CURVE SMOOTH",
"630 700 LINE",
"530 700 LINE"
);
},
{
closed = 1;
nodes = (
"350 -200 LINE",
"450 -200 LINE",
"450 36 LINE SMOOTH",
"450 55 OFFCURVE",
"444 69 OFFCURVE",
"436 81 CURVE",
"350 81 LINE"
);
},
{
closed = 1;
nodes = (
"350 700 LINE",
"250 700 LINE",
"250 281 LINE",
"350 281 LINE"
);
},
{
closed = 1;
nodes = (
"647 285 OFFCURVE",
"645 288 OFFCURVE",
"642 291 CURVE SMOOTH",
"595 347 LINE SMOOTH",
"578 367 OFFCURVE",
"561 370 OFFCURVE",
"537 370 CURVE SMOOTH",
"342 370 LINE",
"342 281 LINE",
"564 281 LINE",
"650 281 LINE"
);
}
);
width = 500;
},
{
layerId = "5FCFDAD1-644A-4B50-89F3-850EB8161FE9";
paths = (
{
closed = 1;
nodes = (
"50 -200 LINE",
"150 -200 LINE",
"150 81 LINE",
"50 81 LINE"
);
},
{
closed = 1;
nodes = (
"170 511 LINE",
"-58 511 LINE",
"-58 422 LINE",
"143 422 LINE SMOOTH",
"164 422 OFFCURVE",
"186 427 OFFCURVE",
"205 450 CURVE SMOOTH",
"244 496 LINE SMOOTH",
"260 515 OFFCURVE",
"270 532 OFFCURVE",
"270 556 CURVE SMOOTH",
"270 700 LINE",
"170 700 LINE"
);
},
{
closed = 1;
nodes = (
"350 -200 LINE",
"450 -200 LINE",
"450 36 LINE SMOOTH",
"450 55 OFFCURVE",
"444 69 OFFCURVE",
"436 81 CURVE",
"350 81 LINE"
);
},
{
closed = 1;
nodes = (
"-50 700 LINE",
"-150 700 LINE",
"-150 281 LINE",
"-50 281 LINE"
);
},
{
closed = 1;
nodes = (
"219 285 OFFCURVE",
"217 288 OFFCURVE",
"214 291 CURVE SMOOTH",
"167 347 LINE SMOOTH",
"150 367 OFFCURVE",
"133 370 OFFCURVE",
"109 370 CURVE SMOOTH",
"-58 370 LINE",
"-58 281 LINE",
"136 281 LINE",
"222 281 LINE"
);
}
);
width = 500;
},
{
layerId = "A54B81DC-5EE9-468E-87D3-6F4C184F83A3";
paths = (
{
closed = 1;
nodes = (
"50 -200 LINE",
"150 -200 LINE",
"150 81 LINE",
"50 81 LINE"
);
},
{
closed = 1;
nodes = (
"440 511 LINE",
"242 511 LINE",
"242 422 LINE",
"413 422 LINE SMOOTH",
"434 422 OFFCURVE",
"456 427 OFFCURVE",
"475 450 CURVE SMOOTH",
"514 496 LINE SMOOTH",
"530 515 OFFCURVE",
"540 532 OFFCURVE",
"540 556 CURVE SMOOTH",
"540 700 LINE",
"440 700 LINE"
);
},
{
closed = 1;
nodes = (
"350 -200 LINE",
"450 -200 LINE",
"450 36 LINE SMOOTH",
"450 55 OFFCURVE",
"444 69 OFFCURVE",
"436 81 CURVE",
"350 81 LINE"
);
},
{
closed = 1;
nodes = (
"250 700 LINE",
"150 700 LINE",
"150 281 LINE",
"250 281 LINE"
);
},
{
closed = 1;
nodes = (
"540 285 OFFCURVE",
"538 288 OFFCURVE",
"535 291 CURVE SMOOTH",
"488 347 LINE SMOOTH",
"471 367 OFFCURVE",
"454 370 OFFCURVE",
"430 370 CURVE SMOOTH",
"242 370 LINE",
"242 281 LINE",
"457 281 LINE",
"543 281 LINE"
);
}
);
width = 500;
}
);
unicode = 004B;
},
{
glyphname = L;
lastChange = "2021-12-17 19:08:13 +0000";
layers = (
{
layerId = "A4C12FFD-F5F6-42D6-8363-6D796F05C5E8";
paths = (
{
closed = 1;
nodes = (
"50 134 LINE SMOOTH",
"50 110 OFFCURVE",
"59 96 OFFCURVE",
"77 75 CURVE SMOOTH",
"120 24 LINE SMOOTH",
"137 4 OFFCURVE",
"149 0 OFFCURVE",
"171 0 CURVE SMOOTH",
"400 0 LINE",
"400 90 LINE",
"150 90 LINE",
"150 281 LINE",
"50 281 LINE"
);
},
{
closed = 1;
nodes = (
"150 700 LINE",
"50 700 LINE",
"50 281 LINE",
"150 281 LINE"
);
}
);
width = 450;
},
{
layerId = "38E81DE9-8F9C-4A79-BC09-6CE2D0CDAB48";
paths = (
{
closed = 1;
nodes = (
"50 134 LINE SMOOTH",
"50 110 OFFCURVE",
"59 96 OFFCURVE",
"77 75 CURVE SMOOTH",
"120 24 LINE SMOOTH",
"137 4 OFFCURVE",
"149 0 OFFCURVE",
"171 0 CURVE SMOOTH",
"400 0 LINE",
"400 90 LINE",
"150 90 LINE",
"150 281 LINE",
"50 281 LINE"
);
},
{
closed = 1;
nodes = (
"250 700 LINE",
"150 700 LINE",
"150 281 LINE",
"250 281 LINE"
);
}
);
width = 450;
},
{
layerId = "779467A8-E68B-4D04-BE8F-984748AF222C";
paths = (
{
closed = 1;
nodes = (
"50 134 LINE SMOOTH",
"50 110 OFFCURVE",
"59 96 OFFCURVE",
"77 75 CURVE SMOOTH",
"120 24 LINE SMOOTH",
"137 4 OFFCURVE",
"149 0 OFFCURVE",
"171 0 CURVE SMOOTH",
"400 0 LINE",
"400 90 LINE",
"150 90 LINE",
"150 281 LINE",
"50 281 LINE"
);
},
{
closed = 1;
nodes = (
"350 700 LINE",
"250 700 LINE",
"250 281 LINE",
"350 281 LINE"
);
}
);
width = 450;
},
{
layerId = "4170F2C3-ADB0-4204-BA3B-87919679734A";
paths = (
{
closed = 1;
nodes = (
"50 134 LINE SMOOTH",
"50 110 OFFCURVE",
"59 96 OFFCURVE",
"77 75 CURVE SMOOTH",
"120 24 LINE SMOOTH",
"137 4 OFFCURVE",
"149 0 OFFCURVE",
"171 0 CURVE SMOOTH",
"400 0 LINE",
"400 90 LINE",
"150 90 LINE",
"150 281 LINE",
"50 281 LINE"
);
},
{
closed = 1;
nodes = (
"-50 700 LINE",
"-150 700 LINE",
"-150 281 LINE",
"-50 281 LINE"
);
}
);
width = 450;
},
{
layerId = "0C2EA0A7-CF3D-43DE-A1B1-20537ED6286F";
paths = (
{
closed = 1;
nodes = (
"50 134 LINE SMOOTH",
"50 110 OFFCURVE",
"59 96 OFFCURVE",
"77 75 CURVE SMOOTH",
"120 24 LINE SMOOTH",
"137 4 OFFCURVE",
"149 0 OFFCURVE",
"171 0 CURVE SMOOTH",
"400 0 LINE",
"400 90 LINE",
"150 90 LINE",
"150 281 LINE",
"50 281 LINE"
);
},
{
closed = 1;
nodes = (
"150 900 LINE",
"50 900 LINE",
"50 481 LINE",
"150 481 LINE"
);
}
);
width = 450;
},
{
layerId = "E46B3A3C-F4DE-4A6E-B6C3-4FEA9D5321E0";
paths = (
{
closed = 1;
nodes = (
"50 134 LINE SMOOTH",
"50 110 OFFCURVE",
"59 96 OFFCURVE",
"77 75 CURVE SMOOTH",
"120 24 LINE SMOOTH",
"137 4 OFFCURVE",
"149 0 OFFCURVE",
"171 0 CURVE SMOOTH",
"400 0 LINE",
"400 90 LINE",
"150 90 LINE",
"150 281 LINE",
"50 281 LINE"
);
},
{
closed = 1;
nodes = (
"350 900 LINE",
"250 900 LINE",
"250 481 LINE",
"350 481 LINE"
);
}
);
width = 450;
},
{
layerId = "5FCFDAD1-644A-4B50-89F3-850EB8161FE9";
paths = (
{
closed = 1;
nodes = (
"50 134 LINE SMOOTH",
"50 110 OFFCURVE",
"59 96 OFFCURVE",
"77 75 CURVE SMOOTH",
"120 24 LINE SMOOTH",
"137 4 OFFCURVE",
"149 0 OFFCURVE",
"171 0 CURVE SMOOTH",
"400 0 LINE",
"400 90 LINE",
"150 90 LINE",
"150 281 LINE",
"50 281 LINE"
);
},
{
closed = 1;
nodes = (
"-50 900 LINE",
"-150 900 LINE",
"-150 481 LINE",
"-50 481 LINE"
);
}
);
width = 450;
},
{
layerId = "A54B81DC-5EE9-468E-87D3-6F4C184F83A3";
paths = (
{
closed = 1;
nodes = (
"50 134 LINE SMOOTH",
"50 110 OFFCURVE",
"59 96 OFFCURVE",
"77 75 CURVE SMOOTH",
"120 24 LINE SMOOTH",
"137 4 OFFCURVE",
"149 0 OFFCURVE",
"171 0 CURVE SMOOTH",
"400 0 LINE",
"400 90 LINE",
"150 90 LINE",
"150 281 LINE",
"50 281 LINE"
);
},
{
closed = 1;
nodes = (
"250 900 LINE",
"150 900 LINE",
"150 481 LINE",
"250 481 LINE"
);
}
);
width = 450;
}
);
unicode = 004C;
},
{
glyphname = M;
lastChange = "2021-12-17 19:08:13 +0000";
layers = (
{
layerId = "A4C12FFD-F5F6-42D6-8363-6D796F05C5E8";
paths = (
{
closed = 1;
nodes = (
"244 0 LINE",
"334 0 LINE",
"334 281 LINE",
"244 281 LINE"
);
},
{
closed = 1;
nodes = (
"50 0 LINE",
"150 0 LINE",
"150 281 LINE",
"50 281 LINE"
);
},
{
closed = 1;
nodes = (
"430 0 LINE",
"530 0 LINE",
"530 281 LINE",
"430 281 LINE"
);
},
{
closed = 1;
nodes = (
"334 665 LINE",
"245 665 LINE",
"244 281 LINE",
"334 281 LINE"
);
},
{
closed = 1;
nodes = (
"530 546 LINE SMOOTH",
"530 580 OFFCURVE",
"521 594 OFFCURVE",
"508 609 CURVE SMOOTH",
"450 676 LINE SMOOTH",
"433 696 OFFCURVE",
"421 700 OFFCURVE",
"389 700 CURVE SMOOTH",
"191 700 LINE SMOOTH",
"159 700 OFFCURVE",
"147 696 OFFCURVE",
"130 676 CURVE SMOOTH",
"72 609 LINE SMOOTH",
"59 594 OFFCURVE",
"50 580 OFFCURVE",
"50 546 CURVE SMOOTH",
"50 281 LINE",
"150 281 LINE",
"150 620 LINE",
"280 620 LINE SMOOTH",
"284 620 OFFCURVE",
"287 620 OFFCURVE",
"290 620 CURVE SMOOTH",
"300 620 LINE",
"430 620 LINE",
"430 281 LINE",
"530 281 LINE"
);
}
);
width = 580;
},
{
layerId = "38E81DE9-8F9C-4A79-BC09-6CE2D0CDAB48";
paths = (
{
closed = 1;
nodes = (
"244 0 LINE",
"334 0 LINE",
"334 281 LINE",
"244 281 LINE"
);
},
{
closed = 1;
nodes = (
"50 0 LINE",
"150 0 LINE",
"150 281 LINE",
"50 281 LINE"
);
},
{
closed = 1;
nodes = (
"430 0 LINE",
"530 0 LINE",
"530 281 LINE",
"430 281 LINE"
);
},
{
closed = 1;
nodes = (
"430 665 LINE",
"335 665 LINE",
"334 281 LINE",
"430 281 LINE"
);
},
{
closed = 1;
nodes = (
"630 546 LINE SMOOTH",
"630 580 OFFCURVE",
"621 594 OFFCURVE",
"608 609 CURVE SMOOTH",
"550 676 LINE SMOOTH",
"533 696 OFFCURVE",
"521 700 OFFCURVE",
"489 700 CURVE SMOOTH",
"291 700 LINE SMOOTH",
"259 700 OFFCURVE",
"247 696 OFFCURVE",
"230 676 CURVE SMOOTH",
"172 609 LINE SMOOTH",
"159 594 OFFCURVE",
"150 580 OFFCURVE",
"150 546 CURVE SMOOTH",
"150 281 LINE",
"244 281 LINE",
"244 620 LINE",
"380 620 LINE SMOOTH",
"384 620 OFFCURVE",
"387 620 OFFCURVE",
"390 620 CURVE SMOOTH",
"400 620 LINE",
"530 620 LINE",
"530 281 LINE",
"630 281 LINE"
);
}
);
width = 580;
},
{
layerId = "779467A8-E68B-4D04-BE8F-984748AF222C";
paths = (
{
closed = 1;
nodes = (
"244 0 LINE",
"334 0 LINE",
"334 281 LINE",
"244 281 LINE"
);
},
{
closed = 1;
nodes = (
"50 0 LINE",
"150 0 LINE",
"150 281 LINE",
"50 281 LINE"
);
},
{
closed = 1;
nodes = (
"430 0 LINE",
"530 0 LINE",
"530 281 LINE",
"430 281 LINE"
);
},
{
closed = 1;
nodes = (
"530 665 LINE",
"431 665 LINE",
"430 281 LINE",
"530 281 LINE"
);
},
{
closed = 1;
nodes = (
"730 546 LINE SMOOTH",
"730 580 OFFCURVE",
"721 594 OFFCURVE",
"708 609 CURVE SMOOTH",
"650 676 LINE SMOOTH",
"633 696 OFFCURVE",
"621 700 OFFCURVE",
"589 700 CURVE SMOOTH",
"385 700 LINE SMOOTH",
"353 700 OFFCURVE",
"341 696 OFFCURVE",
"324 676 CURVE SMOOTH",
"266 609 LINE SMOOTH",
"253 594 OFFCURVE",
"244 580 OFFCURVE",
"244 546 CURVE SMOOTH",
"244 281 LINE",
"334 281 LINE",
"334 620 LINE",
"480 620 LINE SMOOTH",
"484 620 OFFCURVE",
"487 620 OFFCURVE",
"490 620 CURVE SMOOTH",
"500 620 LINE",
"630 620 LINE",
"630 281 LINE",
"730 281 LINE"
);
}
);
width = 580;
},
{
layerId = "4170F2C3-ADB0-4204-BA3B-87919679734A";
paths = (
{
closed = 1;
nodes = (
"244 0 LINE",
"334 0 LINE",
"334 281 LINE",
"244 281 LINE"
);
},
{
closed = 1;
nodes = (
"50 0 LINE",
"150 0 LINE",
"150 281 LINE",
"50 281 LINE"
);
},
{
closed = 1;
nodes = (
"430 0 LINE",
"530 0 LINE",
"530 281 LINE",
"430 281 LINE"
);
},
{
closed = 1;
nodes = (
"150 665 LINE",
"51 665 LINE",
"50 281 LINE",
"150 281 LINE"
);
},
{
closed = 1;
nodes = (
"334 546 LINE SMOOTH",
"334 580 OFFCURVE",
"327 594 OFFCURVE",
"314 609 CURVE SMOOTH",
"256 676 LINE SMOOTH",
"239 696 OFFCURVE",
"227 700 OFFCURVE",
"195 700 CURVE SMOOTH",
"-9 700 LINE SMOOTH",
"-41 700 OFFCURVE",
"-53 696 OFFCURVE",
"-70 676 CURVE SMOOTH",
"-128 609 LINE SMOOTH",
"-141 594 OFFCURVE",
"-150 580 OFFCURVE",
"-150 546 CURVE SMOOTH",
"-150 281 LINE",
"-50 281 LINE",
"-50 620 LINE",
"86 620 LINE SMOOTH",
"90 620 OFFCURVE",
"93 620 OFFCURVE",
"96 620 CURVE SMOOTH",
"106 620 LINE",
"244 620 LINE",
"244 281 LINE",
"334 281 LINE"
);
}
);
width = 580;
},
{
layerId = "0C2EA0A7-CF3D-43DE-A1B1-20537ED6286F";
paths = (
{
closed = 1;
nodes = (
"244 -200 LINE",
"334 -200 LINE",
"334 81 LINE",
"244 81 LINE"
);
},
{
closed = 1;
nodes = (
"50 -200 LINE",
"150 -200 LINE",
"150 81 LINE",
"50 81 LINE"
);
},
{
closed = 1;
nodes = (
"430 -200 LINE",
"530 -200 LINE",
"530 81 LINE",
"430 81 LINE"
);
},
{
closed = 1;
nodes = (
"334 665 LINE",
"245 665 LINE",
"244 281 LINE",
"334 281 LINE"
);
},
{
closed = 1;
nodes = (
"530 546 LINE SMOOTH",
"530 580 OFFCURVE",
"521 594 OFFCURVE",
"508 609 CURVE SMOOTH",
"450 676 LINE SMOOTH",
"433 696 OFFCURVE",
"421 700 OFFCURVE",
"389 700 CURVE SMOOTH",
"191 700 LINE SMOOTH",
"159 700 OFFCURVE",
"147 696 OFFCURVE",
"130 676 CURVE SMOOTH",
"72 609 LINE SMOOTH",
"59 594 OFFCURVE",
"50 580 OFFCURVE",
"50 546 CURVE SMOOTH",
"50 281 LINE",
"150 281 LINE",
"150 620 LINE",
"280 620 LINE SMOOTH",
"284 620 OFFCURVE",
"287 620 OFFCURVE",
"290 620 CURVE SMOOTH",
"300 620 LINE",
"430 620 LINE",
"430 281 LINE",
"530 281 LINE"
);
}
);
width = 580;
},
{
layerId = "E46B3A3C-F4DE-4A6E-B6C3-4FEA9D5321E0";
paths = (
{
closed = 1;
nodes = (
"244 -200 LINE",
"334 -200 LINE",
"334 81 LINE",
"244 81 LINE"
);
},
{
closed = 1;
nodes = (
"50 -200 LINE",
"150 -200 LINE",
"150 81 LINE",
"50 81 LINE"
);
},
{
closed = 1;
nodes = (
"430 -200 LINE",
"530 -200 LINE",
"530 81 LINE",
"430 81 LINE"
);
},
{
closed = 1;
nodes = (
"530 665 LINE",
"431 665 LINE",
"430 281 LINE",
"530 281 LINE"
);
},
{
closed = 1;
nodes = (
"730 546 LINE SMOOTH",
"730 580 OFFCURVE",
"721 594 OFFCURVE",
"708 609 CURVE SMOOTH",
"650 676 LINE SMOOTH",
"633 696 OFFCURVE",
"621 700 OFFCURVE",
"589 700 CURVE SMOOTH",
"385 700 LINE SMOOTH",
"353 700 OFFCURVE",
"341 696 OFFCURVE",
"324 676 CURVE SMOOTH",
"266 609 LINE SMOOTH",
"253 594 OFFCURVE",
"244 580 OFFCURVE",
"244 546 CURVE SMOOTH",
"244 281 LINE",
"334 281 LINE",
"334 620 LINE",
"480 620 LINE SMOOTH",
"484 620 OFFCURVE",
"487 620 OFFCURVE",
"490 620 CURVE SMOOTH",
"500 620 LINE",
"630 620 LINE",
"630 281 LINE",
"730 281 LINE"
);
}
);
width = 580;
},
{
layerId = "5FCFDAD1-644A-4B50-89F3-850EB8161FE9";
paths = (
{
closed = 1;
nodes = (
"244 -200 LINE",
"334 -200 LINE",
"334 81 LINE",
"244 81 LINE"
);
},
{
closed = 1;
nodes = (
"50 -200 LINE",
"150 -200 LINE",
"150 81 LINE",
"50 81 LINE"
);
},
{
closed = 1;
nodes = (
"430 -200 LINE",
"530 -200 LINE",
"530 81 LINE",
"430 81 LINE"
);
},
{
closed = 1;
nodes = (
"138 665 LINE",
"59 665 LINE",
"58 281 LINE",
"138 281 LINE"
);
},
{
closed = 1;
nodes = (
"330 546 LINE SMOOTH",
"330 580 OFFCURVE",
"321 594 OFFCURVE",
"308 609 CURVE SMOOTH",
"250 676 LINE SMOOTH",
"233 696 OFFCURVE",
"221 700 OFFCURVE",
"189 700 CURVE SMOOTH",
"-3 700 LINE SMOOTH",
"-35 700 OFFCURVE",
"-47 696 OFFCURVE",
"-64 676 CURVE SMOOTH",
"-122 609 LINE SMOOTH",
"-135 594 OFFCURVE",
"-144 580 OFFCURVE",
"-144 546 CURVE SMOOTH",
"-144 281 LINE",
"-34 281 LINE",
"-34 620 LINE",
"80 620 LINE SMOOTH",
"84 620 OFFCURVE",
"87 620 OFFCURVE",
"90 620 CURVE SMOOTH",
"100 620 LINE",
"230 620 LINE",
"230 281 LINE",
"330 281 LINE"
);
}
);
width = 580;
},
{
layerId = "A54B81DC-5EE9-468E-87D3-6F4C184F83A3";
paths = (
{
closed = 1;
nodes = (
"244 -200 LINE",
"334 -200 LINE",
"334 81 LINE",
"244 81 LINE"
);
},
{
closed = 1;
nodes = (
"50 -200 LINE",
"150 -200 LINE",
"150 81 LINE",
"50 81 LINE"
);
},
{
closed = 1;
nodes = (
"430 -200 LINE",
"530 -200 LINE",
"530 81 LINE",
"430 81 LINE"
);
},
{
closed = 1;
nodes = (
"432 665 LINE",
"338 665 LINE",
"337 281 LINE",
"432 281 LINE"
);
},
{
closed = 1;
nodes = (
"630 546 LINE SMOOTH",
"630 580 OFFCURVE",
"621 594 OFFCURVE",
"608 609 CURVE SMOOTH",
"550 676 LINE SMOOTH",
"533 696 OFFCURVE",
"521 700 OFFCURVE",
"489 700 CURVE SMOOTH",
"288 700 LINE SMOOTH",
"256 700 OFFCURVE",
"244 696 OFFCURVE",
"227 676 CURVE SMOOTH",
"169 609 LINE SMOOTH",
"156 594 OFFCURVE",
"147 580 OFFCURVE",
"147 546 CURVE SMOOTH",
"147 281 LINE",
"242 281 LINE",
"242 620 LINE",
"380 620 LINE SMOOTH",
"384 620 OFFCURVE",
"387 620 OFFCURVE",
"390 620 CURVE SMOOTH",
"400 620 LINE",
"530 620 LINE",
"530 281 LINE",
"630 281 LINE"
);
}
);
width = 580;
}
);
unicode = 004D;
},
{
glyphname = N;
lastChange = "2021-12-17 19:08:13 +0000";
layers = (
{
layerId = "A4C12FFD-F5F6-42D6-8363-6D796F05C5E8";
paths = (
{
closed = 1;
nodes = (
"50 0 LINE",
"150 0 LINE",
"150 281 LINE",
"50 281 LINE"
);
},
{
closed = 1;
nodes = (
"410 0 LINE",
"510 0 LINE",
"510 281 LINE",
"410 281 LINE"
);
},
{
closed = 1;
nodes = (
"234 144 LINE SMOOTH",
"234 120 OFFCURVE",
"242 97 OFFCURVE",
"261 80 CURVE SMOOTH",
"327 19 LINE SMOOTH",
"340 7 OFFCURVE",
"358 0 OFFCURVE",
"380 0 CURVE SMOOTH",
"475 0 LINE",
"475 83 LINE",
"324 83 LINE",
"324 281 LINE",
"234 281 LINE"
);
},
{
closed = 1;
nodes = (
"150 700 LINE",
"50 700 LINE",
"50 281 LINE",
"150 281 LINE"
);
},
{
closed = 1;
nodes = (
"324 546 LINE SMOOTH",
"324 570 OFFCURVE",
"314 591 OFFCURVE",
"297 610 CURVE SMOOTH",
"231 681 LINE SMOOTH",
"217 696 OFFCURVE",
"199 700 OFFCURVE",
"178 700 CURVE SMOOTH",
"83 700 LINE",
"83 617 LINE",
"234 617 LINE",
"234 281 LINE",
"324 281 LINE"
);
},
{
closed = 1;
nodes = (
"510 700 LINE",
"410 700 LINE",
"410 281 LINE",
"510 281 LINE"
);
}
);
width = 560;
},
{
layerId = "38E81DE9-8F9C-4A79-BC09-6CE2D0CDAB48";
paths = (
{
closed = 1;
nodes = (
"50 0 LINE",
"150 0 LINE",
"150 281 LINE",
"50 281 LINE"
);
},
{
closed = 1;
nodes = (
"410 0 LINE",
"510 0 LINE",
"510 281 LINE",
"410 281 LINE"
);
},
{
closed = 1;
nodes = (
"234 144 LINE SMOOTH",
"234 120 OFFCURVE",
"242 97 OFFCURVE",
"261 80 CURVE SMOOTH",
"327 19 LINE SMOOTH",
"340 7 OFFCURVE",
"358 0 OFFCURVE",
"380 0 CURVE SMOOTH",
"475 0 LINE",
"475 83 LINE",
"324 83 LINE",
"324 281 LINE",
"234 281 LINE"
);
},
{
closed = 1;
nodes = (
"235 700 LINE",
"150 700 LINE",
"150 281 LINE",
"235 281 LINE"
);
},
{
closed = 1;
nodes = (
"410 546 LINE SMOOTH",
"410 570 OFFCURVE",
"400 591 OFFCURVE",
"383 610 CURVE SMOOTH",
"317 681 LINE SMOOTH",
"303 696 OFFCURVE",
"285 700 OFFCURVE",
"264 700 CURVE SMOOTH",
"183 700 LINE",
"183 617 LINE",
"324 617 LINE",
"324 281 LINE",
"410 281 LINE"
);
},
{
closed = 1;
nodes = (
"610 700 LINE",
"510 700 LINE",
"510 281 LINE",
"610 281 LINE"
);
}
);
width = 560;
},
{
layerId = "779467A8-E68B-4D04-BE8F-984748AF222C";
paths = (
{
closed = 1;
nodes = (
"50 0 LINE",
"150 0 LINE",
"150 281 LINE",
"50 281 LINE"
);
},
{
closed = 1;
nodes = (
"410 0 LINE",
"510 0 LINE",
"510 281 LINE",
"410 281 LINE"
);
},
{
closed = 1;
nodes = (
"234 144 LINE SMOOTH",
"234 120 OFFCURVE",
"242 97 OFFCURVE",
"261 80 CURVE SMOOTH",
"327 19 LINE SMOOTH",
"340 7 OFFCURVE",
"358 0 OFFCURVE",
"380 0 CURVE SMOOTH",
"475 0 LINE",
"475 83 LINE",
"324 83 LINE",
"324 281 LINE",
"234 281 LINE"
);
},
{
closed = 1;
nodes = (
"324 700 LINE",
"234 700 LINE",
"234 281 LINE",
"324 281 LINE"
);
},
{
closed = 1;
nodes = (
"510 546 LINE SMOOTH",
"510 570 OFFCURVE",
"500 591 OFFCURVE",
"483 610 CURVE SMOOTH",
"417 681 LINE SMOOTH",
"403 696 OFFCURVE",
"385 700 OFFCURVE",
"364 700 CURVE SMOOTH",
"283 700 LINE",
"283 617 LINE",
"410 617 LINE",
"410 281 LINE",
"510 281 LINE"
);
},
{
closed = 1;
nodes = (
"710 700 LINE",
"610 700 LINE",
"610 281 LINE",
"710 281 LINE"
);
}
);
width = 560;
},
{
layerId = "4170F2C3-ADB0-4204-BA3B-87919679734A";
paths = (
{
closed = 1;
nodes = (
"50 0 LINE",
"150 0 LINE",
"150 281 LINE",
"50 281 LINE"
);
},
{
closed = 1;
nodes = (
"410 0 LINE",
"510 0 LINE",
"510 281 LINE",
"410 281 LINE"
);
},
{
closed = 1;
nodes = (
"234 144 LINE SMOOTH",
"234 120 OFFCURVE",
"242 97 OFFCURVE",
"261 80 CURVE SMOOTH",
"327 19 LINE SMOOTH",
"340 7 OFFCURVE",
"358 0 OFFCURVE",
"380 0 CURVE SMOOTH",
"475 0 LINE",
"475 83 LINE",
"324 83 LINE",
"324 281 LINE",
"234 281 LINE"
);
},
{
closed = 1;
nodes = (
"-50 700 LINE",
"-150 700 LINE",
"-150 281 LINE",
"-50 281 LINE"
);
},
{
closed = 1;
nodes = (
"150 546 LINE SMOOTH",
"150 570 OFFCURVE",
"140 591 OFFCURVE",
"123 610 CURVE SMOOTH",
"57 681 LINE SMOOTH",
"43 696 OFFCURVE",
"25 700 OFFCURVE",
"4 700 CURVE SMOOTH",
"-77 700 LINE",
"-77 617 LINE",
"50 617 LINE",
"50 281 LINE",
"150 281 LINE"
);
},
{
closed = 1;
nodes = (
"324 700 LINE",
"234 700 LINE",
"234 281 LINE",
"324 281 LINE"
);
}
);
width = 560;
},
{
layerId = "0C2EA0A7-CF3D-43DE-A1B1-20537ED6286F";
paths = (
{
closed = 1;
nodes = (
"50 0 LINE",
"150 0 LINE",
"150 281 LINE",
"50 281 LINE"
);
},
{
closed = 1;
nodes = (
"410 0 LINE",
"510 0 LINE",
"510 281 LINE",
"410 281 LINE"
);
},
{
closed = 1;
nodes = (
"234 144 LINE SMOOTH",
"234 120 OFFCURVE",
"242 97 OFFCURVE",
"261 80 CURVE SMOOTH",
"327 19 LINE SMOOTH",
"340 7 OFFCURVE",
"358 0 OFFCURVE",
"380 0 CURVE SMOOTH",
"475 0 LINE",
"475 83 LINE",
"324 83 LINE",
"324 281 LINE",
"234 281 LINE"
);
},
{
closed = 1;
nodes = (
"150 900 LINE",
"50 900 LINE",
"50 481 LINE",
"150 481 LINE"
);
},
{
closed = 1;
nodes = (
"324 746 LINE SMOOTH",
"324 770 OFFCURVE",
"314 791 OFFCURVE",
"297 810 CURVE SMOOTH",
"231 881 LINE SMOOTH",
"217 896 OFFCURVE",
"199 900 OFFCURVE",
"178 900 CURVE SMOOTH",
"83 900 LINE",
"83 817 LINE",
"234 817 LINE",
"234 481 LINE",
"324 481 LINE"
);
},
{
closed = 1;
nodes = (
"510 900 LINE",
"410 900 LINE",
"410 481 LINE",
"510 481 LINE"
);
}
);
width = 560;
},
{
layerId = "E46B3A3C-F4DE-4A6E-B6C3-4FEA9D5321E0";
paths = (
{
closed = 1;
nodes = (
"50 0 LINE",
"150 0 LINE",
"150 281 LINE",
"50 281 LINE"
);
},
{
closed = 1;
nodes = (
"410 0 LINE",
"510 0 LINE",
"510 281 LINE",
"410 281 LINE"
);
},
{
closed = 1;
nodes = (
"234 144 LINE SMOOTH",
"234 120 OFFCURVE",
"242 97 OFFCURVE",
"261 80 CURVE SMOOTH",
"327 19 LINE SMOOTH",
"340 7 OFFCURVE",
"358 0 OFFCURVE",
"380 0 CURVE SMOOTH",
"475 0 LINE",
"475 83 LINE",
"324 83 LINE",
"324 281 LINE",
"234 281 LINE"
);
},
{
closed = 1;
nodes = (
"324 900 LINE",
"234 900 LINE",
"234 481 LINE",
"324 481 LINE"
);
},
{
closed = 1;
nodes = (
"510 746 LINE SMOOTH",
"510 770 OFFCURVE",
"500 791 OFFCURVE",
"483 810 CURVE SMOOTH",
"417 881 LINE SMOOTH",
"403 896 OFFCURVE",
"385 900 OFFCURVE",
"364 900 CURVE SMOOTH",
"283 900 LINE",
"283 817 LINE",
"410 817 LINE",
"410 481 LINE",
"510 481 LINE"
);
},
{
closed = 1;
nodes = (
"710 900 LINE",
"610 900 LINE",
"610 481 LINE",
"710 481 LINE"
);
}
);
width = 560;
},
{
layerId = "5FCFDAD1-644A-4B50-89F3-850EB8161FE9";
paths = (
{
closed = 1;
nodes = (
"50 0 LINE",
"150 0 LINE",
"150 281 LINE",
"50 281 LINE"
);
},
{
closed = 1;
nodes = (
"410 0 LINE",
"510 0 LINE",
"510 281 LINE",
"410 281 LINE"
);
},
{
closed = 1;
nodes = (
"234 144 LINE SMOOTH",
"234 120 OFFCURVE",
"242 97 OFFCURVE",
"261 80 CURVE SMOOTH",
"327 19 LINE SMOOTH",
"340 7 OFFCURVE",
"358 0 OFFCURVE",
"380 0 CURVE SMOOTH",
"475 0 LINE",
"475 83 LINE",
"324 83 LINE",
"324 281 LINE",
"234 281 LINE"
);
},
{
closed = 1;
nodes = (
"-24 900 LINE",
"-134 900 LINE",
"-134 481 LINE",
"-24 481 LINE"
);
},
{
closed = 1;
nodes = (
"138 746 LINE SMOOTH",
"138 770 OFFCURVE",
"128 791 OFFCURVE",
"111 810 CURVE SMOOTH",
"45 881 LINE SMOOTH",
"31 896 OFFCURVE",
"13 900 OFFCURVE",
"-8 900 CURVE SMOOTH",
"-117 900 LINE",
"-117 817 LINE",
"58 817 LINE",
"58 481 LINE",
"138 481 LINE"
);
},
{
closed = 1;
nodes = (
"310 900 LINE",
"210 900 LINE",
"210 481 LINE",
"310 481 LINE"
);
}
);
width = 560;
},
{
layerId = "A54B81DC-5EE9-468E-87D3-6F4C184F83A3";
paths = (
{
closed = 1;
nodes = (
"50 0 LINE",
"150 0 LINE",
"150 281 LINE",
"50 281 LINE"
);
},
{
closed = 1;
nodes = (
"410 0 LINE",
"510 0 LINE",
"510 281 LINE",
"410 281 LINE"
);
},
{
closed = 1;
nodes = (
"234 144 LINE SMOOTH",
"234 120 OFFCURVE",
"242 97 OFFCURVE",
"261 80 CURVE SMOOTH",
"327 19 LINE SMOOTH",
"340 7 OFFCURVE",
"358 0 OFFCURVE",
"380 0 CURVE SMOOTH",
"475 0 LINE",
"475 83 LINE",
"324 83 LINE",
"324 281 LINE",
"234 281 LINE"
);
},
{
closed = 1;
nodes = (
"237 900 LINE",
"142 900 LINE",
"142 481 LINE",
"237 481 LINE"
);
},
{
closed = 1;
nodes = (
"417 746 LINE SMOOTH",
"417 770 OFFCURVE",
"407 791 OFFCURVE",
"390 810 CURVE SMOOTH",
"324 881 LINE SMOOTH",
"310 896 OFFCURVE",
"292 900 OFFCURVE",
"271 900 CURVE SMOOTH",
"183 900 LINE",
"183 817 LINE",
"322 817 LINE",
"322 481 LINE",
"417 481 LINE"
);
},
{
closed = 1;
nodes = (
"610 900 LINE",
"510 900 LINE",
"510 481 LINE",
"610 481 LINE"
);
}
);
width = 560;
}
);
unicode = 004E;
},
{
glyphname = O;
lastChange = "2021-12-17 19:08:13 +0000";
layers = (
{
layerId = "A4C12FFD-F5F6-42D6-8363-6D796F05C5E8";
paths = (
{
closed = 1;
nodes = (
"350 89 LINE",
"150 89 LINE",
"150 281 LINE",
"50 281 LINE",
"50 134 LINE SMOOTH",
"50 110 OFFCURVE",
"58 95 OFFCURVE",
"76 74 CURVE SMOOTH",
"119 23 LINE SMOOTH",
"136 3 OFFCURVE",
"149 0 OFFCURVE",
"171 0 CURVE SMOOTH",
"329 0 LINE SMOOTH",
"351 0 OFFCURVE",
"364 3 OFFCURVE",
"381 23 CURVE SMOOTH",
"424 74 LINE SMOOTH",
"442 95 OFFCURVE",
"450 110 OFFCURVE",
"450 134 CURVE SMOOTH",
"450 281 LINE",
"350 281 LINE"
);
},
{
closed = 1;
nodes = (
"450 566 LINE SMOOTH",
"450 590 OFFCURVE",
"442 605 OFFCURVE",
"424 626 CURVE SMOOTH",
"381 677 LINE SMOOTH",
"364 697 OFFCURVE",
"351 700 OFFCURVE",
"329 700 CURVE SMOOTH",
"171 700 LINE SMOOTH",
"149 700 OFFCURVE",
"136 697 OFFCURVE",
"119 677 CURVE SMOOTH",
"76 626 LINE SMOOTH",
"58 605 OFFCURVE",
"50 590 OFFCURVE",
"50 566 CURVE SMOOTH",
"50 281 LINE",
"150 281 LINE",
"150 610 LINE",
"350 610 LINE",
"350 281 LINE",
"450 281 LINE"
);
}
);
width = 500;
},
{
layerId = "38E81DE9-8F9C-4A79-BC09-6CE2D0CDAB48";
paths = (
{
closed = 1;
nodes = (
"350 89 LINE",
"150 89 LINE",
"150 281 LINE",
"50 281 LINE",
"50 134 LINE SMOOTH",
"50 110 OFFCURVE",
"58 95 OFFCURVE",
"76 74 CURVE SMOOTH",
"119 23 LINE SMOOTH",
"136 3 OFFCURVE",
"149 0 OFFCURVE",
"171 0 CURVE SMOOTH",
"329 0 LINE SMOOTH",
"351 0 OFFCURVE",
"364 3 OFFCURVE",
"381 23 CURVE SMOOTH",
"424 74 LINE SMOOTH",
"442 95 OFFCURVE",
"450 110 OFFCURVE",
"450 134 CURVE SMOOTH",
"450 281 LINE",
"350 281 LINE"
);
},
{
closed = 1;
nodes = (
"550 566 LINE SMOOTH",
"550 590 OFFCURVE",
"542 605 OFFCURVE",
"524 626 CURVE SMOOTH",
"481 677 LINE SMOOTH",
"464 697 OFFCURVE",
"451 700 OFFCURVE",
"429 700 CURVE SMOOTH",
"271 700 LINE SMOOTH",
"249 700 OFFCURVE",
"236 697 OFFCURVE",
"219 677 CURVE SMOOTH",
"176 626 LINE SMOOTH",
"158 605 OFFCURVE",
"150 590 OFFCURVE",
"150 566 CURVE SMOOTH",
"150 281 LINE",
"250 281 LINE",
"250 610 LINE",
"450 610 LINE",
"450 281 LINE",
"550 281 LINE"
);
}
);
width = 500;
},
{
layerId = "779467A8-E68B-4D04-BE8F-984748AF222C";
paths = (
{
closed = 1;
nodes = (
"350 89 LINE",
"150 89 LINE",
"150 281 LINE",
"50 281 LINE",
"50 134 LINE SMOOTH",
"50 110 OFFCURVE",
"58 95 OFFCURVE",
"76 74 CURVE SMOOTH",
"119 23 LINE SMOOTH",
"136 3 OFFCURVE",
"149 0 OFFCURVE",
"171 0 CURVE SMOOTH",
"329 0 LINE SMOOTH",
"351 0 OFFCURVE",
"364 3 OFFCURVE",
"381 23 CURVE SMOOTH",
"424 74 LINE SMOOTH",
"442 95 OFFCURVE",
"450 110 OFFCURVE",
"450 134 CURVE SMOOTH",
"450 281 LINE",
"350 281 LINE"
);
},
{
closed = 1;
nodes = (
"650 566 LINE SMOOTH",
"650 590 OFFCURVE",
"642 605 OFFCURVE",
"624 626 CURVE SMOOTH",
"581 677 LINE SMOOTH",
"564 697 OFFCURVE",
"551 700 OFFCURVE",
"529 700 CURVE SMOOTH",
"371 700 LINE SMOOTH",
"349 700 OFFCURVE",
"336 697 OFFCURVE",
"319 677 CURVE SMOOTH",
"276 626 LINE SMOOTH",
"258 605 OFFCURVE",
"250 590 OFFCURVE",
"250 566 CURVE SMOOTH",
"250 281 LINE",
"350 281 LINE",
"350 610 LINE",
"550 610 LINE",
"550 281 LINE",
"650 281 LINE"
);
}
);
width = 500;
},
{
layerId = "4170F2C3-ADB0-4204-BA3B-87919679734A";
paths = (
{
closed = 1;
nodes = (
"350 89 LINE",
"150 89 LINE",
"150 281 LINE",
"50 281 LINE",
"50 134 LINE SMOOTH",
"50 110 OFFCURVE",
"58 95 OFFCURVE",
"76 74 CURVE SMOOTH",
"119 23 LINE SMOOTH",
"136 3 OFFCURVE",
"149 0 OFFCURVE",
"171 0 CURVE SMOOTH",
"329 0 LINE SMOOTH",
"351 0 OFFCURVE",
"364 3 OFFCURVE",
"381 23 CURVE SMOOTH",
"424 74 LINE SMOOTH",
"442 95 OFFCURVE",
"450 110 OFFCURVE",
"450 134 CURVE SMOOTH",
"450 281 LINE",
"350 281 LINE"
);
},
{
closed = 1;
nodes = (
"250 566 LINE SMOOTH",
"250 590 OFFCURVE",
"242 605 OFFCURVE",
"224 626 CURVE SMOOTH",
"181 677 LINE SMOOTH",
"164 697 OFFCURVE",
"151 700 OFFCURVE",
"129 700 CURVE SMOOTH",
"-29 700 LINE SMOOTH",
"-51 700 OFFCURVE",
"-64 697 OFFCURVE",
"-81 677 CURVE SMOOTH",
"-124 626 LINE SMOOTH",
"-142 605 OFFCURVE",
"-150 590 OFFCURVE",
"-150 566 CURVE SMOOTH",
"-150 281 LINE",
"-50 281 LINE",
"-50 610 LINE",
"150 610 LINE",
"150 281 LINE",
"250 281 LINE"
);
}
);
width = 500;
},
{
layerId = "0C2EA0A7-CF3D-43DE-A1B1-20537ED6286F";
paths = (
{
closed = 1;
nodes = (
"350 89 LINE",
"150 89 LINE",
"150 281 LINE",
"50 281 LINE",
"50 134 LINE SMOOTH",
"50 110 OFFCURVE",
"58 95 OFFCURVE",
"76 74 CURVE SMOOTH",
"119 23 LINE SMOOTH",
"136 3 OFFCURVE",
"149 0 OFFCURVE",
"171 0 CURVE SMOOTH",
"329 0 LINE SMOOTH",
"351 0 OFFCURVE",
"364 3 OFFCURVE",
"381 23 CURVE SMOOTH",
"424 74 LINE SMOOTH",
"442 95 OFFCURVE",
"450 110 OFFCURVE",
"450 134 CURVE SMOOTH",
"450 281 LINE",
"350 281 LINE"
);
},
{
closed = 1;
nodes = (
"450 766 LINE SMOOTH",
"450 790 OFFCURVE",
"442 805 OFFCURVE",
"424 826 CURVE SMOOTH",
"381 877 LINE SMOOTH",
"364 897 OFFCURVE",
"351 900 OFFCURVE",
"329 900 CURVE SMOOTH",
"171 900 LINE SMOOTH",
"149 900 OFFCURVE",
"136 897 OFFCURVE",
"119 877 CURVE SMOOTH",
"76 826 LINE SMOOTH",
"58 805 OFFCURVE",
"50 790 OFFCURVE",
"50 766 CURVE SMOOTH",
"50 481 LINE",
"150 481 LINE",
"150 810 LINE",
"350 810 LINE",
"350 481 LINE",
"450 481 LINE"
);
}
);
width = 500;
},
{
layerId = "E46B3A3C-F4DE-4A6E-B6C3-4FEA9D5321E0";
paths = (
{
closed = 1;
nodes = (
"350 89 LINE",
"150 89 LINE",
"150 281 LINE",
"50 281 LINE",
"50 134 LINE SMOOTH",
"50 110 OFFCURVE",
"58 95 OFFCURVE",
"76 74 CURVE SMOOTH",
"119 23 LINE SMOOTH",
"136 3 OFFCURVE",
"149 0 OFFCURVE",
"171 0 CURVE SMOOTH",
"329 0 LINE SMOOTH",
"351 0 OFFCURVE",
"364 3 OFFCURVE",
"381 23 CURVE SMOOTH",
"424 74 LINE SMOOTH",
"442 95 OFFCURVE",
"450 110 OFFCURVE",
"450 134 CURVE SMOOTH",
"450 281 LINE",
"350 281 LINE"
);
},
{
closed = 1;
nodes = (
"650 766 LINE SMOOTH",
"650 790 OFFCURVE",
"642 805 OFFCURVE",
"624 826 CURVE SMOOTH",
"581 877 LINE SMOOTH",
"564 897 OFFCURVE",
"551 900 OFFCURVE",
"529 900 CURVE SMOOTH",
"371 900 LINE SMOOTH",
"349 900 OFFCURVE",
"336 897 OFFCURVE",
"319 877 CURVE SMOOTH",
"276 826 LINE SMOOTH",
"258 805 OFFCURVE",
"250 790 OFFCURVE",
"250 766 CURVE SMOOTH",
"250 481 LINE",
"350 481 LINE",
"350 810 LINE",
"550 810 LINE",
"550 481 LINE",
"650 481 LINE"
);
}
);
width = 500;
},
{
layerId = "5FCFDAD1-644A-4B50-89F3-850EB8161FE9";
paths = (
{
closed = 1;
nodes = (
"350 89 LINE",
"150 89 LINE",
"150 281 LINE",
"50 281 LINE",
"50 134 LINE SMOOTH",
"50 110 OFFCURVE",
"58 95 OFFCURVE",
"76 74 CURVE SMOOTH",
"119 23 LINE SMOOTH",
"136 3 OFFCURVE",
"149 0 OFFCURVE",
"171 0 CURVE SMOOTH",
"329 0 LINE SMOOTH",
"351 0 OFFCURVE",
"364 3 OFFCURVE",
"381 23 CURVE SMOOTH",
"424 74 LINE SMOOTH",
"442 95 OFFCURVE",
"450 110 OFFCURVE",
"450 134 CURVE SMOOTH",
"450 281 LINE",
"350 281 LINE"
);
},
{
closed = 1;
nodes = (
"250 766 LINE SMOOTH",
"250 790 OFFCURVE",
"242 805 OFFCURVE",
"224 826 CURVE SMOOTH",
"181 877 LINE SMOOTH",
"164 897 OFFCURVE",
"151 900 OFFCURVE",
"129 900 CURVE SMOOTH",
"-29 900 LINE SMOOTH",
"-51 900 OFFCURVE",
"-64 897 OFFCURVE",
"-81 877 CURVE SMOOTH",
"-124 826 LINE SMOOTH",
"-142 805 OFFCURVE",
"-150 790 OFFCURVE",
"-150 766 CURVE SMOOTH",
"-150 481 LINE",
"-50 481 LINE",
"-50 810 LINE",
"150 810 LINE",
"150 481 LINE",
"250 481 LINE"
);
}
);
width = 500;
},
{
layerId = "A54B81DC-5EE9-468E-87D3-6F4C184F83A3";
paths = (
{
closed = 1;
nodes = (
"350 89 LINE",
"150 89 LINE",
"150 281 LINE",
"50 281 LINE",
"50 134 LINE SMOOTH",
"50 110 OFFCURVE",
"58 95 OFFCURVE",
"76 74 CURVE SMOOTH",
"119 23 LINE SMOOTH",
"136 3 OFFCURVE",
"149 0 OFFCURVE",
"171 0 CURVE SMOOTH",
"329 0 LINE SMOOTH",
"351 0 OFFCURVE",
"364 3 OFFCURVE",
"381 23 CURVE SMOOTH",
"424 74 LINE SMOOTH",
"442 95 OFFCURVE",
"450 110 OFFCURVE",
"450 134 CURVE SMOOTH",
"450 281 LINE",
"350 281 LINE"
);
},
{
closed = 1;
nodes = (
"550 766 LINE SMOOTH",
"550 790 OFFCURVE",
"542 805 OFFCURVE",
"524 826 CURVE SMOOTH",
"481 877 LINE SMOOTH",
"464 897 OFFCURVE",
"451 900 OFFCURVE",
"429 900 CURVE SMOOTH",
"271 900 LINE SMOOTH",
"249 900 OFFCURVE",
"236 897 OFFCURVE",
"219 877 CURVE SMOOTH",
"176 826 LINE SMOOTH",
"158 805 OFFCURVE",
"150 790 OFFCURVE",
"150 766 CURVE SMOOTH",
"150 481 LINE",
"250 481 LINE",
"250 810 LINE",
"450 810 LINE",
"450 481 LINE",
"550 481 LINE"
);
}
);
width = 500;
}
);
unicode = 004F;
},
{
glyphname = P;
lastChange = "2021-12-17 19:08:13 +0000";
layers = (
{
layerId = "A4C12FFD-F5F6-42D6-8363-6D796F05C5E8";
paths = (
{
closed = 1;
nodes = (
"50 0 LINE",
"150 0 LINE",
"150 281 LINE",
"50 281 LINE"
);
},
{
closed = 1;
nodes = (
"351 281 OFFCURVE",
"364 284 OFFCURVE",
"381 304 CURVE SMOOTH",
"424 355 LINE SMOOTH",
"442 376 OFFCURVE",
"450 391 OFFCURVE",
"450 415 CURVE SMOOTH",
"450 566 LINE SMOOTH",
"450 590 OFFCURVE",
"442 605 OFFCURVE",
"424 626 CURVE SMOOTH",
"381 677 LINE SMOOTH",
"364 697 OFFCURVE",
"351 700 OFFCURVE",
"329 700 CURVE SMOOTH",
"102 700 LINE",
"102 609 LINE",
"358 609 LINE",
"358 371 LINE",
"142 371 LINE",
"142 281 LINE",
"329 281 LINE SMOOTH"
);
},
{
closed = 1;
nodes = (
"150 700 LINE",
"50 700 LINE",
"50 281 LINE",
"150 281 LINE"
);
}
);
width = 500;
},
{
layerId = "38E81DE9-8F9C-4A79-BC09-6CE2D0CDAB48";
paths = (
{
closed = 1;
nodes = (
"50 0 LINE",
"150 0 LINE",
"150 281 LINE",
"50 281 LINE"
);
},
{
closed = 1;
nodes = (
"451 281 OFFCURVE",
"464 284 OFFCURVE",
"481 304 CURVE SMOOTH",
"524 355 LINE SMOOTH",
"542 376 OFFCURVE",
"550 391 OFFCURVE",
"550 415 CURVE SMOOTH",
"550 566 LINE SMOOTH",
"550 590 OFFCURVE",
"542 605 OFFCURVE",
"524 626 CURVE SMOOTH",
"481 677 LINE SMOOTH",
"464 697 OFFCURVE",
"451 700 OFFCURVE",
"429 700 CURVE SMOOTH",
"202 700 LINE",
"202 609 LINE",
"458 609 LINE",
"458 371 LINE",
"242 371 LINE",
"242 281 LINE",
"429 281 LINE SMOOTH"
);
},
{
closed = 1;
nodes = (
"250 700 LINE",
"150 700 LINE",
"150 281 LINE",
"250 281 LINE"
);
}
);
width = 500;
},
{
layerId = "779467A8-E68B-4D04-BE8F-984748AF222C";
paths = (
{
closed = 1;
nodes = (
"50 0 LINE",
"150 0 LINE",
"150 281 LINE",
"50 281 LINE"
);
},
{
closed = 1;
nodes = (
"551 281 OFFCURVE",
"564 284 OFFCURVE",
"581 304 CURVE SMOOTH",
"624 355 LINE SMOOTH",
"642 376 OFFCURVE",
"650 391 OFFCURVE",
"650 415 CURVE SMOOTH",
"650 566 LINE SMOOTH",
"650 590 OFFCURVE",
"642 605 OFFCURVE",
"624 626 CURVE SMOOTH",
"581 677 LINE SMOOTH",
"564 697 OFFCURVE",
"551 700 OFFCURVE",
"529 700 CURVE SMOOTH",
"302 700 LINE",
"302 609 LINE",
"558 609 LINE",
"558 371 LINE",
"342 371 LINE",
"342 281 LINE",
"529 281 LINE SMOOTH"
);
},
{
closed = 1;
nodes = (
"350 700 LINE",
"250 700 LINE",
"250 281 LINE",
"350 281 LINE"
);
}
);
width = 500;
},
{
layerId = "4170F2C3-ADB0-4204-BA3B-87919679734A";
paths = (
{
closed = 1;
nodes = (
"50 0 LINE",
"150 0 LINE",
"150 281 LINE",
"50 281 LINE"
);
},
{
closed = 1;
nodes = (
"151 281 OFFCURVE",
"164 284 OFFCURVE",
"181 304 CURVE SMOOTH",
"224 355 LINE SMOOTH",
"242 376 OFFCURVE",
"250 391 OFFCURVE",
"250 415 CURVE SMOOTH",
"250 566 LINE SMOOTH",
"250 590 OFFCURVE",
"242 605 OFFCURVE",
"224 626 CURVE SMOOTH",
"181 677 LINE SMOOTH",
"164 697 OFFCURVE",
"151 700 OFFCURVE",
"129 700 CURVE SMOOTH",
"-98 700 LINE",
"-98 609 LINE",
"158 609 LINE",
"158 371 LINE",
"-58 371 LINE",
"-58 281 LINE",
"150 281 LINE SMOOTH"
);
},
{
closed = 1;
nodes = (
"-50 700 LINE",
"-150 700 LINE",
"-150 281 LINE",
"-50 281 LINE"
);
}
);
width = 500;
},
{
layerId = "0C2EA0A7-CF3D-43DE-A1B1-20537ED6286F";
paths = (
{
closed = 1;
nodes = (
"50 -200 LINE",
"150 -200 LINE",
"150 81 LINE",
"50 81 LINE"
);
},
{
closed = 1;
nodes = (
"351 281 OFFCURVE",
"364 284 OFFCURVE",
"381 304 CURVE SMOOTH",
"424 355 LINE SMOOTH",
"442 376 OFFCURVE",
"450 391 OFFCURVE",
"450 415 CURVE SMOOTH",
"450 566 LINE SMOOTH",
"450 590 OFFCURVE",
"442 605 OFFCURVE",
"424 626 CURVE SMOOTH",
"381 677 LINE SMOOTH",
"364 697 OFFCURVE",
"351 700 OFFCURVE",
"329 700 CURVE SMOOTH",
"102 700 LINE",
"102 609 LINE",
"358 609 LINE",
"358 371 LINE",
"142 371 LINE",
"142 281 LINE",
"329 281 LINE SMOOTH"
);
},
{
closed = 1;
nodes = (
"150 700 LINE",
"50 700 LINE",
"50 281 LINE",
"150 281 LINE"
);
}
);
width = 500;
},
{
layerId = "E46B3A3C-F4DE-4A6E-B6C3-4FEA9D5321E0";
paths = (
{
closed = 1;
nodes = (
"50 -200 LINE",
"150 -200 LINE",
"150 81 LINE",
"50 81 LINE"
);
},
{
closed = 1;
nodes = (
"551 281 OFFCURVE",
"564 284 OFFCURVE",
"581 304 CURVE SMOOTH",
"624 355 LINE SMOOTH",
"642 376 OFFCURVE",
"650 391 OFFCURVE",
"650 415 CURVE SMOOTH",
"650 566 LINE SMOOTH",
"650 590 OFFCURVE",
"642 605 OFFCURVE",
"624 626 CURVE SMOOTH",
"581 677 LINE SMOOTH",
"564 697 OFFCURVE",
"551 700 OFFCURVE",
"529 700 CURVE SMOOTH",
"302 700 LINE",
"302 609 LINE",
"558 609 LINE",
"558 371 LINE",
"342 371 LINE",
"342 281 LINE",
"529 281 LINE SMOOTH"
);
},
{
closed = 1;
nodes = (
"350 700 LINE",
"250 700 LINE",
"250 281 LINE",
"350 281 LINE"
);
}
);
width = 500;
},
{
layerId = "5FCFDAD1-644A-4B50-89F3-850EB8161FE9";
paths = (
{
closed = 1;
nodes = (
"50 -200 LINE",
"150 -200 LINE",
"150 81 LINE",
"50 81 LINE"
);
},
{
closed = 1;
nodes = (
"151 281 OFFCURVE",
"164 284 OFFCURVE",
"181 304 CURVE SMOOTH",
"224 355 LINE SMOOTH",
"242 376 OFFCURVE",
"250 391 OFFCURVE",
"250 415 CURVE SMOOTH",
"250 566 LINE SMOOTH",
"250 590 OFFCURVE",
"242 605 OFFCURVE",
"224 626 CURVE SMOOTH",
"181 677 LINE SMOOTH",
"164 697 OFFCURVE",
"151 700 OFFCURVE",
"129 700 CURVE SMOOTH",
"-98 700 LINE",
"-98 609 LINE",
"158 609 LINE",
"158 371 LINE",
"-58 371 LINE",
"-58 281 LINE",
"129 281 LINE SMOOTH"
);
},
{
closed = 1;
nodes = (
"-50 700 LINE",
"-150 700 LINE",
"-150 281 LINE",
"-50 281 LINE"
);
}
);
width = 500;
},
{
layerId = "A54B81DC-5EE9-468E-87D3-6F4C184F83A3";
paths = (
{
closed = 1;
nodes = (
"50 -200 LINE",
"150 -200 LINE",
"150 81 LINE",
"50 81 LINE"
);
},
{
closed = 1;
nodes = (
"451 281 OFFCURVE",
"464 284 OFFCURVE",
"481 304 CURVE SMOOTH",
"524 355 LINE SMOOTH",
"542 376 OFFCURVE",
"550 391 OFFCURVE",
"550 415 CURVE SMOOTH",
"550 566 LINE SMOOTH",
"550 590 OFFCURVE",
"542 605 OFFCURVE",
"524 626 CURVE SMOOTH",
"481 677 LINE SMOOTH",
"464 697 OFFCURVE",
"451 700 OFFCURVE",
"429 700 CURVE SMOOTH",
"202 700 LINE",
"202 609 LINE",
"458 609 LINE",
"458 371 LINE",
"242 371 LINE",
"242 281 LINE",
"429 281 LINE SMOOTH"
);
},
{
closed = 1;
nodes = (
"250 700 LINE",
"150 700 LINE",
"150 281 LINE",
"250 281 LINE"
);
}
);
width = 500;
}
);
unicode = 0050;
},
{
glyphname = Q;
lastChange = "2021-12-17 19:08:13 +0000";
layers = (
{
layerId = "A4C12FFD-F5F6-42D6-8363-6D796F05C5E8";
paths = (
{
closed = 1;
nodes = (
"350 89 LINE",
"150 89 LINE",
"150 281 LINE",
"50 281 LINE",
"50 134 LINE SMOOTH",
"50 110 OFFCURVE",
"58 95 OFFCURVE",
"76 74 CURVE SMOOTH",
"119 23 LINE SMOOTH",
"136 3 OFFCURVE",
"149 0 OFFCURVE",
"171 0 CURVE SMOOTH",
"348 0 LINE",
"424 74 LINE SMOOTH",
"444 94 OFFCURVE",
"450 110 OFFCURVE",
"450 134 CURVE SMOOTH",
"450 281 LINE",
"350 281 LINE"
);
},
{
closed = 1;
nodes = (
"258 -40 OFFCURVE",
"267 -54 OFFCURVE",
"285 -75 CURVE SMOOTH",
"328 -126 LINE SMOOTH",
"345 -146 OFFCURVE",
"357 -150 OFFCURVE",
"379 -150 CURVE SMOOTH",
"445 -150 LINE",
"445 -60 LINE",
"348 -60 LINE",
"348 20 LINE",
"258 20 LINE",
"258 -16 LINE SMOOTH"
);
},
{
closed = 1;
nodes = (
"450 566 LINE SMOOTH",
"450 590 OFFCURVE",
"442 605 OFFCURVE",
"424 626 CURVE SMOOTH",
"381 677 LINE SMOOTH",
"364 697 OFFCURVE",
"351 700 OFFCURVE",
"329 700 CURVE SMOOTH",
"171 700 LINE SMOOTH",
"149 700 OFFCURVE",
"136 697 OFFCURVE",
"119 677 CURVE SMOOTH",
"76 626 LINE SMOOTH",
"58 605 OFFCURVE",
"50 590 OFFCURVE",
"50 566 CURVE SMOOTH",
"50 281 LINE",
"150 281 LINE",
"150 610 LINE",
"350 610 LINE",
"350 281 LINE",
"450 281 LINE"
);
}
);
width = 500;
},
{
layerId = "38E81DE9-8F9C-4A79-BC09-6CE2D0CDAB48";
paths = (
{
closed = 1;
nodes = (
"350 89 LINE",
"150 89 LINE",
"150 281 LINE",
"50 281 LINE",
"50 134 LINE SMOOTH",
"50 110 OFFCURVE",
"58 95 OFFCURVE",
"76 74 CURVE SMOOTH",
"119 23 LINE SMOOTH",
"136 3 OFFCURVE",
"149 0 OFFCURVE",
"171 0 CURVE SMOOTH",
"348 0 LINE",
"424 74 LINE SMOOTH",
"444 94 OFFCURVE",
"450 110 OFFCURVE",
"450 134 CURVE SMOOTH",
"450 281 LINE",
"350 281 LINE"
);
},
{
closed = 1;
nodes = (
"258 -40 OFFCURVE",
"267 -54 OFFCURVE",
"285 -75 CURVE SMOOTH",
"328 -126 LINE SMOOTH",
"345 -146 OFFCURVE",
"357 -150 OFFCURVE",
"379 -150 CURVE SMOOTH",
"445 -150 LINE",
"445 -60 LINE",
"348 -60 LINE",
"348 20 LINE",
"258 20 LINE",
"258 -16 LINE SMOOTH"
);
},
{
closed = 1;
nodes = (
"550 566 LINE SMOOTH",
"550 590 OFFCURVE",
"542 605 OFFCURVE",
"524 626 CURVE SMOOTH",
"481 677 LINE SMOOTH",
"464 697 OFFCURVE",
"451 700 OFFCURVE",
"429 700 CURVE SMOOTH",
"271 700 LINE SMOOTH",
"249 700 OFFCURVE",
"236 697 OFFCURVE",
"219 677 CURVE SMOOTH",
"176 626 LINE SMOOTH",
"158 605 OFFCURVE",
"150 590 OFFCURVE",
"150 566 CURVE SMOOTH",
"150 281 LINE",
"250 281 LINE",
"250 610 LINE",
"450 610 LINE",
"450 281 LINE",
"550 281 LINE"
);
}
);
width = 500;
},
{
layerId = "779467A8-E68B-4D04-BE8F-984748AF222C";
paths = (
{
closed = 1;
nodes = (
"350 89 LINE",
"150 89 LINE",
"150 281 LINE",
"50 281 LINE",
"50 134 LINE SMOOTH",
"50 110 OFFCURVE",
"58 95 OFFCURVE",
"76 74 CURVE SMOOTH",
"119 23 LINE SMOOTH",
"136 3 OFFCURVE",
"149 0 OFFCURVE",
"171 0 CURVE SMOOTH",
"348 0 LINE",
"424 74 LINE SMOOTH",
"444 94 OFFCURVE",
"450 110 OFFCURVE",
"450 134 CURVE SMOOTH",
"450 281 LINE",
"350 281 LINE"
);
},
{
closed = 1;
nodes = (
"258 -40 OFFCURVE",
"267 -54 OFFCURVE",
"285 -75 CURVE SMOOTH",
"328 -126 LINE SMOOTH",
"345 -146 OFFCURVE",
"357 -150 OFFCURVE",
"379 -150 CURVE SMOOTH",
"445 -150 LINE",
"445 -60 LINE",
"348 -60 LINE",
"348 20 LINE",
"258 20 LINE",
"258 -16 LINE SMOOTH"
);
},
{
closed = 1;
nodes = (
"650 566 LINE SMOOTH",
"650 590 OFFCURVE",
"642 605 OFFCURVE",
"624 626 CURVE SMOOTH",
"581 677 LINE SMOOTH",
"564 697 OFFCURVE",
"551 700 OFFCURVE",
"529 700 CURVE SMOOTH",
"371 700 LINE SMOOTH",
"349 700 OFFCURVE",
"336 697 OFFCURVE",
"319 677 CURVE SMOOTH",
"276 626 LINE SMOOTH",
"258 605 OFFCURVE",
"250 590 OFFCURVE",
"250 566 CURVE SMOOTH",
"250 281 LINE",
"350 281 LINE",
"350 610 LINE",
"550 610 LINE",
"550 281 LINE",
"650 281 LINE"
);
}
);
width = 500;
},
{
layerId = "4170F2C3-ADB0-4204-BA3B-87919679734A";
paths = (
{
closed = 1;
nodes = (
"350 89 LINE",
"150 89 LINE",
"150 281 LINE",
"50 281 LINE",
"50 134 LINE SMOOTH",
"50 110 OFFCURVE",
"58 95 OFFCURVE",
"76 74 CURVE SMOOTH",
"119 23 LINE SMOOTH",
"136 3 OFFCURVE",
"149 0 OFFCURVE",
"171 0 CURVE SMOOTH",
"348 0 LINE",
"424 74 LINE SMOOTH",
"444 94 OFFCURVE",
"450 110 OFFCURVE",
"450 134 CURVE SMOOTH",
"450 281 LINE",
"350 281 LINE"
);
},
{
closed = 1;
nodes = (
"258 -40 OFFCURVE",
"267 -54 OFFCURVE",
"285 -75 CURVE SMOOTH",
"328 -126 LINE SMOOTH",
"345 -146 OFFCURVE",
"357 -150 OFFCURVE",
"379 -150 CURVE SMOOTH",
"445 -150 LINE",
"445 -60 LINE",
"348 -60 LINE",
"348 20 LINE",
"258 20 LINE",
"258 -16 LINE SMOOTH"
);
},
{
closed = 1;
nodes = (
"250 566 LINE SMOOTH",
"250 590 OFFCURVE",
"242 605 OFFCURVE",
"224 626 CURVE SMOOTH",
"181 677 LINE SMOOTH",
"164 697 OFFCURVE",
"151 700 OFFCURVE",
"129 700 CURVE SMOOTH",
"-29 700 LINE SMOOTH",
"-51 700 OFFCURVE",
"-64 697 OFFCURVE",
"-81 677 CURVE SMOOTH",
"-124 626 LINE SMOOTH",
"-142 605 OFFCURVE",
"-150 590 OFFCURVE",
"-150 566 CURVE SMOOTH",
"-150 281 LINE",
"-50 281 LINE",
"-50 610 LINE",
"150 610 LINE",
"150 281 LINE",
"250 281 LINE"
);
}
);
width = 500;
},
{
layerId = "0C2EA0A7-CF3D-43DE-A1B1-20537ED6286F";
paths = (
{
closed = 1;
nodes = (
"350 89 LINE",
"150 89 LINE",
"150 281 LINE",
"50 281 LINE",
"50 134 LINE SMOOTH",
"50 110 OFFCURVE",
"58 95 OFFCURVE",
"76 74 CURVE SMOOTH",
"119 23 LINE SMOOTH",
"136 3 OFFCURVE",
"149 0 OFFCURVE",
"171 0 CURVE SMOOTH",
"348 0 LINE",
"424 74 LINE SMOOTH",
"444 94 OFFCURVE",
"450 110 OFFCURVE",
"450 134 CURVE SMOOTH",
"450 281 LINE",
"350 281 LINE"
);
},
{
closed = 1;
nodes = (
"258 -40 OFFCURVE",
"267 -54 OFFCURVE",
"285 -75 CURVE SMOOTH",
"328 -126 LINE SMOOTH",
"345 -146 OFFCURVE",
"357 -150 OFFCURVE",
"379 -150 CURVE SMOOTH",
"445 -150 LINE",
"445 -60 LINE",
"348 -60 LINE",
"348 20 LINE",
"258 20 LINE",
"258 -16 LINE SMOOTH"
);
},
{
closed = 1;
nodes = (
"450 766 LINE SMOOTH",
"450 790 OFFCURVE",
"442 805 OFFCURVE",
"424 826 CURVE SMOOTH",
"381 877 LINE SMOOTH",
"364 897 OFFCURVE",
"351 900 OFFCURVE",
"329 900 CURVE SMOOTH",
"171 900 LINE SMOOTH",
"149 900 OFFCURVE",
"136 897 OFFCURVE",
"119 877 CURVE SMOOTH",
"76 826 LINE SMOOTH",
"58 805 OFFCURVE",
"50 790 OFFCURVE",
"50 766 CURVE SMOOTH",
"50 481 LINE",
"150 481 LINE",
"150 810 LINE",
"350 810 LINE",
"350 481 LINE",
"450 481 LINE"
);
}
);
width = 500;
},
{
layerId = "E46B3A3C-F4DE-4A6E-B6C3-4FEA9D5321E0";
paths = (
{
closed = 1;
nodes = (
"350 89 LINE",
"150 89 LINE",
"150 281 LINE",
"50 281 LINE",
"50 134 LINE SMOOTH",
"50 110 OFFCURVE",
"58 95 OFFCURVE",
"76 74 CURVE SMOOTH",
"119 23 LINE SMOOTH",
"136 3 OFFCURVE",
"149 0 OFFCURVE",
"171 0 CURVE SMOOTH",
"348 0 LINE",
"424 74 LINE SMOOTH",
"444 94 OFFCURVE",
"450 110 OFFCURVE",
"450 134 CURVE SMOOTH",
"450 281 LINE",
"350 281 LINE"
);
},
{
closed = 1;
nodes = (
"258 -40 OFFCURVE",
"267 -54 OFFCURVE",
"285 -75 CURVE SMOOTH",
"328 -126 LINE SMOOTH",
"345 -146 OFFCURVE",
"357 -150 OFFCURVE",
"379 -150 CURVE SMOOTH",
"445 -150 LINE",
"445 -60 LINE",
"348 -60 LINE",
"348 20 LINE",
"258 20 LINE",
"258 -16 LINE SMOOTH"
);
},
{
closed = 1;
nodes = (
"650 766 LINE SMOOTH",
"650 790 OFFCURVE",
"642 805 OFFCURVE",
"624 826 CURVE SMOOTH",
"581 877 LINE SMOOTH",
"564 897 OFFCURVE",
"551 900 OFFCURVE",
"529 900 CURVE SMOOTH",
"371 900 LINE SMOOTH",
"349 900 OFFCURVE",
"336 897 OFFCURVE",
"319 877 CURVE SMOOTH",
"276 826 LINE SMOOTH",
"258 805 OFFCURVE",
"250 790 OFFCURVE",
"250 766 CURVE SMOOTH",
"250 481 LINE",
"350 481 LINE",
"350 810 LINE",
"550 810 LINE",
"550 481 LINE",
"650 481 LINE"
);
}
);
width = 500;
},
{
layerId = "5FCFDAD1-644A-4B50-89F3-850EB8161FE9";
paths = (
{
closed = 1;
nodes = (
"350 89 LINE",
"150 89 LINE",
"150 281 LINE",
"50 281 LINE",
"50 134 LINE SMOOTH",
"50 110 OFFCURVE",
"58 95 OFFCURVE",
"76 74 CURVE SMOOTH",
"119 23 LINE SMOOTH",
"136 3 OFFCURVE",
"149 0 OFFCURVE",
"171 0 CURVE SMOOTH",
"348 0 LINE",
"424 74 LINE SMOOTH",
"444 94 OFFCURVE",
"450 110 OFFCURVE",
"450 134 CURVE SMOOTH",
"450 281 LINE",
"350 281 LINE"
);
},
{
closed = 1;
nodes = (
"258 -40 OFFCURVE",
"267 -54 OFFCURVE",
"285 -75 CURVE SMOOTH",
"328 -126 LINE SMOOTH",
"345 -146 OFFCURVE",
"357 -150 OFFCURVE",
"379 -150 CURVE SMOOTH",
"445 -150 LINE",
"445 -60 LINE",
"348 -60 LINE",
"348 20 LINE",
"258 20 LINE",
"258 -16 LINE SMOOTH"
);
},
{
closed = 1;
nodes = (
"250 766 LINE SMOOTH",
"250 790 OFFCURVE",
"242 805 OFFCURVE",
"224 826 CURVE SMOOTH",
"181 877 LINE SMOOTH",
"164 897 OFFCURVE",
"151 900 OFFCURVE",
"129 900 CURVE SMOOTH",
"-29 900 LINE SMOOTH",
"-51 900 OFFCURVE",
"-64 897 OFFCURVE",
"-81 877 CURVE SMOOTH",
"-124 826 LINE SMOOTH",
"-142 805 OFFCURVE",
"-150 790 OFFCURVE",
"-150 766 CURVE SMOOTH",
"-150 481 LINE",
"-50 481 LINE",
"-50 810 LINE",
"150 810 LINE",
"150 481 LINE",
"250 481 LINE"
);
}
);
width = 500;
},
{
layerId = "A54B81DC-5EE9-468E-87D3-6F4C184F83A3";
paths = (
{
closed = 1;
nodes = (
"350 89 LINE",
"150 89 LINE",
"150 281 LINE",
"50 281 LINE",
"50 134 LINE SMOOTH",
"50 110 OFFCURVE",
"58 95 OFFCURVE",
"76 74 CURVE SMOOTH",
"119 23 LINE SMOOTH",
"136 3 OFFCURVE",
"149 0 OFFCURVE",
"171 0 CURVE SMOOTH",
"348 0 LINE",
"424 74 LINE SMOOTH",
"444 94 OFFCURVE",
"450 110 OFFCURVE",
"450 134 CURVE SMOOTH",
"450 281 LINE",
"350 281 LINE"
);
},
{
closed = 1;
nodes = (
"258 -40 OFFCURVE",
"267 -54 OFFCURVE",
"285 -75 CURVE SMOOTH",
"328 -126 LINE SMOOTH",
"345 -146 OFFCURVE",
"357 -150 OFFCURVE",
"379 -150 CURVE SMOOTH",
"445 -150 LINE",
"445 -60 LINE",
"348 -60 LINE",
"348 20 LINE",
"258 20 LINE",
"258 -16 LINE SMOOTH"
);
},
{
closed = 1;
nodes = (
"550 766 LINE SMOOTH",
"550 790 OFFCURVE",
"542 805 OFFCURVE",
"524 826 CURVE SMOOTH",
"481 877 LINE SMOOTH",
"464 897 OFFCURVE",
"451 900 OFFCURVE",
"429 900 CURVE SMOOTH",
"271 900 LINE SMOOTH",
"249 900 OFFCURVE",
"236 897 OFFCURVE",
"219 877 CURVE SMOOTH",
"176 826 LINE SMOOTH",
"158 805 OFFCURVE",
"150 790 OFFCURVE",
"150 766 CURVE SMOOTH",
"150 481 LINE",
"250 481 LINE",
"250 810 LINE",
"450 810 LINE",
"450 481 LINE",
"550 481 LINE"
);
}
);
width = 500;
}
);
unicode = 0051;
},
{
glyphname = R;
lastChange = "2021-12-17 19:08:13 +0000";
layers = (
{
layerId = "A4C12FFD-F5F6-42D6-8363-6D796F05C5E8";
paths = (
{
closed = 1;
nodes = (
"351 422 OFFCURVE",
"367 428 OFFCURVE",
"381 445 CURVE SMOOTH",
"428 501 LINE SMOOTH",
"442 517 OFFCURVE",
"450 532 OFFCURVE",
"450 556 CURVE SMOOTH",
"450 566 LINE SMOOTH",
"450 590 OFFCURVE",
"442 605 OFFCURVE",
"428 621 CURVE SMOOTH",
"381 677 LINE SMOOTH",
"364 697 OFFCURVE",
"351 700 OFFCURVE",
"329 700 CURVE SMOOTH",
"102 700 LINE",
"102 620 LINE",
"358 620 LINE",
"358 501 LINE",
"142 501 LINE",
"142 422 LINE",
"329 422 LINE SMOOTH"
);
},
{
closed = 1;
nodes = (
"50 0 LINE",
"150 0 LINE",
"150 281 LINE",
"50 281 LINE"
);
},
{
closed = 1;
nodes = (
"350 0 LINE",
"450 0 LINE",
"450 236 LINE SMOOTH",
"450 255 OFFCURVE",
"444 269 OFFCURVE",
"436 281 CURVE",
"350 281 LINE"
);
},
{
closed = 1;
nodes = (
"150 700 LINE",
"50 700 LINE",
"50 281 LINE",
"150 281 LINE"
);
},
{
closed = 1;
nodes = (
"433 285 OFFCURVE",
"431 288 OFFCURVE",
"428 291 CURVE SMOOTH",
"381 347 LINE SMOOTH",
"364 367 OFFCURVE",
"347 370 OFFCURVE",
"323 370 CURVE SMOOTH",
"142 370 LINE",
"142 281 LINE",
"350 281 LINE",
"436 281 LINE"
);
}
);
width = 500;
},
{
layerId = "38E81DE9-8F9C-4A79-BC09-6CE2D0CDAB48";
paths = (
{
closed = 1;
nodes = (
"432 421 OFFCURVE",
"448 427 OFFCURVE",
"462 444 CURVE SMOOTH",
"509 500 LINE SMOOTH",
"523 516 OFFCURVE",
"531 531 OFFCURVE",
"531 555 CURVE SMOOTH",
"531 565 LINE SMOOTH",
"531 589 OFFCURVE",
"523 604 OFFCURVE",
"509 620 CURVE SMOOTH",
"462 676 LINE SMOOTH",
"445 696 OFFCURVE",
"432 699 OFFCURVE",
"410 699 CURVE SMOOTH",
"203 699 LINE",
"203 619 LINE",
"439 619 LINE",
"439 500 LINE",
"243 500 LINE",
"243 421 LINE",
"410 421 LINE SMOOTH"
);
},
{
closed = 1;
nodes = (
"51 -1 LINE",
"151 -1 LINE",
"151 280 LINE",
"51 280 LINE"
);
},
{
closed = 1;
nodes = (
"351 -1 LINE",
"451 -1 LINE",
"451 235 LINE SMOOTH",
"451 254 OFFCURVE",
"445 268 OFFCURVE",
"437 280 CURVE",
"351 280 LINE"
);
},
{
closed = 1;
nodes = (
"251 699 LINE",
"151 699 LINE",
"151 280 LINE",
"251 280 LINE"
);
},
{
closed = 1;
nodes = (
"547 284 OFFCURVE",
"545 287 OFFCURVE",
"542 290 CURVE SMOOTH",
"495 346 LINE SMOOTH",
"478 366 OFFCURVE",
"461 369 OFFCURVE",
"437 369 CURVE SMOOTH",
"243 369 LINE",
"243 280 LINE",
"464 280 LINE",
"550 280 LINE"
);
}
);
width = 500;
},
{
layerId = "779467A8-E68B-4D04-BE8F-984748AF222C";
paths = (
{
closed = 1;
nodes = (
"532 421 OFFCURVE",
"548 427 OFFCURVE",
"562 444 CURVE SMOOTH",
"609 500 LINE SMOOTH",
"623 516 OFFCURVE",
"631 531 OFFCURVE",
"631 555 CURVE SMOOTH",
"631 565 LINE SMOOTH",
"631 589 OFFCURVE",
"623 604 OFFCURVE",
"609 620 CURVE SMOOTH",
"562 676 LINE SMOOTH",
"545 696 OFFCURVE",
"532 699 OFFCURVE",
"510 699 CURVE SMOOTH",
"303 699 LINE",
"303 619 LINE",
"539 619 LINE",
"539 500 LINE",
"343 500 LINE",
"343 421 LINE",
"510 421 LINE SMOOTH"
);
},
{
closed = 1;
nodes = (
"51 -1 LINE",
"151 -1 LINE",
"151 280 LINE",
"51 280 LINE"
);
},
{
closed = 1;
nodes = (
"351 -1 LINE",
"451 -1 LINE",
"451 235 LINE SMOOTH",
"451 254 OFFCURVE",
"445 268 OFFCURVE",
"437 280 CURVE",
"351 280 LINE"
);
},
{
closed = 1;
nodes = (
"351 699 LINE",
"251 699 LINE",
"251 280 LINE",
"351 280 LINE"
);
},
{
closed = 1;
nodes = (
"647 284 OFFCURVE",
"645 287 OFFCURVE",
"642 290 CURVE SMOOTH",
"595 346 LINE SMOOTH",
"578 366 OFFCURVE",
"561 369 OFFCURVE",
"537 369 CURVE SMOOTH",
"343 369 LINE",
"343 280 LINE",
"564 280 LINE",
"650 280 LINE"
);
}
);
width = 500;
},
{
layerId = "4170F2C3-ADB0-4204-BA3B-87919679734A";
paths = (
{
closed = 1;
nodes = (
"131 422 OFFCURVE",
"147 428 OFFCURVE",
"161 445 CURVE SMOOTH",
"208 501 LINE SMOOTH",
"222 517 OFFCURVE",
"230 532 OFFCURVE",
"230 556 CURVE SMOOTH",
"230 566 LINE SMOOTH",
"230 590 OFFCURVE",
"222 605 OFFCURVE",
"208 621 CURVE SMOOTH",
"161 677 LINE SMOOTH",
"144 697 OFFCURVE",
"131 700 OFFCURVE",
"109 700 CURVE SMOOTH",
"-98 700 LINE",
"-98 620 LINE",
"138 620 LINE",
"138 501 LINE",
"-58 501 LINE",
"-58 422 LINE",
"109 422 LINE SMOOTH"
);
},
{
closed = 1;
nodes = (
"51 0 LINE",
"151 0 LINE",
"151 281 LINE",
"51 281 LINE"
);
},
{
closed = 1;
nodes = (
"350 0 LINE",
"450 0 LINE",
"450 236 LINE SMOOTH",
"450 255 OFFCURVE",
"450 270 OFFCURVE",
"450 282 CURVE",
"350 282 LINE"
);
},
{
closed = 1;
nodes = (
"-50 700 LINE",
"-150 700 LINE",
"-150 281 LINE",
"-50 281 LINE"
);
},
{
closed = 1;
nodes = (
"246 285 OFFCURVE",
"244 288 OFFCURVE",
"241 291 CURVE SMOOTH",
"194 347 LINE SMOOTH",
"177 367 OFFCURVE",
"160 370 OFFCURVE",
"136 370 CURVE SMOOTH",
"-58 370 LINE",
"-58 281 LINE",
"163 281 LINE",
"249 281 LINE"
);
}
);
width = 500;
},
{
layerId = "0C2EA0A7-CF3D-43DE-A1B1-20537ED6286F";
paths = (
{
closed = 1;
nodes = (
"351 422 OFFCURVE",
"367 428 OFFCURVE",
"381 445 CURVE SMOOTH",
"428 501 LINE SMOOTH",
"442 517 OFFCURVE",
"450 532 OFFCURVE",
"450 556 CURVE SMOOTH",
"450 566 LINE SMOOTH",
"450 590 OFFCURVE",
"442 605 OFFCURVE",
"428 621 CURVE SMOOTH",
"381 677 LINE SMOOTH",
"364 697 OFFCURVE",
"351 700 OFFCURVE",
"329 700 CURVE SMOOTH",
"102 700 LINE",
"102 620 LINE",
"358 620 LINE",
"358 501 LINE",
"142 501 LINE",
"142 422 LINE",
"329 422 LINE SMOOTH"
);
},
{
closed = 1;
nodes = (
"50 -200 LINE",
"150 -200 LINE",
"150 81 LINE",
"50 81 LINE"
);
},
{
closed = 1;
nodes = (
"350 -200 LINE",
"450 -200 LINE",
"450 36 LINE SMOOTH",
"450 55 OFFCURVE",
"444 69 OFFCURVE",
"436 81 CURVE",
"350 81 LINE"
);
},
{
closed = 1;
nodes = (
"150 700 LINE",
"50 700 LINE",
"50 281 LINE",
"150 281 LINE"
);
},
{
closed = 1;
nodes = (
"433 285 OFFCURVE",
"431 288 OFFCURVE",
"428 291 CURVE SMOOTH",
"381 347 LINE SMOOTH",
"364 367 OFFCURVE",
"347 370 OFFCURVE",
"323 370 CURVE SMOOTH",
"142 370 LINE",
"142 281 LINE",
"350 281 LINE",
"436 281 LINE"
);
}
);
width = 500;
},
{
layerId = "E46B3A3C-F4DE-4A6E-B6C3-4FEA9D5321E0";
paths = (
{
closed = 1;
nodes = (
"532 421 OFFCURVE",
"548 427 OFFCURVE",
"562 444 CURVE SMOOTH",
"609 500 LINE SMOOTH",
"623 516 OFFCURVE",
"631 531 OFFCURVE",
"631 555 CURVE SMOOTH",
"631 565 LINE SMOOTH",
"631 589 OFFCURVE",
"623 604 OFFCURVE",
"609 620 CURVE SMOOTH",
"562 676 LINE SMOOTH",
"545 696 OFFCURVE",
"532 699 OFFCURVE",
"510 699 CURVE SMOOTH",
"303 699 LINE",
"303 619 LINE",
"539 619 LINE",
"539 500 LINE",
"343 500 LINE",
"343 421 LINE",
"510 421 LINE SMOOTH"
);
},
{
closed = 1;
nodes = (
"51 -201 LINE",
"151 -201 LINE",
"151 80 LINE",
"51 80 LINE"
);
},
{
closed = 1;
nodes = (
"351 -201 LINE",
"451 -201 LINE",
"451 35 LINE SMOOTH",
"451 54 OFFCURVE",
"445 68 OFFCURVE",
"437 80 CURVE",
"351 80 LINE"
);
},
{
closed = 1;
nodes = (
"351 699 LINE",
"251 699 LINE",
"251 280 LINE",
"351 280 LINE"
);
},
{
closed = 1;
nodes = (
"647 284 OFFCURVE",
"645 287 OFFCURVE",
"642 290 CURVE SMOOTH",
"595 346 LINE SMOOTH",
"578 366 OFFCURVE",
"561 369 OFFCURVE",
"537 369 CURVE SMOOTH",
"343 369 LINE",
"343 280 LINE",
"564 280 LINE",
"650 280 LINE"
);
}
);
width = 500;
},
{
layerId = "5FCFDAD1-644A-4B50-89F3-850EB8161FE9";
paths = (
{
closed = 1;
nodes = (
"170 423 OFFCURVE",
"186 429 OFFCURVE",
"200 446 CURVE SMOOTH",
"247 502 LINE SMOOTH",
"261 518 OFFCURVE",
"269 533 OFFCURVE",
"269 557 CURVE SMOOTH",
"269 567 LINE SMOOTH",
"269 591 OFFCURVE",
"261 606 OFFCURVE",
"247 622 CURVE SMOOTH",
"200 678 LINE SMOOTH",
"183 698 OFFCURVE",
"170 701 OFFCURVE",
"148 701 CURVE SMOOTH",
"-99 701 LINE",
"-99 621 LINE",
"177 621 LINE",
"177 502 LINE",
"-59 502 LINE",
"-59 423 LINE",
"148 423 LINE SMOOTH"
);
},
{
closed = 1;
nodes = (
"49 -199 LINE",
"149 -199 LINE",
"149 82 LINE",
"49 82 LINE"
);
},
{
closed = 1;
nodes = (
"349 -199 LINE",
"449 -199 LINE",
"449 37 LINE SMOOTH",
"449 56 OFFCURVE",
"443 70 OFFCURVE",
"435 82 CURVE",
"349 82 LINE"
);
},
{
closed = 1;
nodes = (
"-51 701 LINE",
"-151 701 LINE",
"-151 282 LINE",
"-51 282 LINE"
);
},
{
closed = 1;
nodes = (
"219 286 OFFCURVE",
"217 289 OFFCURVE",
"214 292 CURVE SMOOTH",
"167 348 LINE SMOOTH",
"150 368 OFFCURVE",
"133 371 OFFCURVE",
"109 371 CURVE SMOOTH",
"-59 371 LINE",
"-59 282 LINE",
"136 282 LINE",
"222 282 LINE"
);
}
);
width = 500;
},
{
layerId = "A54B81DC-5EE9-468E-87D3-6F4C184F83A3";
paths = (
{
closed = 1;
nodes = (
"442 422 OFFCURVE",
"458 428 OFFCURVE",
"472 445 CURVE SMOOTH",
"519 501 LINE SMOOTH",
"533 517 OFFCURVE",
"541 532 OFFCURVE",
"541 556 CURVE SMOOTH",
"541 566 LINE SMOOTH",
"541 590 OFFCURVE",
"533 605 OFFCURVE",
"519 621 CURVE SMOOTH",
"472 677 LINE SMOOTH",
"455 697 OFFCURVE",
"442 700 OFFCURVE",
"420 700 CURVE SMOOTH",
"203 700 LINE",
"203 620 LINE",
"449 620 LINE",
"449 501 LINE",
"243 501 LINE",
"243 422 LINE",
"420 422 LINE SMOOTH"
);
},
{
closed = 1;
nodes = (
"51 -201 LINE",
"151 -201 LINE",
"151 81 LINE",
"51 81 LINE"
);
},
{
closed = 1;
nodes = (
"351 -201 LINE",
"451 -201 LINE",
"451 36 LINE SMOOTH",
"451 55 OFFCURVE",
"445 69 OFFCURVE",
"437 81 CURVE",
"351 81 LINE"
);
},
{
closed = 1;
nodes = (
"251 700 LINE",
"151 700 LINE",
"151 281 LINE",
"251 281 LINE"
);
},
{
closed = 1;
nodes = (
"540 285 OFFCURVE",
"538 288 OFFCURVE",
"535 291 CURVE SMOOTH",
"488 347 LINE SMOOTH",
"471 367 OFFCURVE",
"454 370 OFFCURVE",
"430 370 CURVE SMOOTH",
"243 370 LINE",
"243 281 LINE",
"457 281 LINE",
"543 281 LINE"
);
}
);
width = 500;
}
);
unicode = 0052;
},
{
glyphname = S;
lastChange = "2021-12-17 19:08:13 +0000";
layers = (
{
layerId = "A4C12FFD-F5F6-42D6-8363-6D796F05C5E8";
paths = (
{
closed = 1;
nodes = (
"167 281 LINE",
"167 620 LINE",
"335 620 LINE",
"335 500 LINE",
"435 500 LINE",
"435 566 LINE SMOOTH",
"435 590 OFFCURVE",
"429 606 OFFCURVE",
"409 626 CURVE SMOOTH",
"358 677 LINE SMOOTH",
"339 696 OFFCURVE",
"328 700 OFFCURVE",
"306 700 CURVE SMOOTH",
"191 700 LINE SMOOTH",
"169 700 OFFCURVE",
"153 691 OFFCURVE",
"140 676 CURVE SMOOTH",
"93 620 LINE SMOOTH",
"79 604 OFFCURVE",
"70 587 OFFCURVE",
"70 563 CURVE SMOOTH",
"70 281 LINE"
);
},
{
closed = 1;
nodes = (
"319 0 LINE SMOOTH",
"341 0 OFFCURVE",
"352 5 OFFCURVE",
"371 23 CURVE SMOOTH",
"424 74 LINE SMOOTH",
"444 93 OFFCURVE",
"450 110 OFFCURVE",
"450 134 CURVE SMOOTH",
"450 281 LINE",
"353 281 LINE",
"353 84 LINE",
"152 84 LINE",
"152 200 LINE",
"52 200 LINE",
"52 134 LINE SMOOTH",
"52 110 OFFCURVE",
"58 94 OFFCURVE",
"78 74 CURVE SMOOTH",
"129 23 LINE SMOOTH",
"148 4 OFFCURVE",
"159 0 OFFCURVE",
"181 0 CURVE SMOOTH"
);
},
{
closed = 1;
nodes = (
"353 281 LINE",
"450 281 LINE",
"450 362 LINE",
"72 362 LINE",
"72 281 LINE"
);
}
);
width = 500;
},
{
layerId = "38E81DE9-8F9C-4A79-BC09-6CE2D0CDAB48";
paths = (
{
closed = 1;
nodes = (
"267 281 LINE",
"267 620 LINE",
"435 620 LINE",
"435 500 LINE",
"535 500 LINE",
"535 566 LINE SMOOTH",
"535 590 OFFCURVE",
"529 606 OFFCURVE",
"509 626 CURVE SMOOTH",
"458 677 LINE SMOOTH",
"439 696 OFFCURVE",
"428 700 OFFCURVE",
"406 700 CURVE SMOOTH",
"291 700 LINE SMOOTH",
"269 700 OFFCURVE",
"253 691 OFFCURVE",
"240 676 CURVE SMOOTH",
"193 620 LINE SMOOTH",
"179 604 OFFCURVE",
"170 587 OFFCURVE",
"170 563 CURVE SMOOTH",
"170 281 LINE"
);
},
{
closed = 1;
nodes = (
"319 0 LINE SMOOTH",
"341 0 OFFCURVE",
"352 5 OFFCURVE",
"371 23 CURVE SMOOTH",
"424 74 LINE SMOOTH",
"444 93 OFFCURVE",
"450 110 OFFCURVE",
"450 134 CURVE SMOOTH",
"450 281 LINE",
"353 281 LINE",
"353 84 LINE",
"152 84 LINE",
"152 200 LINE",
"52 200 LINE",
"52 134 LINE SMOOTH",
"52 110 OFFCURVE",
"58 94 OFFCURVE",
"78 74 CURVE SMOOTH",
"129 23 LINE SMOOTH",
"148 4 OFFCURVE",
"159 0 OFFCURVE",
"181 0 CURVE SMOOTH"
);
},
{
closed = 1;
nodes = (
"453 281 LINE",
"550 281 LINE",
"550 362 LINE",
"172 362 LINE",
"172 281 LINE"
);
}
);
width = 500;
},
{
layerId = "779467A8-E68B-4D04-BE8F-984748AF222C";
paths = (
{
closed = 1;
nodes = (
"367 281 LINE",
"367 620 LINE",
"535 620 LINE",
"535 500 LINE",
"635 500 LINE",
"635 566 LINE SMOOTH",
"635 590 OFFCURVE",
"629 606 OFFCURVE",
"609 626 CURVE SMOOTH",
"558 677 LINE SMOOTH",
"539 696 OFFCURVE",
"528 700 OFFCURVE",
"506 700 CURVE SMOOTH",
"391 700 LINE SMOOTH",
"369 700 OFFCURVE",
"353 691 OFFCURVE",
"340 676 CURVE SMOOTH",
"293 620 LINE SMOOTH",
"279 604 OFFCURVE",
"270 587 OFFCURVE",
"270 563 CURVE SMOOTH",
"270 281 LINE"
);
},
{
closed = 1;
nodes = (
"319 0 LINE SMOOTH",
"341 0 OFFCURVE",
"352 5 OFFCURVE",
"371 23 CURVE SMOOTH",
"424 74 LINE SMOOTH",
"444 93 OFFCURVE",
"450 110 OFFCURVE",
"450 134 CURVE SMOOTH",
"450 281 LINE",
"353 281 LINE",
"353 84 LINE",
"152 84 LINE",
"152 200 LINE",
"52 200 LINE",
"52 134 LINE SMOOTH",
"52 110 OFFCURVE",
"58 94 OFFCURVE",
"78 74 CURVE SMOOTH",
"129 23 LINE SMOOTH",
"148 4 OFFCURVE",
"159 0 OFFCURVE",
"181 0 CURVE SMOOTH"
);
},
{
closed = 1;
nodes = (
"553 281 LINE",
"650 281 LINE",
"650 362 LINE",
"272 362 LINE",
"272 281 LINE"
);
}
);
width = 500;
},
{
layerId = "4170F2C3-ADB0-4204-BA3B-87919679734A";
paths = (
{
closed = 1;
nodes = (
"-53 281 LINE",
"-53 620 LINE",
"115 620 LINE",
"115 500 LINE",
"215 500 LINE",
"215 566 LINE SMOOTH",
"215 590 OFFCURVE",
"209 606 OFFCURVE",
"189 626 CURVE SMOOTH",
"138 677 LINE SMOOTH",
"119 696 OFFCURVE",
"108 700 OFFCURVE",
"86 700 CURVE SMOOTH",
"-29 700 LINE SMOOTH",
"-51 700 OFFCURVE",
"-67 691 OFFCURVE",
"-80 676 CURVE SMOOTH",
"-127 620 LINE SMOOTH",
"-141 604 OFFCURVE",
"-150 587 OFFCURVE",
"-150 563 CURVE SMOOTH",
"-150 281 LINE"
);
},
{
closed = 1;
nodes = (
"319 0 LINE SMOOTH",
"341 0 OFFCURVE",
"352 5 OFFCURVE",
"371 23 CURVE SMOOTH",
"424 74 LINE SMOOTH",
"444 93 OFFCURVE",
"450 110 OFFCURVE",
"450 134 CURVE SMOOTH",
"450 281 LINE",
"353 281 LINE",
"353 84 LINE",
"152 84 LINE",
"152 200 LINE",
"52 200 LINE",
"52 134 LINE SMOOTH",
"52 110 OFFCURVE",
"58 94 OFFCURVE",
"78 74 CURVE SMOOTH",
"129 23 LINE SMOOTH",
"148 4 OFFCURVE",
"159 0 OFFCURVE",
"181 0 CURVE SMOOTH"
);
},
{
closed = 1;
nodes = (
"133 281 LINE",
"230 281 LINE",
"230 362 LINE",
"-148 362 LINE",
"-148 281 LINE"
);
}
);
width = 500;
},
{
layerId = "0C2EA0A7-CF3D-43DE-A1B1-20537ED6286F";
paths = (
{
closed = 1;
nodes = (
"167 281 LINE",
"167 620 LINE",
"335 620 LINE",
"335 500 LINE",
"435 500 LINE",
"435 566 LINE SMOOTH",
"435 590 OFFCURVE",
"429 606 OFFCURVE",
"409 626 CURVE SMOOTH",
"358 677 LINE SMOOTH",
"339 696 OFFCURVE",
"328 700 OFFCURVE",
"306 700 CURVE SMOOTH",
"191 700 LINE SMOOTH",
"169 700 OFFCURVE",
"153 691 OFFCURVE",
"140 676 CURVE SMOOTH",
"93 620 LINE SMOOTH",
"79 604 OFFCURVE",
"70 587 OFFCURVE",
"70 563 CURVE SMOOTH",
"70 281 LINE"
);
},
{
closed = 1;
nodes = (
"319 -200 LINE SMOOTH",
"341 -200 OFFCURVE",
"352 -195 OFFCURVE",
"371 -177 CURVE SMOOTH",
"424 -126 LINE SMOOTH",
"444 -107 OFFCURVE",
"450 -90 OFFCURVE",
"450 -66 CURVE SMOOTH",
"450 81 LINE",
"353 81 LINE",
"353 -116 LINE",
"152 -116 LINE",
"152 0 LINE",
"52 0 LINE",
"52 -66 LINE SMOOTH",
"52 -90 OFFCURVE",
"58 -106 OFFCURVE",
"78 -126 CURVE SMOOTH",
"129 -177 LINE SMOOTH",
"148 -196 OFFCURVE",
"159 -200 OFFCURVE",
"181 -200 CURVE SMOOTH"
);
},
{
closed = 1;
nodes = (
"353 281 LINE",
"450 281 LINE",
"450 362 LINE",
"72 362 LINE",
"72 281 LINE"
);
}
);
width = 500;
},
{
layerId = "E46B3A3C-F4DE-4A6E-B6C3-4FEA9D5321E0";
paths = (
{
closed = 1;
nodes = (
"367 281 LINE",
"367 620 LINE",
"535 620 LINE",
"535 500 LINE",
"635 500 LINE",
"635 566 LINE SMOOTH",
"635 590 OFFCURVE",
"629 606 OFFCURVE",
"609 626 CURVE SMOOTH",
"558 677 LINE SMOOTH",
"539 696 OFFCURVE",
"528 700 OFFCURVE",
"506 700 CURVE SMOOTH",
"391 700 LINE SMOOTH",
"369 700 OFFCURVE",
"353 691 OFFCURVE",
"340 676 CURVE SMOOTH",
"293 620 LINE SMOOTH",
"279 604 OFFCURVE",
"270 587 OFFCURVE",
"270 563 CURVE SMOOTH",
"270 281 LINE"
);
},
{
closed = 1;
nodes = (
"319 -200 LINE SMOOTH",
"341 -200 OFFCURVE",
"352 -195 OFFCURVE",
"371 -177 CURVE SMOOTH",
"424 -126 LINE SMOOTH",
"444 -107 OFFCURVE",
"450 -90 OFFCURVE",
"450 -66 CURVE SMOOTH",
"450 81 LINE",
"353 81 LINE",
"353 -116 LINE",
"152 -116 LINE",
"152 0 LINE",
"52 0 LINE",
"52 -66 LINE SMOOTH",
"52 -90 OFFCURVE",
"58 -106 OFFCURVE",
"78 -126 CURVE SMOOTH",
"129 -177 LINE SMOOTH",
"148 -196 OFFCURVE",
"159 -200 OFFCURVE",
"181 -200 CURVE SMOOTH"
);
},
{
closed = 1;
nodes = (
"553 281 LINE",
"650 281 LINE",
"650 362 LINE",
"272 362 LINE",
"272 281 LINE"
);
}
);
width = 500;
},
{
layerId = "5FCFDAD1-644A-4B50-89F3-850EB8161FE9";
paths = (
{
closed = 1;
nodes = (
"-33 281 LINE",
"-33 620 LINE",
"135 620 LINE",
"135 500 LINE",
"235 500 LINE",
"235 566 LINE SMOOTH",
"235 590 OFFCURVE",
"229 606 OFFCURVE",
"209 626 CURVE SMOOTH",
"158 677 LINE SMOOTH",
"139 696 OFFCURVE",
"128 700 OFFCURVE",
"106 700 CURVE SMOOTH",
"-9 700 LINE SMOOTH",
"-31 700 OFFCURVE",
"-47 691 OFFCURVE",
"-60 676 CURVE SMOOTH",
"-107 620 LINE SMOOTH",
"-121 604 OFFCURVE",
"-130 587 OFFCURVE",
"-130 563 CURVE SMOOTH",
"-130 281 LINE"
);
},
{
closed = 1;
nodes = (
"319 -200 LINE SMOOTH",
"341 -200 OFFCURVE",
"352 -195 OFFCURVE",
"371 -177 CURVE SMOOTH",
"424 -126 LINE SMOOTH",
"444 -107 OFFCURVE",
"450 -90 OFFCURVE",
"450 -66 CURVE SMOOTH",
"450 81 LINE",
"353 81 LINE",
"353 -116 LINE",
"152 -116 LINE",
"152 0 LINE",
"52 0 LINE",
"52 -66 LINE SMOOTH",
"52 -90 OFFCURVE",
"58 -106 OFFCURVE",
"78 -126 CURVE SMOOTH",
"129 -177 LINE SMOOTH",
"148 -196 OFFCURVE",
"159 -200 OFFCURVE",
"181 -200 CURVE SMOOTH"
);
},
{
closed = 1;
nodes = (
"153 281 LINE",
"250 281 LINE",
"250 362 LINE",
"-128 362 LINE",
"-128 281 LINE"
);
}
);
width = 500;
},
{
layerId = "A54B81DC-5EE9-468E-87D3-6F4C184F83A3";
paths = (
{
closed = 1;
nodes = (
"267 281 LINE",
"267 620 LINE",
"435 620 LINE",
"435 500 LINE",
"535 500 LINE",
"535 566 LINE SMOOTH",
"535 590 OFFCURVE",
"529 606 OFFCURVE",
"509 626 CURVE SMOOTH",
"458 677 LINE SMOOTH",
"439 696 OFFCURVE",
"428 700 OFFCURVE",
"406 700 CURVE SMOOTH",
"291 700 LINE SMOOTH",
"269 700 OFFCURVE",
"253 691 OFFCURVE",
"240 676 CURVE SMOOTH",
"193 620 LINE SMOOTH",
"179 604 OFFCURVE",
"170 587 OFFCURVE",
"170 563 CURVE SMOOTH",
"170 281 LINE"
);
},
{
closed = 1;
nodes = (
"319 -200 LINE SMOOTH",
"341 -200 OFFCURVE",
"352 -195 OFFCURVE",
"371 -177 CURVE SMOOTH",
"424 -126 LINE SMOOTH",
"444 -107 OFFCURVE",
"450 -90 OFFCURVE",
"450 -66 CURVE SMOOTH",
"450 81 LINE",
"353 81 LINE",
"353 -116 LINE",
"152 -116 LINE",
"152 0 LINE",
"52 0 LINE",
"52 -66 LINE SMOOTH",
"52 -90 OFFCURVE",
"58 -106 OFFCURVE",
"78 -126 CURVE SMOOTH",
"129 -177 LINE SMOOTH",
"148 -196 OFFCURVE",
"159 -200 OFFCURVE",
"181 -200 CURVE SMOOTH"
);
},
{
closed = 1;
nodes = (
"453 281 LINE",
"550 281 LINE",
"550 362 LINE",
"172 362 LINE",
"172 281 LINE"
);
}
);
width = 500;
}
);
unicode = 0053;
},
{
glyphname = T;
lastChange = "2021-12-17 19:17:19 +0000";
layers = (
{
layerId = "A4C12FFD-F5F6-42D6-8363-6D796F05C5E8";
paths = (
{
closed = 1;
nodes = (
"220 0 LINE",
"320 0 LINE",
"320 281 LINE",
"220 281 LINE"
);
},
{
closed = 1;
nodes = (
"50 610 LINE",
"490 610 LINE",
"490 700 LINE",
"50 700 LINE"
);
},
{
closed = 1;
nodes = (
"320 700 LINE",
"220 700 LINE",
"220 281 LINE",
"320 281 LINE"
);
}
);
width = 540;
},
{
layerId = "38E81DE9-8F9C-4A79-BC09-6CE2D0CDAB48";
paths = (
{
closed = 1;
nodes = (
"220 0 LINE",
"320 0 LINE",
"320 281 LINE",
"220 281 LINE"
);
},
{
closed = 1;
nodes = (
"150 610 LINE",
"590 610 LINE",
"590 700 LINE",
"150 700 LINE"
);
},
{
closed = 1;
nodes = (
"420 700 LINE",
"320 700 LINE",
"320 281 LINE",
"420 281 LINE"
);
}
);
width = 540;
},
{
layerId = "779467A8-E68B-4D04-BE8F-984748AF222C";
paths = (
{
closed = 1;
nodes = (
"220 0 LINE",
"320 0 LINE",
"320 281 LINE",
"220 281 LINE"
);
},
{
closed = 1;
nodes = (
"250 610 LINE",
"690 610 LINE",
"690 700 LINE",
"250 700 LINE"
);
},
{
closed = 1;
nodes = (
"520 700 LINE",
"420 700 LINE",
"420 281 LINE",
"520 281 LINE"
);
}
);
width = 540;
},
{
layerId = "4170F2C3-ADB0-4204-BA3B-87919679734A";
paths = (
{
closed = 1;
nodes = (
"220 0 LINE",
"320 0 LINE",
"320 281 LINE",
"220 281 LINE"
);
},
{
closed = 1;
nodes = (
"-150 610 LINE",
"290 610 LINE",
"290 700 LINE",
"-150 700 LINE"
);
},
{
closed = 1;
nodes = (
"120 700 LINE",
"20 700 LINE",
"20 281 LINE",
"120 281 LINE"
);
}
);
width = 540;
},
{
layerId = "0C2EA0A7-CF3D-43DE-A1B1-20537ED6286F";
paths = (
{
closed = 1;
nodes = (
"220 0 LINE",
"320 0 LINE",
"320 281 LINE",
"220 281 LINE"
);
},
{
closed = 1;
nodes = (
"50 810 LINE",
"490 810 LINE",
"490 900 LINE",
"50 900 LINE"
);
},
{
closed = 1;
nodes = (
"320 900 LINE",
"220 900 LINE",
"220 481 LINE",
"320 481 LINE"
);
}
);
width = 540;
},
{
layerId = "E46B3A3C-F4DE-4A6E-B6C3-4FEA9D5321E0";
paths = (
{
closed = 1;
nodes = (
"220 0 LINE",
"320 0 LINE",
"320 281 LINE",
"220 281 LINE"
);
},
{
closed = 1;
nodes = (
"250 810 LINE",
"690 810 LINE",
"690 900 LINE",
"250 900 LINE"
);
},
{
closed = 1;
nodes = (
"520 900 LINE",
"420 900 LINE",
"420 481 LINE",
"520 481 LINE"
);
}
);
width = 540;
},
{
layerId = "5FCFDAD1-644A-4B50-89F3-850EB8161FE9";
paths = (
{
closed = 1;
nodes = (
"220 0 LINE",
"320 0 LINE",
"320 281 LINE",
"220 281 LINE"
);
},
{
closed = 1;
nodes = (
"-150 810 LINE",
"290 810 LINE",
"290 900 LINE",
"-150 900 LINE"
);
},
{
closed = 1;
nodes = (
"120 900 LINE",
"20 900 LINE",
"20 481 LINE",
"120 481 LINE"
);
}
);
width = 540;
},
{
layerId = "A54B81DC-5EE9-468E-87D3-6F4C184F83A3";
paths = (
{
closed = 1;
nodes = (
"220 0 LINE",
"320 0 LINE",
"320 281 LINE",
"220 281 LINE"
);
},
{
closed = 1;
nodes = (
"150 810 LINE",
"590 810 LINE",
"590 900 LINE",
"150 900 LINE"
);
},
{
closed = 1;
nodes = (
"420 900 LINE",
"320 900 LINE",
"320 481 LINE",
"420 481 LINE"
);
}
);
width = 540;
}
);
unicode = 0054;
},
{
glyphname = U;
lastChange = "2021-12-17 19:08:13 +0000";
layers = (
{
layerId = "A4C12FFD-F5F6-42D6-8363-6D796F05C5E8";
paths = (
{
closed = 1;
nodes = (
"50 700 LINE",
"150 700 LINE",
"150 281 LINE",
"50 281 LINE"
);
},
{
closed = 1;
nodes = (
"350 700 LINE",
"450 700 LINE",
"450 281 LINE",
"350 281 LINE"
);
},
{
closed = 1;
nodes = (
"450 134 LINE SMOOTH",
"450 110 OFFCURVE",
"441 96 OFFCURVE",
"423 75 CURVE SMOOTH",
"380 24 LINE SMOOTH",
"363 4 OFFCURVE",
"351 0 OFFCURVE",
"329 0 CURVE SMOOTH",
"171 0 LINE SMOOTH",
"149 0 OFFCURVE",
"137 4 OFFCURVE",
"120 24 CURVE SMOOTH",
"77 75 LINE SMOOTH",
"59 96 OFFCURVE",
"50 110 OFFCURVE",
"50 134 CURVE SMOOTH",
"50 281 LINE",
"150 281 LINE",
"150 90 LINE",
"350 90 LINE",
"350 281 LINE",
"450 281 LINE"
);
}
);
width = 500;
},
{
layerId = "38E81DE9-8F9C-4A79-BC09-6CE2D0CDAB48";
paths = (
{
closed = 1;
nodes = (
"150 700 LINE",
"250 700 LINE",
"250 281 LINE",
"150 281 LINE"
);
},
{
closed = 1;
nodes = (
"450 700 LINE",
"550 700 LINE",
"550 281 LINE",
"450 281 LINE"
);
},
{
closed = 1;
nodes = (
"450 134 LINE SMOOTH",
"450 110 OFFCURVE",
"441 96 OFFCURVE",
"423 75 CURVE SMOOTH",
"380 24 LINE SMOOTH",
"363 4 OFFCURVE",
"351 0 OFFCURVE",
"329 0 CURVE SMOOTH",
"171 0 LINE SMOOTH",
"149 0 OFFCURVE",
"137 4 OFFCURVE",
"120 24 CURVE SMOOTH",
"77 75 LINE SMOOTH",
"59 96 OFFCURVE",
"50 110 OFFCURVE",
"50 134 CURVE SMOOTH",
"50 281 LINE",
"150 281 LINE",
"150 90 LINE",
"350 90 LINE",
"350 281 LINE",
"450 281 LINE"
);
}
);
width = 500;
},
{
layerId = "779467A8-E68B-4D04-BE8F-984748AF222C";
paths = (
{
closed = 1;
nodes = (
"250 700 LINE",
"350 700 LINE",
"350 281 LINE",
"250 281 LINE"
);
},
{
closed = 1;
nodes = (
"550 700 LINE",
"650 700 LINE",
"650 281 LINE",
"550 281 LINE"
);
},
{
closed = 1;
nodes = (
"450 134 LINE SMOOTH",
"450 110 OFFCURVE",
"441 96 OFFCURVE",
"423 75 CURVE SMOOTH",
"380 24 LINE SMOOTH",
"363 4 OFFCURVE",
"351 0 OFFCURVE",
"329 0 CURVE SMOOTH",
"171 0 LINE SMOOTH",
"149 0 OFFCURVE",
"137 4 OFFCURVE",
"120 24 CURVE SMOOTH",
"77 75 LINE SMOOTH",
"59 96 OFFCURVE",
"50 110 OFFCURVE",
"50 134 CURVE SMOOTH",
"50 281 LINE",
"150 281 LINE",
"150 90 LINE",
"350 90 LINE",
"350 281 LINE",
"450 281 LINE"
);
}
);
width = 500;
},
{
layerId = "4170F2C3-ADB0-4204-BA3B-87919679734A";
paths = (
{
closed = 1;
nodes = (
"-150 700 LINE",
"-50 700 LINE",
"-50 281 LINE",
"-150 281 LINE"
);
},
{
closed = 1;
nodes = (
"150 700 LINE",
"250 700 LINE",
"250 281 LINE",
"150 281 LINE"
);
},
{
closed = 1;
nodes = (
"450 134 LINE SMOOTH",
"450 110 OFFCURVE",
"441 96 OFFCURVE",
"423 75 CURVE SMOOTH",
"380 24 LINE SMOOTH",
"363 4 OFFCURVE",
"351 0 OFFCURVE",
"329 0 CURVE SMOOTH",
"171 0 LINE SMOOTH",
"149 0 OFFCURVE",
"137 4 OFFCURVE",
"120 24 CURVE SMOOTH",
"77 75 LINE SMOOTH",
"59 96 OFFCURVE",
"50 110 OFFCURVE",
"50 134 CURVE SMOOTH",
"50 281 LINE",
"150 281 LINE",
"150 90 LINE",
"350 90 LINE",
"350 281 LINE",
"450 281 LINE"
);
}
);
width = 500;
},
{
layerId = "0C2EA0A7-CF3D-43DE-A1B1-20537ED6286F";
paths = (
{
closed = 1;
nodes = (
"50 700 LINE",
"150 700 LINE",
"150 281 LINE",
"50 281 LINE"
);
},
{
closed = 1;
nodes = (
"350 700 LINE",
"450 700 LINE",
"450 281 LINE",
"350 281 LINE"
);
},
{
closed = 1;
nodes = (
"450 -66 LINE SMOOTH",
"450 -90 OFFCURVE",
"441 -104 OFFCURVE",
"423 -125 CURVE SMOOTH",
"380 -176 LINE SMOOTH",
"363 -196 OFFCURVE",
"351 -200 OFFCURVE",
"329 -200 CURVE SMOOTH",
"171 -200 LINE SMOOTH",
"149 -200 OFFCURVE",
"137 -196 OFFCURVE",
"120 -176 CURVE SMOOTH",
"77 -125 LINE SMOOTH",
"59 -104 OFFCURVE",
"50 -90 OFFCURVE",
"50 -66 CURVE SMOOTH",
"50 81 LINE",
"150 81 LINE",
"150 -110 LINE",
"350 -110 LINE",
"350 81 LINE",
"450 81 LINE"
);
}
);
width = 500;
},
{
layerId = "E46B3A3C-F4DE-4A6E-B6C3-4FEA9D5321E0";
paths = (
{
closed = 1;
nodes = (
"250 700 LINE",
"350 700 LINE",
"350 281 LINE",
"250 281 LINE"
);
},
{
closed = 1;
nodes = (
"550 700 LINE",
"650 700 LINE",
"650 281 LINE",
"550 281 LINE"
);
},
{
closed = 1;
nodes = (
"450 -66 LINE SMOOTH",
"450 -90 OFFCURVE",
"441 -104 OFFCURVE",
"423 -125 CURVE SMOOTH",
"380 -176 LINE SMOOTH",
"363 -196 OFFCURVE",
"351 -200 OFFCURVE",
"329 -200 CURVE SMOOTH",
"171 -200 LINE SMOOTH",
"149 -200 OFFCURVE",
"137 -196 OFFCURVE",
"120 -176 CURVE SMOOTH",
"77 -125 LINE SMOOTH",
"59 -104 OFFCURVE",
"50 -90 OFFCURVE",
"50 -66 CURVE SMOOTH",
"50 81 LINE",
"150 81 LINE",
"150 -110 LINE",
"350 -110 LINE",
"350 81 LINE",
"450 81 LINE"
);
}
);
width = 500;
},
{
layerId = "5FCFDAD1-644A-4B50-89F3-850EB8161FE9";
paths = (
{
closed = 1;
nodes = (
"-150 700 LINE",
"-50 700 LINE",
"-50 281 LINE",
"-150 281 LINE"
);
},
{
closed = 1;
nodes = (
"150 700 LINE",
"250 700 LINE",
"250 281 LINE",
"150 281 LINE"
);
},
{
closed = 1;
nodes = (
"450 -66 LINE SMOOTH",
"450 -90 OFFCURVE",
"441 -104 OFFCURVE",
"423 -125 CURVE SMOOTH",
"380 -176 LINE SMOOTH",
"363 -196 OFFCURVE",
"351 -200 OFFCURVE",
"329 -200 CURVE SMOOTH",
"171 -200 LINE SMOOTH",
"149 -200 OFFCURVE",
"137 -196 OFFCURVE",
"120 -176 CURVE SMOOTH",
"77 -125 LINE SMOOTH",
"59 -104 OFFCURVE",
"50 -90 OFFCURVE",
"50 -66 CURVE SMOOTH",
"50 81 LINE",
"150 81 LINE",
"150 -110 LINE",
"350 -110 LINE",
"350 81 LINE",
"450 81 LINE"
);
}
);
width = 500;
},
{
layerId = "A54B81DC-5EE9-468E-87D3-6F4C184F83A3";
paths = (
{
closed = 1;
nodes = (
"150 700 LINE",
"250 700 LINE",
"250 281 LINE",
"150 281 LINE"
);
},
{
closed = 1;
nodes = (
"450 700 LINE",
"550 700 LINE",
"550 281 LINE",
"450 281 LINE"
);
},
{
closed = 1;
nodes = (
"450 -66 LINE SMOOTH",
"450 -90 OFFCURVE",
"441 -104 OFFCURVE",
"423 -125 CURVE SMOOTH",
"380 -176 LINE SMOOTH",
"363 -196 OFFCURVE",
"351 -200 OFFCURVE",
"329 -200 CURVE SMOOTH",
"171 -200 LINE SMOOTH",
"149 -200 OFFCURVE",
"137 -196 OFFCURVE",
"120 -176 CURVE SMOOTH",
"77 -125 LINE SMOOTH",
"59 -104 OFFCURVE",
"50 -90 OFFCURVE",
"50 -66 CURVE SMOOTH",
"50 81 LINE",
"150 81 LINE",
"150 -110 LINE",
"350 -110 LINE",
"350 81 LINE",
"450 81 LINE"
);
}
);
width = 500;
}
);
unicode = 0055;
},
{
glyphname = V;
lastChange = "2021-12-17 19:08:13 +0000";
layers = (
{
layerId = "A4C12FFD-F5F6-42D6-8363-6D796F05C5E8";
paths = (
{
closed = 1;
nodes = (
"330 93 LINE",
"150 93 LINE",
"150 281 LINE",
"50 281 LINE",
"50 164 LINE SMOOTH",
"50 140 OFFCURVE",
"58 122 OFFCURVE",
"77 105 CURVE SMOOTH",
"163 24 LINE SMOOTH",
"182 7 OFFCURVE",
"192 0 OFFCURVE",
"214 0 CURVE SMOOTH",
"266 0 LINE SMOOTH",
"288 0 OFFCURVE",
"298 7 OFFCURVE",
"317 24 CURVE SMOOTH",
"403 105 LINE SMOOTH",
"422 122 OFFCURVE",
"430 140 OFFCURVE",
"430 164 CURVE SMOOTH",
"430 281 LINE",
"330 281 LINE"
);
},
{
closed = 1;
nodes = (
"150 700 LINE",
"50 700 LINE",
"50 281 LINE",
"150 281 LINE"
);
},
{
closed = 1;
nodes = (
"430 700 LINE",
"330 700 LINE",
"330 281 LINE",
"430 281 LINE"
);
}
);
width = 480;
},
{
layerId = "38E81DE9-8F9C-4A79-BC09-6CE2D0CDAB48";
paths = (
{
closed = 1;
nodes = (
"330 93 LINE",
"150 93 LINE",
"150 281 LINE",
"50 281 LINE",
"50 164 LINE SMOOTH",
"50 140 OFFCURVE",
"58 122 OFFCURVE",
"77 105 CURVE SMOOTH",
"163 24 LINE SMOOTH",
"182 7 OFFCURVE",
"192 0 OFFCURVE",
"214 0 CURVE SMOOTH",
"266 0 LINE SMOOTH",
"288 0 OFFCURVE",
"298 7 OFFCURVE",
"317 24 CURVE SMOOTH",
"403 105 LINE SMOOTH",
"422 122 OFFCURVE",
"430 140 OFFCURVE",
"430 164 CURVE SMOOTH",
"430 281 LINE",
"330 281 LINE"
);
},
{
closed = 1;
nodes = (
"250 700 LINE",
"150 700 LINE",
"150 281 LINE",
"250 281 LINE"
);
},
{
closed = 1;
nodes = (
"530 700 LINE",
"430 700 LINE",
"430 281 LINE",
"530 281 LINE"
);
}
);
width = 480;
},
{
layerId = "779467A8-E68B-4D04-BE8F-984748AF222C";
paths = (
{
closed = 1;
nodes = (
"330 93 LINE",
"150 93 LINE",
"150 281 LINE",
"50 281 LINE",
"50 164 LINE SMOOTH",
"50 140 OFFCURVE",
"58 122 OFFCURVE",
"77 105 CURVE SMOOTH",
"163 24 LINE SMOOTH",
"182 7 OFFCURVE",
"192 0 OFFCURVE",
"214 0 CURVE SMOOTH",
"266 0 LINE SMOOTH",
"288 0 OFFCURVE",
"298 7 OFFCURVE",
"317 24 CURVE SMOOTH",
"403 105 LINE SMOOTH",
"422 122 OFFCURVE",
"430 140 OFFCURVE",
"430 164 CURVE SMOOTH",
"430 281 LINE",
"330 281 LINE"
);
},
{
closed = 1;
nodes = (
"330 700 LINE",
"230 700 LINE",
"230 281 LINE",
"330 281 LINE"
);
},
{
closed = 1;
nodes = (
"630 700 LINE",
"530 700 LINE",
"530 281 LINE",
"630 281 LINE"
);
}
);
width = 480;
},
{
layerId = "4170F2C3-ADB0-4204-BA3B-87919679734A";
paths = (
{
closed = 1;
nodes = (
"330 93 LINE",
"150 93 LINE",
"150 281 LINE",
"50 281 LINE",
"50 164 LINE SMOOTH",
"50 140 OFFCURVE",
"58 122 OFFCURVE",
"77 105 CURVE SMOOTH",
"163 24 LINE SMOOTH",
"182 7 OFFCURVE",
"192 0 OFFCURVE",
"214 0 CURVE SMOOTH",
"266 0 LINE SMOOTH",
"288 0 OFFCURVE",
"298 7 OFFCURVE",
"317 24 CURVE SMOOTH",
"403 105 LINE SMOOTH",
"422 122 OFFCURVE",
"430 140 OFFCURVE",
"430 164 CURVE SMOOTH",
"430 281 LINE",
"330 281 LINE"
);
},
{
closed = 1;
nodes = (
"-50 700 LINE",
"-150 700 LINE",
"-150 281 LINE",
"-50 281 LINE"
);
},
{
closed = 1;
nodes = (
"250 700 LINE",
"150 700 LINE",
"150 281 LINE",
"250 281 LINE"
);
}
);
width = 480;
},
{
layerId = "0C2EA0A7-CF3D-43DE-A1B1-20537ED6286F";
paths = (
{
closed = 1;
nodes = (
"330 -107 LINE",
"150 -107 LINE",
"150 81 LINE",
"50 81 LINE",
"50 -36 LINE SMOOTH",
"50 -60 OFFCURVE",
"58 -78 OFFCURVE",
"77 -95 CURVE SMOOTH",
"163 -176 LINE SMOOTH",
"182 -193 OFFCURVE",
"192 -200 OFFCURVE",
"214 -200 CURVE SMOOTH",
"266 -200 LINE SMOOTH",
"288 -200 OFFCURVE",
"298 -193 OFFCURVE",
"317 -176 CURVE SMOOTH",
"403 -95 LINE SMOOTH",
"422 -78 OFFCURVE",
"430 -60 OFFCURVE",
"430 -36 CURVE SMOOTH",
"430 81 LINE",
"330 81 LINE"
);
},
{
closed = 1;
nodes = (
"150 700 LINE",
"50 700 LINE",
"50 281 LINE",
"150 281 LINE"
);
},
{
closed = 1;
nodes = (
"430 700 LINE",
"330 700 LINE",
"330 281 LINE",
"430 281 LINE"
);
}
);
width = 480;
},
{
layerId = "E46B3A3C-F4DE-4A6E-B6C3-4FEA9D5321E0";
paths = (
{
closed = 1;
nodes = (
"330 -107 LINE",
"150 -107 LINE",
"150 81 LINE",
"50 81 LINE",
"50 -36 LINE SMOOTH",
"50 -60 OFFCURVE",
"58 -78 OFFCURVE",
"77 -95 CURVE SMOOTH",
"163 -176 LINE SMOOTH",
"182 -193 OFFCURVE",
"192 -200 OFFCURVE",
"214 -200 CURVE SMOOTH",
"266 -200 LINE SMOOTH",
"288 -200 OFFCURVE",
"298 -193 OFFCURVE",
"317 -176 CURVE SMOOTH",
"403 -95 LINE SMOOTH",
"422 -78 OFFCURVE",
"430 -60 OFFCURVE",
"430 -36 CURVE SMOOTH",
"430 81 LINE",
"330 81 LINE"
);
},
{
closed = 1;
nodes = (
"330 700 LINE",
"230 700 LINE",
"230 281 LINE",
"330 281 LINE"
);
},
{
closed = 1;
nodes = (
"630 700 LINE",
"530 700 LINE",
"530 281 LINE",
"630 281 LINE"
);
}
);
width = 480;
},
{
layerId = "5FCFDAD1-644A-4B50-89F3-850EB8161FE9";
paths = (
{
closed = 1;
nodes = (
"330 -107 LINE",
"150 -107 LINE",
"150 81 LINE",
"50 81 LINE",
"50 -36 LINE SMOOTH",
"50 -60 OFFCURVE",
"58 -78 OFFCURVE",
"77 -95 CURVE SMOOTH",
"163 -176 LINE SMOOTH",
"182 -193 OFFCURVE",
"192 -200 OFFCURVE",
"214 -200 CURVE SMOOTH",
"266 -200 LINE SMOOTH",
"288 -200 OFFCURVE",
"298 -193 OFFCURVE",
"317 -176 CURVE SMOOTH",
"403 -95 LINE SMOOTH",
"422 -78 OFFCURVE",
"430 -60 OFFCURVE",
"430 -36 CURVE SMOOTH",
"430 81 LINE",
"330 81 LINE"
);
},
{
closed = 1;
nodes = (
"-30 700 LINE",
"-130 700 LINE",
"-130 281 LINE",
"-30 281 LINE"
);
},
{
closed = 1;
nodes = (
"230 700 LINE",
"130 700 LINE",
"130 281 LINE",
"230 281 LINE"
);
}
);
width = 480;
},
{
layerId = "A54B81DC-5EE9-468E-87D3-6F4C184F83A3";
paths = (
{
closed = 1;
nodes = (
"330 -107 LINE",
"150 -107 LINE",
"150 81 LINE",
"50 81 LINE",
"50 -36 LINE SMOOTH",
"50 -60 OFFCURVE",
"58 -78 OFFCURVE",
"77 -95 CURVE SMOOTH",
"163 -176 LINE SMOOTH",
"182 -193 OFFCURVE",
"192 -200 OFFCURVE",
"214 -200 CURVE SMOOTH",
"266 -200 LINE SMOOTH",
"288 -200 OFFCURVE",
"298 -193 OFFCURVE",
"317 -176 CURVE SMOOTH",
"403 -95 LINE SMOOTH",
"422 -78 OFFCURVE",
"430 -60 OFFCURVE",
"430 -36 CURVE SMOOTH",
"430 81 LINE",
"330 81 LINE"
);
},
{
closed = 1;
nodes = (
"240 700 LINE",
"140 700 LINE",
"140 281 LINE",
"240 281 LINE"
);
},
{
closed = 1;
nodes = (
"530 700 LINE",
"430 700 LINE",
"430 281 LINE",
"530 281 LINE"
);
}
);
width = 480;
}
);
unicode = 0056;
},
{
glyphname = W;
lastChange = "2021-12-17 19:08:13 +0000";
layers = (
{
layerId = "A4C12FFD-F5F6-42D6-8363-6D796F05C5E8";
paths = (
{
closed = 1;
nodes = (
"379 0 LINE SMOOTH",
"401 0 OFFCURVE",
"417 9 OFFCURVE",
"430 24 CURVE SMOOTH",
"488 89 LINE SMOOTH",
"501 104 OFFCURVE",
"510 121 OFFCURVE",
"510 152 CURVE SMOOTH",
"510 281 LINE",
"410 281 LINE",
"410 80 LINE",
"150 80 LINE",
"150 281 LINE",
"50 281 LINE",
"50 152 LINE SMOOTH",
"50 121 OFFCURVE",
"59 104 OFFCURVE",
"72 89 CURVE SMOOTH",
"130 24 LINE SMOOTH",
"143 9 OFFCURVE",
"162 0 OFFCURVE",
"179 0 CURVE SMOOTH"
);
},
{
closed = 1;
nodes = (
"324 20 LINE",
"324 281 LINE",
"235 281 LINE",
"235 20 LINE"
);
},
{
closed = 1;
nodes = (
"150 281 LINE",
"150 700 LINE",
"50 700 LINE",
"50 281 LINE"
);
},
{
closed = 1;
nodes = (
"324 281 LINE",
"324 700 LINE",
"236 700 LINE",
"235 281 LINE"
);
},
{
closed = 1;
nodes = (
"510 281 LINE",
"510 700 LINE",
"410 700 LINE",
"410 281 LINE"
);
}
);
width = 560;
},
{
layerId = "38E81DE9-8F9C-4A79-BC09-6CE2D0CDAB48";
paths = (
{
closed = 1;
nodes = (
"379 0 LINE SMOOTH",
"401 0 OFFCURVE",
"417 9 OFFCURVE",
"430 24 CURVE SMOOTH",
"488 89 LINE SMOOTH",
"501 104 OFFCURVE",
"510 121 OFFCURVE",
"510 152 CURVE SMOOTH",
"510 281 LINE",
"410 281 LINE",
"410 80 LINE",
"150 80 LINE",
"150 281 LINE",
"50 281 LINE",
"50 152 LINE SMOOTH",
"50 121 OFFCURVE",
"59 104 OFFCURVE",
"72 89 CURVE SMOOTH",
"130 24 LINE SMOOTH",
"143 9 OFFCURVE",
"162 0 OFFCURVE",
"179 0 CURVE SMOOTH"
);
},
{
closed = 1;
nodes = (
"324 20 LINE",
"324 281 LINE",
"235 281 LINE",
"235 20 LINE"
);
},
{
closed = 1;
nodes = (
"235 281 LINE",
"235 700 LINE",
"150 700 LINE",
"150 281 LINE"
);
},
{
closed = 1;
nodes = (
"410 281 LINE",
"410 700 LINE",
"326 700 LINE",
"325 281 LINE"
);
},
{
closed = 1;
nodes = (
"610 281 LINE",
"610 700 LINE",
"510 700 LINE",
"510 281 LINE"
);
}
);
width = 560;
},
{
layerId = "779467A8-E68B-4D04-BE8F-984748AF222C";
paths = (
{
closed = 1;
nodes = (
"379 0 LINE SMOOTH",
"401 0 OFFCURVE",
"417 9 OFFCURVE",
"430 24 CURVE SMOOTH",
"488 89 LINE SMOOTH",
"501 104 OFFCURVE",
"510 121 OFFCURVE",
"510 152 CURVE SMOOTH",
"510 281 LINE",
"410 281 LINE",
"410 80 LINE",
"150 80 LINE",
"150 281 LINE",
"50 281 LINE",
"50 152 LINE SMOOTH",
"50 121 OFFCURVE",
"59 104 OFFCURVE",
"72 89 CURVE SMOOTH",
"130 24 LINE SMOOTH",
"143 9 OFFCURVE",
"162 0 OFFCURVE",
"179 0 CURVE SMOOTH"
);
},
{
closed = 1;
nodes = (
"324 20 LINE",
"324 281 LINE",
"235 281 LINE",
"235 20 LINE"
);
},
{
closed = 1;
nodes = (
"324 281 LINE",
"324 700 LINE",
"235 700 LINE",
"235 281 LINE"
);
},
{
closed = 1;
nodes = (
"510 281 LINE",
"510 700 LINE",
"411 700 LINE",
"410 281 LINE"
);
},
{
closed = 1;
nodes = (
"710 281 LINE",
"710 700 LINE",
"610 700 LINE",
"610 281 LINE"
);
}
);
width = 560;
},
{
layerId = "4170F2C3-ADB0-4204-BA3B-87919679734A";
paths = (
{
closed = 1;
nodes = (
"379 0 LINE SMOOTH",
"401 0 OFFCURVE",
"417 9 OFFCURVE",
"430 24 CURVE SMOOTH",
"488 89 LINE SMOOTH",
"501 104 OFFCURVE",
"510 121 OFFCURVE",
"510 152 CURVE SMOOTH",
"510 281 LINE",
"410 281 LINE",
"410 80 LINE",
"150 80 LINE",
"150 281 LINE",
"50 281 LINE",
"50 152 LINE SMOOTH",
"50 121 OFFCURVE",
"59 104 OFFCURVE",
"72 89 CURVE SMOOTH",
"130 24 LINE SMOOTH",
"143 9 OFFCURVE",
"162 0 OFFCURVE",
"179 0 CURVE SMOOTH"
);
},
{
closed = 1;
nodes = (
"324 20 LINE",
"324 281 LINE",
"235 281 LINE",
"235 20 LINE"
);
},
{
closed = 1;
nodes = (
"-50 281 LINE",
"-50 700 LINE",
"-150 700 LINE",
"-150 281 LINE"
);
},
{
closed = 1;
nodes = (
"150 281 LINE",
"149 700 LINE",
"50 700 LINE",
"50 281 LINE"
);
},
{
closed = 1;
nodes = (
"324 281 LINE",
"324 700 LINE",
"235 700 LINE",
"235 281 LINE"
);
}
);
width = 560;
},
{
layerId = "0C2EA0A7-CF3D-43DE-A1B1-20537ED6286F";
paths = (
{
closed = 1;
nodes = (
"379 0 LINE SMOOTH",
"401 0 OFFCURVE",
"417 9 OFFCURVE",
"430 24 CURVE SMOOTH",
"488 89 LINE SMOOTH",
"501 104 OFFCURVE",
"510 121 OFFCURVE",
"510 152 CURVE SMOOTH",
"510 281 LINE",
"410 281 LINE",
"410 80 LINE",
"150 80 LINE",
"150 281 LINE",
"50 281 LINE",
"50 152 LINE SMOOTH",
"50 121 OFFCURVE",
"59 104 OFFCURVE",
"72 89 CURVE SMOOTH",
"130 24 LINE SMOOTH",
"143 9 OFFCURVE",
"162 0 OFFCURVE",
"179 0 CURVE SMOOTH"
);
},
{
closed = 1;
nodes = (
"324 20 LINE",
"324 281 LINE",
"235 281 LINE",
"235 20 LINE"
);
},
{
closed = 1;
nodes = (
"150 481 LINE",
"150 900 LINE",
"50 900 LINE",
"50 481 LINE"
);
},
{
closed = 1;
nodes = (
"324 481 LINE",
"324 900 LINE",
"236 900 LINE",
"235 481 LINE"
);
},
{
closed = 1;
nodes = (
"510 481 LINE",
"510 900 LINE",
"410 900 LINE",
"410 481 LINE"
);
}
);
width = 560;
},
{
layerId = "E46B3A3C-F4DE-4A6E-B6C3-4FEA9D5321E0";
paths = (
{
closed = 1;
nodes = (
"379 0 LINE SMOOTH",
"401 0 OFFCURVE",
"417 9 OFFCURVE",
"430 24 CURVE SMOOTH",
"488 89 LINE SMOOTH",
"501 104 OFFCURVE",
"510 121 OFFCURVE",
"510 152 CURVE SMOOTH",
"510 281 LINE",
"410 281 LINE",
"410 80 LINE",
"150 80 LINE",
"150 281 LINE",
"50 281 LINE",
"50 152 LINE SMOOTH",
"50 121 OFFCURVE",
"59 104 OFFCURVE",
"72 89 CURVE SMOOTH",
"130 24 LINE SMOOTH",
"143 9 OFFCURVE",
"162 0 OFFCURVE",
"179 0 CURVE SMOOTH"
);
},
{
closed = 1;
nodes = (
"324 20 LINE",
"324 281 LINE",
"235 281 LINE",
"235 20 LINE"
);
},
{
closed = 1;
nodes = (
"324 481 LINE",
"324 900 LINE",
"235 900 LINE",
"235 481 LINE"
);
},
{
closed = 1;
nodes = (
"510 481 LINE",
"510 900 LINE",
"411 900 LINE",
"410 481 LINE"
);
},
{
closed = 1;
nodes = (
"710 481 LINE",
"710 900 LINE",
"610 900 LINE",
"610 481 LINE"
);
}
);
width = 560;
},
{
layerId = "5FCFDAD1-644A-4B50-89F3-850EB8161FE9";
paths = (
{
closed = 1;
nodes = (
"379 0 LINE SMOOTH",
"401 0 OFFCURVE",
"417 9 OFFCURVE",
"430 24 CURVE SMOOTH",
"488 89 LINE SMOOTH",
"501 104 OFFCURVE",
"510 121 OFFCURVE",
"510 152 CURVE SMOOTH",
"510 281 LINE",
"410 281 LINE",
"410 80 LINE",
"150 80 LINE",
"150 281 LINE",
"50 281 LINE",
"50 152 LINE SMOOTH",
"50 121 OFFCURVE",
"59 104 OFFCURVE",
"72 89 CURVE SMOOTH",
"130 24 LINE SMOOTH",
"143 9 OFFCURVE",
"162 0 OFFCURVE",
"179 0 CURVE SMOOTH"
);
},
{
closed = 1;
nodes = (
"324 20 LINE",
"324 281 LINE",
"235 281 LINE",
"235 20 LINE"
);
},
{
closed = 1;
nodes = (
"-24 481 LINE",
"-24 900 LINE",
"-135 900 LINE",
"-135 481 LINE"
);
},
{
closed = 1;
nodes = (
"138 481 LINE",
"138 900 LINE",
"61 900 LINE",
"60 481 LINE"
);
},
{
closed = 1;
nodes = (
"310 481 LINE",
"310 900 LINE",
"210 900 LINE",
"210 481 LINE"
);
}
);
width = 560;
},
{
layerId = "A54B81DC-5EE9-468E-87D3-6F4C184F83A3";
paths = (
{
closed = 1;
nodes = (
"379 0 LINE SMOOTH",
"401 0 OFFCURVE",
"417 9 OFFCURVE",
"430 24 CURVE SMOOTH",
"488 89 LINE SMOOTH",
"501 104 OFFCURVE",
"510 121 OFFCURVE",
"510 152 CURVE SMOOTH",
"510 281 LINE",
"410 281 LINE",
"410 80 LINE",
"150 80 LINE",
"150 281 LINE",
"50 281 LINE",
"50 152 LINE SMOOTH",
"50 121 OFFCURVE",
"59 104 OFFCURVE",
"72 89 CURVE SMOOTH",
"130 24 LINE SMOOTH",
"143 9 OFFCURVE",
"162 0 OFFCURVE",
"179 0 CURVE SMOOTH"
);
},
{
closed = 1;
nodes = (
"324 20 LINE",
"324 281 LINE",
"235 281 LINE",
"235 20 LINE"
);
},
{
closed = 1;
nodes = (
"237 481 LINE",
"237 900 LINE",
"143 900 LINE",
"143 481 LINE"
);
},
{
closed = 1;
nodes = (
"417 481 LINE",
"417 900 LINE",
"324 900 LINE",
"323 481 LINE"
);
},
{
closed = 1;
nodes = (
"610 481 LINE",
"610 900 LINE",
"510 900 LINE",
"510 481 LINE"
);
}
);
width = 560;
}
);
unicode = 0057;
},
{
glyphname = X;
lastChange = "2021-12-17 19:08:13 +0000";
layers = (
{
layerId = "A4C12FFD-F5F6-42D6-8363-6D796F05C5E8";
paths = (
{
closed = 1;
nodes = (
"150 444 LINE",
"150 700 LINE",
"50 700 LINE",
"50 515 LINE SMOOTH",
"50 491 OFFCURVE",
"58 473 OFFCURVE",
"77 456 CURVE SMOOTH",
"163 375 LINE SMOOTH",
"182 358 OFFCURVE",
"189 361 OFFCURVE",
"211 361 CURVE SMOOTH",
"289 361 LINE SMOOTH",
"311 361 OFFCURVE",
"318 358 OFFCURVE",
"337 375 CURVE SMOOTH",
"423 456 LINE SMOOTH",
"442 473 OFFCURVE",
"450 491 OFFCURVE",
"450 515 CURVE SMOOTH",
"450 700 LINE",
"350 700 LINE",
"350 444 LINE"
);
},
{
closed = 1;
nodes = (
"50 0 LINE",
"150 0 LINE",
"150 281 LINE",
"50 281 LINE"
);
},
{
closed = 1;
nodes = (
"350 0 LINE",
"450 0 LINE",
"450 281 LINE",
"350 281 LINE"
);
},
{
closed = 1;
nodes = (
"450 287 LINE SMOOTH",
"450 311 OFFCURVE",
"442 329 OFFCURVE",
"423 346 CURVE SMOOTH",
"337 427 LINE SMOOTH",
"318 444 OFFCURVE",
"311 441 OFFCURVE",
"289 441 CURVE SMOOTH",
"211 441 LINE SMOOTH",
"189 441 OFFCURVE",
"182 444 OFFCURVE",
"163 427 CURVE SMOOTH",
"77 346 LINE SMOOTH",
"58 329 OFFCURVE",
"50 311 OFFCURVE",
"50 287 CURVE SMOOTH",
"50 281 LINE",
"150 281 LINE",
"150 358 LINE",
"350 358 LINE",
"350 281 LINE",
"450 281 LINE"
);
}
);
width = 500;
},
{
layerId = "38E81DE9-8F9C-4A79-BC09-6CE2D0CDAB48";
paths = (
{
closed = 1;
nodes = (
"250 444 LINE",
"250 700 LINE",
"150 700 LINE",
"150 515 LINE SMOOTH",
"150 491 OFFCURVE",
"158 473 OFFCURVE",
"177 456 CURVE SMOOTH",
"263 375 LINE SMOOTH",
"282 358 OFFCURVE",
"289 361 OFFCURVE",
"311 361 CURVE SMOOTH",
"389 361 LINE SMOOTH",
"411 361 OFFCURVE",
"418 358 OFFCURVE",
"437 375 CURVE SMOOTH",
"523 456 LINE SMOOTH",
"542 473 OFFCURVE",
"550 491 OFFCURVE",
"550 515 CURVE SMOOTH",
"550 700 LINE",
"450 700 LINE",
"450 444 LINE"
);
},
{
closed = 1;
nodes = (
"50 0 LINE",
"150 0 LINE",
"150 281 LINE",
"50 281 LINE"
);
},
{
closed = 1;
nodes = (
"350 0 LINE",
"450 0 LINE",
"450 281 LINE",
"350 281 LINE"
);
},
{
closed = 1;
nodes = (
"550 287 LINE SMOOTH",
"550 311 OFFCURVE",
"542 329 OFFCURVE",
"523 346 CURVE SMOOTH",
"437 427 LINE SMOOTH",
"418 444 OFFCURVE",
"411 441 OFFCURVE",
"389 441 CURVE SMOOTH",
"311 441 LINE SMOOTH",
"289 441 OFFCURVE",
"282 444 OFFCURVE",
"263 427 CURVE SMOOTH",
"177 346 LINE SMOOTH",
"158 329 OFFCURVE",
"150 311 OFFCURVE",
"150 287 CURVE SMOOTH",
"150 281 LINE",
"250 281 LINE",
"250 358 LINE",
"450 358 LINE",
"450 281 LINE",
"550 281 LINE"
);
}
);
width = 500;
},
{
layerId = "779467A8-E68B-4D04-BE8F-984748AF222C";
paths = (
{
closed = 1;
nodes = (
"350 444 LINE",
"350 700 LINE",
"250 700 LINE",
"250 515 LINE SMOOTH",
"250 491 OFFCURVE",
"258 473 OFFCURVE",
"277 456 CURVE SMOOTH",
"363 375 LINE SMOOTH",
"382 358 OFFCURVE",
"389 361 OFFCURVE",
"411 361 CURVE SMOOTH",
"489 361 LINE SMOOTH",
"511 361 OFFCURVE",
"518 358 OFFCURVE",
"537 375 CURVE SMOOTH",
"623 456 LINE SMOOTH",
"642 473 OFFCURVE",
"650 491 OFFCURVE",
"650 515 CURVE SMOOTH",
"650 700 LINE",
"550 700 LINE",
"550 444 LINE"
);
},
{
closed = 1;
nodes = (
"50 0 LINE",
"150 0 LINE",
"150 281 LINE",
"50 281 LINE"
);
},
{
closed = 1;
nodes = (
"350 0 LINE",
"450 0 LINE",
"450 281 LINE",
"350 281 LINE"
);
},
{
closed = 1;
nodes = (
"650 287 LINE SMOOTH",
"650 311 OFFCURVE",
"642 329 OFFCURVE",
"623 346 CURVE SMOOTH",
"537 427 LINE SMOOTH",
"518 444 OFFCURVE",
"511 441 OFFCURVE",
"489 441 CURVE SMOOTH",
"411 441 LINE SMOOTH",
"389 441 OFFCURVE",
"382 444 OFFCURVE",
"363 427 CURVE SMOOTH",
"277 346 LINE SMOOTH",
"258 329 OFFCURVE",
"250 311 OFFCURVE",
"250 287 CURVE SMOOTH",
"250 281 LINE",
"350 281 LINE",
"350 358 LINE",
"550 358 LINE",
"550 281 LINE",
"650 281 LINE"
);
}
);
width = 500;
},
{
layerId = "4170F2C3-ADB0-4204-BA3B-87919679734A";
paths = (
{
closed = 1;
nodes = (
"-50 444 LINE",
"-50 700 LINE",
"-150 700 LINE",
"-150 515 LINE SMOOTH",
"-150 491 OFFCURVE",
"-142 473 OFFCURVE",
"-123 456 CURVE SMOOTH",
"-37 375 LINE SMOOTH",
"-18 358 OFFCURVE",
"-11 361 OFFCURVE",
"11 361 CURVE SMOOTH",
"89 361 LINE SMOOTH",
"111 361 OFFCURVE",
"118 358 OFFCURVE",
"137 375 CURVE SMOOTH",
"223 456 LINE SMOOTH",
"242 473 OFFCURVE",
"250 491 OFFCURVE",
"250 515 CURVE SMOOTH",
"250 700 LINE",
"150 700 LINE",
"150 444 LINE"
);
},
{
closed = 1;
nodes = (
"50 0 LINE",
"150 0 LINE",
"150 281 LINE",
"50 281 LINE"
);
},
{
closed = 1;
nodes = (
"350 0 LINE",
"450 0 LINE",
"450 281 LINE",
"350 281 LINE"
);
},
{
closed = 1;
nodes = (
"250 287 LINE SMOOTH",
"250 311 OFFCURVE",
"242 329 OFFCURVE",
"223 346 CURVE SMOOTH",
"137 427 LINE SMOOTH",
"118 444 OFFCURVE",
"111 441 OFFCURVE",
"89 441 CURVE SMOOTH",
"11 441 LINE SMOOTH",
"-11 441 OFFCURVE",
"-18 444 OFFCURVE",
"-37 427 CURVE SMOOTH",
"-123 346 LINE SMOOTH",
"-142 329 OFFCURVE",
"-150 311 OFFCURVE",
"-150 287 CURVE SMOOTH",
"-150 281 LINE",
"-50 281 LINE",
"-50 358 LINE",
"150 358 LINE",
"150 281 LINE",
"250 281 LINE"
);
}
);
width = 500;
},
{
layerId = "0C2EA0A7-CF3D-43DE-A1B1-20537ED6286F";
paths = (
{
closed = 1;
nodes = (
"150 444 LINE",
"150 700 LINE",
"50 700 LINE",
"50 515 LINE SMOOTH",
"50 491 OFFCURVE",
"58 473 OFFCURVE",
"77 456 CURVE SMOOTH",
"163 375 LINE SMOOTH",
"182 358 OFFCURVE",
"189 361 OFFCURVE",
"211 361 CURVE SMOOTH",
"289 361 LINE SMOOTH",
"311 361 OFFCURVE",
"318 358 OFFCURVE",
"337 375 CURVE SMOOTH",
"423 456 LINE SMOOTH",
"442 473 OFFCURVE",
"450 491 OFFCURVE",
"450 515 CURVE SMOOTH",
"450 700 LINE",
"350 700 LINE",
"350 444 LINE"
);
},
{
closed = 1;
nodes = (
"50 -200 LINE",
"150 -200 LINE",
"150 81 LINE",
"50 81 LINE"
);
},
{
closed = 1;
nodes = (
"350 -200 LINE",
"450 -200 LINE",
"450 81 LINE",
"350 81 LINE"
);
},
{
closed = 1;
nodes = (
"450 287 LINE SMOOTH",
"450 311 OFFCURVE",
"442 329 OFFCURVE",
"423 346 CURVE SMOOTH",
"337 427 LINE SMOOTH",
"318 444 OFFCURVE",
"311 441 OFFCURVE",
"289 441 CURVE SMOOTH",
"211 441 LINE SMOOTH",
"189 441 OFFCURVE",
"182 444 OFFCURVE",
"163 427 CURVE SMOOTH",
"77 346 LINE SMOOTH",
"58 329 OFFCURVE",
"50 311 OFFCURVE",
"50 287 CURVE SMOOTH",
"50 281 LINE",
"150 281 LINE",
"150 358 LINE",
"350 358 LINE",
"350 281 LINE",
"450 281 LINE"
);
}
);
width = 500;
},
{
layerId = "E46B3A3C-F4DE-4A6E-B6C3-4FEA9D5321E0";
paths = (
{
closed = 1;
nodes = (
"350 444 LINE",
"350 700 LINE",
"250 700 LINE",
"250 515 LINE SMOOTH",
"250 491 OFFCURVE",
"258 473 OFFCURVE",
"277 456 CURVE SMOOTH",
"363 375 LINE SMOOTH",
"382 358 OFFCURVE",
"389 361 OFFCURVE",
"411 361 CURVE SMOOTH",
"489 361 LINE SMOOTH",
"511 361 OFFCURVE",
"518 358 OFFCURVE",
"537 375 CURVE SMOOTH",
"623 456 LINE SMOOTH",
"642 473 OFFCURVE",
"650 491 OFFCURVE",
"650 515 CURVE SMOOTH",
"650 700 LINE",
"550 700 LINE",
"550 444 LINE"
);
},
{
closed = 1;
nodes = (
"50 -200 LINE",
"150 -200 LINE",
"150 81 LINE",
"50 81 LINE"
);
},
{
closed = 1;
nodes = (
"350 -200 LINE",
"450 -200 LINE",
"450 81 LINE",
"350 81 LINE"
);
},
{
closed = 1;
nodes = (
"650 287 LINE SMOOTH",
"650 311 OFFCURVE",
"642 329 OFFCURVE",
"623 346 CURVE SMOOTH",
"537 427 LINE SMOOTH",
"518 444 OFFCURVE",
"511 441 OFFCURVE",
"489 441 CURVE SMOOTH",
"411 441 LINE SMOOTH",
"389 441 OFFCURVE",
"382 444 OFFCURVE",
"363 427 CURVE SMOOTH",
"277 346 LINE SMOOTH",
"258 329 OFFCURVE",
"250 311 OFFCURVE",
"250 287 CURVE SMOOTH",
"250 281 LINE",
"350 281 LINE",
"350 358 LINE",
"550 358 LINE",
"550 281 LINE",
"650 281 LINE"
);
}
);
width = 500;
},
{
layerId = "5FCFDAD1-644A-4B50-89F3-850EB8161FE9";
paths = (
{
closed = 1;
nodes = (
"-50 444 LINE",
"-50 700 LINE",
"-150 700 LINE",
"-150 515 LINE SMOOTH",
"-150 491 OFFCURVE",
"-142 473 OFFCURVE",
"-123 456 CURVE SMOOTH",
"-37 375 LINE SMOOTH",
"-18 358 OFFCURVE",
"-11 361 OFFCURVE",
"11 361 CURVE SMOOTH",
"89 361 LINE SMOOTH",
"111 361 OFFCURVE",
"118 358 OFFCURVE",
"137 375 CURVE SMOOTH",
"223 456 LINE SMOOTH",
"242 473 OFFCURVE",
"250 491 OFFCURVE",
"250 515 CURVE SMOOTH",
"250 700 LINE",
"150 700 LINE",
"150 444 LINE"
);
},
{
closed = 1;
nodes = (
"50 -200 LINE",
"150 -200 LINE",
"150 81 LINE",
"50 81 LINE"
);
},
{
closed = 1;
nodes = (
"350 -200 LINE",
"450 -200 LINE",
"450 81 LINE",
"350 81 LINE"
);
},
{
closed = 1;
nodes = (
"250 287 LINE SMOOTH",
"250 311 OFFCURVE",
"242 329 OFFCURVE",
"223 346 CURVE SMOOTH",
"137 427 LINE SMOOTH",
"118 444 OFFCURVE",
"111 441 OFFCURVE",
"89 441 CURVE SMOOTH",
"11 441 LINE SMOOTH",
"-11 441 OFFCURVE",
"-18 444 OFFCURVE",
"-37 427 CURVE SMOOTH",
"-123 346 LINE SMOOTH",
"-142 329 OFFCURVE",
"-150 311 OFFCURVE",
"-150 287 CURVE SMOOTH",
"-150 281 LINE",
"-50 281 LINE",
"-50 358 LINE",
"150 358 LINE",
"150 281 LINE",
"250 281 LINE"
);
}
);
width = 500;
},
{
layerId = "A54B81DC-5EE9-468E-87D3-6F4C184F83A3";
paths = (
{
closed = 1;
nodes = (
"250 444 LINE",
"250 700 LINE",
"150 700 LINE",
"150 515 LINE SMOOTH",
"150 491 OFFCURVE",
"158 473 OFFCURVE",
"177 456 CURVE SMOOTH",
"263 375 LINE SMOOTH",
"282 358 OFFCURVE",
"289 361 OFFCURVE",
"311 361 CURVE SMOOTH",
"389 361 LINE SMOOTH",
"411 361 OFFCURVE",
"418 358 OFFCURVE",
"437 375 CURVE SMOOTH",
"523 456 LINE SMOOTH",
"542 473 OFFCURVE",
"550 491 OFFCURVE",
"550 515 CURVE SMOOTH",
"550 700 LINE",
"450 700 LINE",
"450 444 LINE"
);
},
{
closed = 1;
nodes = (
"50 -200 LINE",
"150 -200 LINE",
"150 81 LINE",
"50 81 LINE"
);
},
{
closed = 1;
nodes = (
"350 -200 LINE",
"450 -200 LINE",
"450 81 LINE",
"350 81 LINE"
);
},
{
closed = 1;
nodes = (
"550 287 LINE SMOOTH",
"550 311 OFFCURVE",
"542 329 OFFCURVE",
"523 346 CURVE SMOOTH",
"437 427 LINE SMOOTH",
"418 444 OFFCURVE",
"411 441 OFFCURVE",
"389 441 CURVE SMOOTH",
"311 441 LINE SMOOTH",
"289 441 OFFCURVE",
"282 444 OFFCURVE",
"263 427 CURVE SMOOTH",
"177 346 LINE SMOOTH",
"158 329 OFFCURVE",
"150 311 OFFCURVE",
"150 287 CURVE SMOOTH",
"150 281 LINE",
"250 281 LINE",
"250 358 LINE",
"450 358 LINE",
"450 281 LINE",
"550 281 LINE"
);
}
);
width = 500;
}
);
unicode = 0058;
},
{
glyphname = Y;
lastChange = "2021-12-17 19:08:13 +0000";
layers = (
{
layerId = "A4C12FFD-F5F6-42D6-8363-6D796F05C5E8";
paths = (
{
closed = 1;
nodes = (
"150 382 LINE",
"150 700 LINE",
"50 700 LINE",
"50 443 LINE SMOOTH",
"50 419 OFFCURVE",
"57 401 OFFCURVE",
"77 384 CURVE SMOOTH",
"200 281 LINE",
"300 281 LINE",
"423 384 LINE SMOOTH",
"443 401 OFFCURVE",
"450 419 OFFCURVE",
"450 443 CURVE SMOOTH",
"450 700 LINE",
"350 700 LINE",
"350 382 LINE"
);
},
{
closed = 1;
nodes = (
"200 0 LINE",
"300 0 LINE",
"300 281 LINE",
"200 281 LINE"
);
}
);
width = 500;
},
{
layerId = "38E81DE9-8F9C-4A79-BC09-6CE2D0CDAB48";
paths = (
{
closed = 1;
nodes = (
"250 382 LINE",
"250 700 LINE",
"150 700 LINE",
"150 443 LINE SMOOTH",
"150 419 OFFCURVE",
"157 401 OFFCURVE",
"177 384 CURVE SMOOTH",
"300 281 LINE",
"400 281 LINE",
"523 384 LINE SMOOTH",
"543 401 OFFCURVE",
"550 419 OFFCURVE",
"550 443 CURVE SMOOTH",
"550 700 LINE",
"450 700 LINE",
"450 382 LINE"
);
},
{
closed = 1;
nodes = (
"200 0 LINE",
"300 0 LINE",
"300 281 LINE",
"200 281 LINE"
);
}
);
width = 500;
},
{
layerId = "779467A8-E68B-4D04-BE8F-984748AF222C";
paths = (
{
closed = 1;
nodes = (
"350 382 LINE",
"350 700 LINE",
"250 700 LINE",
"250 443 LINE SMOOTH",
"250 419 OFFCURVE",
"257 401 OFFCURVE",
"277 384 CURVE SMOOTH",
"400 281 LINE",
"500 281 LINE",
"623 384 LINE SMOOTH",
"643 401 OFFCURVE",
"650 419 OFFCURVE",
"650 443 CURVE SMOOTH",
"650 700 LINE",
"550 700 LINE",
"550 382 LINE"
);
},
{
closed = 1;
nodes = (
"200 0 LINE",
"300 0 LINE",
"300 281 LINE",
"200 281 LINE"
);
}
);
width = 500;
},
{
layerId = "4170F2C3-ADB0-4204-BA3B-87919679734A";
paths = (
{
closed = 1;
nodes = (
"-50 382 LINE",
"-50 700 LINE",
"-150 700 LINE",
"-150 443 LINE SMOOTH",
"-150 419 OFFCURVE",
"-143 401 OFFCURVE",
"-123 384 CURVE SMOOTH",
"0 281 LINE",
"100 281 LINE",
"223 384 LINE SMOOTH",
"243 401 OFFCURVE",
"250 419 OFFCURVE",
"250 443 CURVE SMOOTH",
"250 700 LINE",
"150 700 LINE",
"150 382 LINE"
);
},
{
closed = 1;
nodes = (
"200 0 LINE",
"300 0 LINE",
"300 281 LINE",
"200 281 LINE"
);
}
);
width = 500;
},
{
layerId = "0C2EA0A7-CF3D-43DE-A1B1-20537ED6286F";
paths = (
{
closed = 1;
nodes = (
"150 382 LINE",
"150 700 LINE",
"50 700 LINE",
"50 443 LINE SMOOTH",
"50 419 OFFCURVE",
"57 401 OFFCURVE",
"77 384 CURVE SMOOTH",
"200 281 LINE",
"300 281 LINE",
"423 384 LINE SMOOTH",
"443 401 OFFCURVE",
"450 419 OFFCURVE",
"450 443 CURVE SMOOTH",
"450 700 LINE",
"350 700 LINE",
"350 382 LINE"
);
},
{
closed = 1;
nodes = (
"200 -200 LINE",
"300 -200 LINE",
"300 81 LINE",
"200 81 LINE"
);
}
);
width = 500;
},
{
layerId = "E46B3A3C-F4DE-4A6E-B6C3-4FEA9D5321E0";
paths = (
{
closed = 1;
nodes = (
"350 382 LINE",
"350 700 LINE",
"250 700 LINE",
"250 443 LINE SMOOTH",
"250 419 OFFCURVE",
"257 401 OFFCURVE",
"277 384 CURVE SMOOTH",
"400 281 LINE",
"500 281 LINE",
"623 384 LINE SMOOTH",
"643 401 OFFCURVE",
"650 419 OFFCURVE",
"650 443 CURVE SMOOTH",
"650 700 LINE",
"550 700 LINE",
"550 382 LINE"
);
},
{
closed = 1;
nodes = (
"200 -200 LINE",
"300 -200 LINE",
"300 81 LINE",
"200 81 LINE"
);
}
);
width = 500;
},
{
layerId = "5FCFDAD1-644A-4B50-89F3-850EB8161FE9";
paths = (
{
closed = 1;
nodes = (
"-50 382 LINE",
"-50 700 LINE",
"-150 700 LINE",
"-150 443 LINE SMOOTH",
"-150 419 OFFCURVE",
"-143 401 OFFCURVE",
"-123 384 CURVE SMOOTH",
"0 281 LINE",
"100 281 LINE",
"223 384 LINE SMOOTH",
"243 401 OFFCURVE",
"250 419 OFFCURVE",
"250 443 CURVE SMOOTH",
"250 700 LINE",
"150 700 LINE",
"150 382 LINE"
);
},
{
closed = 1;
nodes = (
"200 -200 LINE",
"300 -200 LINE",
"300 81 LINE",
"200 81 LINE"
);
}
);
width = 500;
},
{
layerId = "A54B81DC-5EE9-468E-87D3-6F4C184F83A3";
paths = (
{
closed = 1;
nodes = (
"250 382 LINE",
"250 700 LINE",
"150 700 LINE",
"150 443 LINE SMOOTH",
"150 419 OFFCURVE",
"157 401 OFFCURVE",
"177 384 CURVE SMOOTH",
"300 281 LINE",
"400 281 LINE",
"523 384 LINE SMOOTH",
"543 401 OFFCURVE",
"550 419 OFFCURVE",
"550 443 CURVE SMOOTH",
"550 700 LINE",
"450 700 LINE",
"450 382 LINE"
);
},
{
closed = 1;
nodes = (
"200 -200 LINE",
"300 -200 LINE",
"300 81 LINE",
"200 81 LINE"
);
}
);
width = 500;
}
);
unicode = 0059;
},
{
glyphname = Z;
lastChange = "2021-12-17 19:08:13 +0000";
layers = (
{
layerId = "A4C12FFD-F5F6-42D6-8363-6D796F05C5E8";
paths = (
{
closed = 1;
nodes = (
"50 0 LINE",
"440 0 LINE",
"440 90 LINE",
"155 90 LINE",
"155 280 LINE",
"50 280 LINE"
);
},
{
closed = 1;
nodes = (
"155 361 LINE",
"309 361 LINE SMOOTH",
"348 361 OFFCURVE",
"361 369 OFFCURVE",
"383 391 CURVE SMOOTH",
"425 434 LINE SMOOTH",
"443 452 OFFCURVE",
"450 470 OFFCURVE",
"450 504 CURVE SMOOTH",
"450 700 LINE",
"50 700 LINE",
"50 610 LINE",
"350 610 LINE",
"350 447 LINE",
"171 447 LINE SMOOTH",
"145 447 OFFCURVE",
"126 443 OFFCURVE",
"109 424 CURVE SMOOTH",
"74 386 LINE SMOOTH",
"57 367 OFFCURVE",
"50 354 OFFCURVE",
"50 331 CURVE SMOOTH",
"50 280 LINE",
"155 280 LINE"
);
}
);
width = 500;
},
{
layerId = "38E81DE9-8F9C-4A79-BC09-6CE2D0CDAB48";
paths = (
{
closed = 1;
nodes = (
"50 0 LINE",
"440 0 LINE",
"440 90 LINE",
"155 90 LINE",
"155 280 LINE",
"50 280 LINE"
);
},
{
closed = 1;
nodes = (
"255 361 LINE",
"409 361 LINE SMOOTH",
"448 361 OFFCURVE",
"461 369 OFFCURVE",
"483 391 CURVE SMOOTH",
"525 434 LINE SMOOTH",
"543 452 OFFCURVE",
"550 470 OFFCURVE",
"550 504 CURVE SMOOTH",
"550 700 LINE",
"150 700 LINE",
"150 610 LINE",
"450 610 LINE",
"450 447 LINE",
"271 447 LINE SMOOTH",
"245 447 OFFCURVE",
"226 443 OFFCURVE",
"209 424 CURVE SMOOTH",
"174 386 LINE SMOOTH",
"157 367 OFFCURVE",
"155 354 OFFCURVE",
"155 331 CURVE SMOOTH",
"155 280 LINE",
"255 280 LINE"
);
}
);
width = 500;
},
{
associatedMasterId = "38E81DE9-8F9C-4A79-BC09-6CE2D0CDAB48";
layerId = "C12A226E-31EA-43AA-BD14-112AD2A86811";
name = "Dec 11 21, 13:09";
paths = (
{
closed = 1;
nodes = (
"50 0 LINE",
"440 0 LINE",
"440 90 LINE",
"155 90 LINE",
"155 280 LINE",
"50 280 LINE"
);
},
{
closed = 1;
nodes = (
"255 311 LINE",
"409 311 LINE SMOOTH",
"448 311 OFFCURVE",
"461 319 OFFCURVE",
"483 341 CURVE SMOOTH",
"525 384 LINE SMOOTH",
"543 402 OFFCURVE",
"550 420 OFFCURVE",
"550 454 CURVE SMOOTH",
"550 700 LINE",
"150 700 LINE",
"150 610 LINE",
"450 610 LINE",
"450 397 LINE",
"271 397 LINE SMOOTH",
"245 397 OFFCURVE",
"226 393 OFFCURVE",
"209 374 CURVE SMOOTH",
"174 336 LINE SMOOTH",
"157 317 OFFCURVE",
"155 304 OFFCURVE",
"155 281 CURVE SMOOTH",
"155 280 LINE",
"255 280 LINE"
);
}
);
width = 500;
},
{
layerId = "779467A8-E68B-4D04-BE8F-984748AF222C";
paths = (
{
closed = 1;
nodes = (
"50 0 LINE",
"440 0 LINE",
"440 90 LINE",
"155 90 LINE",
"155 280 LINE",
"50 280 LINE"
);
},
{
closed = 1;
nodes = (
"355 361 LINE",
"509 361 LINE SMOOTH",
"548 361 OFFCURVE",
"561 369 OFFCURVE",
"583 391 CURVE SMOOTH",
"625 434 LINE SMOOTH",
"643 452 OFFCURVE",
"650 470 OFFCURVE",
"650 504 CURVE SMOOTH",
"650 700 LINE",
"250 700 LINE",
"250 610 LINE",
"550 610 LINE",
"550 447 LINE",
"371 447 LINE SMOOTH",
"345 447 OFFCURVE",
"326 443 OFFCURVE",
"309 424 CURVE SMOOTH",
"274 386 LINE SMOOTH",
"257 367 OFFCURVE",
"255 354 OFFCURVE",
"255 331 CURVE SMOOTH",
"255 280 LINE",
"355 280 LINE"
);
}
);
width = 500;
},
{
associatedMasterId = "779467A8-E68B-4D04-BE8F-984748AF222C";
layerId = "6F7BE67B-F18A-4FAF-A7E5-15D6AEC1DBE5";
name = "Dec 11 21, 13:09";
paths = (
{
closed = 1;
nodes = (
"50 0 LINE",
"440 0 LINE",
"440 90 LINE",
"155 90 LINE",
"155 280 LINE",
"50 280 LINE"
);
},
{
closed = 1;
nodes = (
"255 311 LINE",
"409 311 LINE SMOOTH",
"448 311 OFFCURVE",
"461 319 OFFCURVE",
"483 341 CURVE SMOOTH",
"525 384 LINE SMOOTH",
"543 402 OFFCURVE",
"550 420 OFFCURVE",
"550 454 CURVE SMOOTH",
"550 700 LINE",
"150 700 LINE",
"150 610 LINE",
"450 610 LINE",
"450 397 LINE",
"271 397 LINE SMOOTH",
"245 397 OFFCURVE",
"226 393 OFFCURVE",
"209 374 CURVE SMOOTH",
"174 336 LINE SMOOTH",
"157 317 OFFCURVE",
"155 304 OFFCURVE",
"155 281 CURVE SMOOTH",
"155 280 LINE",
"255 280 LINE"
);
}
);
width = 500;
},
{
layerId = "4170F2C3-ADB0-4204-BA3B-87919679734A";
paths = (
{
closed = 1;
nodes = (
"50 0 LINE",
"440 0 LINE",
"440 90 LINE",
"155 90 LINE",
"155 280 LINE",
"50 280 LINE"
);
},
{
closed = 1;
nodes = (
"-45 361 LINE",
"109 361 LINE SMOOTH",
"148 361 OFFCURVE",
"161 369 OFFCURVE",
"183 391 CURVE SMOOTH",
"225 434 LINE SMOOTH",
"243 452 OFFCURVE",
"250 470 OFFCURVE",
"250 504 CURVE SMOOTH",
"250 700 LINE",
"-150 700 LINE",
"-150 610 LINE",
"150 610 LINE",
"150 447 LINE",
"-29 447 LINE SMOOTH",
"-55 447 OFFCURVE",
"-74 443 OFFCURVE",
"-91 424 CURVE SMOOTH",
"-126 386 LINE SMOOTH",
"-143 367 OFFCURVE",
"-145 354 OFFCURVE",
"-145 331 CURVE SMOOTH",
"-145 280 LINE",
"-45 280 LINE"
);
}
);
width = 500;
},
{
associatedMasterId = "4170F2C3-ADB0-4204-BA3B-87919679734A";
layerId = "9A687519-5BCB-4DFF-9091-9A500818B6C9";
name = "Dec 11 21, 13:09";
paths = (
{
closed = 1;
nodes = (
"50 0 LINE",
"440 0 LINE",
"440 90 LINE",
"155 90 LINE",
"155 280 LINE",
"50 280 LINE"
);
},
{
closed = 1;
nodes = (
"255 311 LINE",
"409 311 LINE SMOOTH",
"448 311 OFFCURVE",
"461 319 OFFCURVE",
"483 341 CURVE SMOOTH",
"525 384 LINE SMOOTH",
"543 402 OFFCURVE",
"550 420 OFFCURVE",
"550 454 CURVE SMOOTH",
"550 700 LINE",
"150 700 LINE",
"150 610 LINE",
"450 610 LINE",
"450 397 LINE",
"271 397 LINE SMOOTH",
"245 397 OFFCURVE",
"226 393 OFFCURVE",
"209 374 CURVE SMOOTH",
"174 336 LINE SMOOTH",
"157 317 OFFCURVE",
"155 304 OFFCURVE",
"155 281 CURVE SMOOTH",
"155 280 LINE",
"255 280 LINE"
);
}
);
width = 500;
},
{
layerId = "0C2EA0A7-CF3D-43DE-A1B1-20537ED6286F";
paths = (
{
closed = 1;
nodes = (
"50 0 LINE",
"440 0 LINE",
"440 90 LINE",
"155 90 LINE",
"155 280 LINE",
"50 280 LINE"
);
},
{
closed = 1;
nodes = (
"155 561 LINE",
"309 561 LINE SMOOTH",
"348 561 OFFCURVE",
"361 569 OFFCURVE",
"383 591 CURVE SMOOTH",
"425 634 LINE SMOOTH",
"443 652 OFFCURVE",
"450 670 OFFCURVE",
"450 704 CURVE SMOOTH",
"450 900 LINE",
"50 900 LINE",
"50 810 LINE",
"350 810 LINE",
"350 647 LINE",
"171 647 LINE SMOOTH",
"145 647 OFFCURVE",
"126 643 OFFCURVE",
"109 624 CURVE SMOOTH",
"74 586 LINE SMOOTH",
"57 567 OFFCURVE",
"50 554 OFFCURVE",
"50 531 CURVE SMOOTH",
"50 480 LINE",
"155 480 LINE"
);
}
);
width = 500;
},
{
layerId = "E46B3A3C-F4DE-4A6E-B6C3-4FEA9D5321E0";
paths = (
{
closed = 1;
nodes = (
"50 0 LINE",
"440 0 LINE",
"440 90 LINE",
"155 90 LINE",
"155 280 LINE",
"50 280 LINE"
);
},
{
closed = 1;
nodes = (
"355 561 LINE",
"509 561 LINE SMOOTH",
"548 561 OFFCURVE",
"561 569 OFFCURVE",
"583 591 CURVE SMOOTH",
"625 634 LINE SMOOTH",
"643 652 OFFCURVE",
"650 670 OFFCURVE",
"650 704 CURVE SMOOTH",
"650 900 LINE",
"250 900 LINE",
"250 810 LINE",
"550 810 LINE",
"550 647 LINE",
"371 647 LINE SMOOTH",
"345 647 OFFCURVE",
"326 643 OFFCURVE",
"309 624 CURVE SMOOTH",
"274 586 LINE SMOOTH",
"257 567 OFFCURVE",
"255 554 OFFCURVE",
"255 531 CURVE SMOOTH",
"255 480 LINE",
"355 480 LINE"
);
}
);
width = 500;
},
{
associatedMasterId = "E46B3A3C-F4DE-4A6E-B6C3-4FEA9D5321E0";
layerId = "493159B7-9674-4C18-8BAF-47602AEB6530";
name = "Dec 11 21, 13:09";
paths = (
{
closed = 1;
nodes = (
"50 0 LINE",
"440 0 LINE",
"440 90 LINE",
"155 90 LINE",
"155 280 LINE",
"50 280 LINE"
);
},
{
closed = 1;
nodes = (
"255 311 LINE",
"409 311 LINE SMOOTH",
"448 311 OFFCURVE",
"461 319 OFFCURVE",
"483 341 CURVE SMOOTH",
"525 384 LINE SMOOTH",
"543 402 OFFCURVE",
"550 420 OFFCURVE",
"550 454 CURVE SMOOTH",
"550 700 LINE",
"150 700 LINE",
"150 610 LINE",
"450 610 LINE",
"450 397 LINE",
"271 397 LINE SMOOTH",
"245 397 OFFCURVE",
"226 393 OFFCURVE",
"209 374 CURVE SMOOTH",
"174 336 LINE SMOOTH",
"157 317 OFFCURVE",
"155 304 OFFCURVE",
"155 281 CURVE SMOOTH",
"155 280 LINE",
"255 280 LINE"
);
}
);
width = 500;
},
{
layerId = "5FCFDAD1-644A-4B50-89F3-850EB8161FE9";
paths = (
{
closed = 1;
nodes = (
"50 0 LINE",
"440 0 LINE",
"440 90 LINE",
"155 90 LINE",
"155 280 LINE",
"50 280 LINE"
);
},
{
closed = 1;
nodes = (
"-45 561 LINE",
"109 561 LINE SMOOTH",
"148 561 OFFCURVE",
"161 569 OFFCURVE",
"183 591 CURVE SMOOTH",
"225 634 LINE SMOOTH",
"243 652 OFFCURVE",
"250 670 OFFCURVE",
"250 704 CURVE SMOOTH",
"250 900 LINE",
"-150 900 LINE",
"-150 810 LINE",
"150 810 LINE",
"150 647 LINE",
"-29 647 LINE SMOOTH",
"-55 647 OFFCURVE",
"-74 643 OFFCURVE",
"-91 624 CURVE SMOOTH",
"-126 586 LINE SMOOTH",
"-143 567 OFFCURVE",
"-155 554 OFFCURVE",
"-155 531 CURVE SMOOTH",
"-155 480 LINE",
"-45 480 LINE"
);
}
);
width = 500;
},
{
layerId = "A54B81DC-5EE9-468E-87D3-6F4C184F83A3";
paths = (
{
closed = 1;
nodes = (
"50 0 LINE",
"440 0 LINE",
"440 90 LINE",
"155 90 LINE",
"155 280 LINE",
"50 280 LINE"
);
},
{
closed = 1;
nodes = (
"255 561 LINE",
"409 561 LINE SMOOTH",
"448 561 OFFCURVE",
"461 569 OFFCURVE",
"483 591 CURVE SMOOTH",
"525 634 LINE SMOOTH",
"543 652 OFFCURVE",
"550 670 OFFCURVE",
"550 704 CURVE SMOOTH",
"550 900 LINE",
"150 900 LINE",
"150 810 LINE",
"450 810 LINE",
"450 647 LINE",
"271 647 LINE SMOOTH",
"245 647 OFFCURVE",
"226 643 OFFCURVE",
"209 624 CURVE SMOOTH",
"174 586 LINE SMOOTH",
"157 567 OFFCURVE",
"153 554 OFFCURVE",
"153 531 CURVE SMOOTH",
"153 480 LINE",
"255 480 LINE"
);
}
);
width = 500;
}
);
unicode = 005A;
},
